<?xml version="1.0" encoding="utf-8"?>
<!-- Generator: Adobe Illustrator 25.4.1, SVG Export Plug-In . SVG Version: 6.00 Build 0)  -->
<svg version="1.1" id="レイヤー_1" xmlns="http://www.w3.org/2000/svg" xmlns:xlink="http://www.w3.org/1999/xlink" x="0px"
	 y="0px" viewBox="0 0 128 128" style="enable-background:new 0 0 128 128;" xml:space="preserve">
<style type="text/css">
	.st0{fill:#3E3A39;}
</style>
<g>
	<g id="レイヤー_2_00000096053226199908854630000012214673214054177196_">
		<g id="編集モード_00000026881257565747760960000016636559107916500149_">
			<path class="st0" d="M51.1,29.9c3.4-5.4,7.5-8.6,11.7-9.1c0.4-0.1,0.9-0.1,1.3-0.1c0.7,0,1.4,0.1,2.2,0.2c3.9,0.8,7.6,4,10.8,8.9
				c2.1,3.3,3.6,6.9,4.7,10.6h0c2.7,10,3.3,15,1.6,25.5c-0.1,0.8-0.3,1.6-0.4,2.4c0,0,0,0.1,0,0.1l0,0c-0.3,1.7-0.7,3.4-1.2,5l0,0
				c-0.7,2.2-1.5,4.3-2.4,6.4v0c-2.2,4-4.9,7.6-8.2,10.7l0,0c-0.9,0.8-1.7,1.6-2.7,2.4c5.4,3.9,9.3,5.4,16.5,7.3
				c2.3-2.3,4.4-4.9,6.1-7.7c1.1-1.8,2.1-3.6,3-5.5c0.1-0.2,0.2-0.4,0.3-0.7s0.2-0.3,0.2-0.5c0.1-0.3,0.3-0.5,0.4-0.8
				c0.1-0.1,0.1-0.3,0.2-0.4c0.2-0.4,0.3-0.8,0.5-1.2c0,0,0-0.1,0-0.1c0.1-0.4,0.3-0.7,0.4-1.1c0.1-0.1,0.1-0.3,0.2-0.4
				c0.1-0.3,0.2-0.5,0.3-0.8c0.1-0.2,0.1-0.3,0.2-0.5c0.1-0.2,0.2-0.4,0.2-0.7s0.1-0.3,0.2-0.5s0.1-0.4,0.2-0.7
				c0.1-0.2,0.1-0.4,0.1-0.5s0.1-0.4,0.1-0.6c0-0.2,0.1-0.4,0.2-0.7c0.1-0.2,0.1-0.4,0.2-0.6c0-0.2,0.1-0.4,0.2-0.6
				c1.9-11.2,2.3-16.3,2.1-25.3h0c-0.9-11.1-4.1-21.5-9.3-29.7C84.1,10.2,74.5,4.2,64,4.2s-20,6-26.9,16.9c-4.5,7-7.5,15.7-8.8,25
				c5.4-3,10.4-5.1,18.9-8.3C48.2,35.1,49.5,32.4,51.1,29.9z"/>
			<path class="st0" d="M123.2,77.1L123.2,77.1c-3.9-7.4-9.9-14.4-17.5-20.3c-0.1,6.2-0.8,11.5-2.3,20.4c2,2.3,3.7,4.8,5.1,7.5
				c3.3,6.2,3.8,11.8,1.5,15.8c-2,3.5-6.2,5.7-11.9,6.4c-0.4,0-0.8,0.1-1.3,0.1c-0.4,0-0.9,0.1-1.3,0.1c-3.7,0.1-7.5-0.3-11.1-1.1
				v0.1c-9.7-2.5-14.3-4.4-22.2-10.6c-2.5-1.9-4.8-3.9-6.9-6.2l0,0c-1.6-1.7-3.1-3.5-4.4-5.5c-2.3-3.7-4-7.7-5-11.9l0,0
				c-0.3-1.3-0.6-2.6-0.9-3.9c-6,2.7-9.2,5.4-14.6,10.6c0.9,3.2,2.1,6.3,3.6,9.2c0.9,1.7,1.9,3.4,3,5l0,0c0.2,0.4,0.5,0.8,0.7,1.1
				l0.3,0.4c0.2,0.2,0.3,0.5,0.5,0.7l0.3,0.4c0.2,0.2,0.3,0.4,0.4,0.6c0.1,0.2,0.2,0.3,0.3,0.4c0.1,0.2,0.3,0.4,0.4,0.6l0.4,0.4
				l0.4,0.6c0.1,0.1,0.3,0.3,0.4,0.4c0.1,0.1,0.3,0.4,0.4,0.5l0.4,0.4c0.2,0.2,0.3,0.3,0.5,0.5l0.4,0.4l0.4,0.4l0.5,0.5
				c0.1,0.2,0.3,0.3,0.4,0.4l0.4,0.4c8.7,7.2,12.9,10.1,20.8,14.5l0,0c9.4,4.5,19.3,7,28.5,7c0.7,0,1.4,0,2.1,0
				c12.9-0.5,22.8-5.8,28.1-14.9C129.6,99.8,129.2,88.5,123.2,77.1z"/>
			<path class="st0" d="M41.3,106.4c-2.5,0.5-5,0.7-7.5,0.7l0,0c-0.5,0-1,0-1.5,0c-7-0.3-12.1-2.6-14.5-6.6s-1.8-9.6,1.5-15.8
				c1.8-3.5,4.2-6.6,6.9-9.4l0,0l0.7-0.7c0.2-0.2,0.4-0.4,0.6-0.6c0.3-0.3,0.6-0.6,0.9-0.9c5.9-5.6,10-8.2,17.5-11.3
				c3.5-1.5,7.1-2.6,10.8-3.4l0,0c0.8-0.2,1.7-0.3,2.5-0.4c0.8-0.1,1.6-0.2,2.5-0.2c0.5,0,1,0,1.5,0c4.2,0,8.3,0.7,12.3,1.8
				c1,0.3,2,0.6,3.1,1c0.7-6.5,0-10.6-1.9-18c-3.2-0.8-6.4-1.3-9.7-1.4c-3.2-0.1-6.3,0-9.5,0.4l-0.7,0.1l-0.3,0
				c-0.4,0-0.7,0.1-1.1,0.2l0,0c-0.3,0.1-0.7,0.1-1,0.2L54,42.1l-0.7,0.1l-0.6,0.1l-0.4,0.1l-0.6,0.1l-0.4,0.1l-0.6,0.2l-0.4,0.1
				L49.7,43l-0.3,0.1l-0.8,0.2l-0.2,0.1l-0.8,0.2l-0.1,0l-0.2,0.1c-8.9,3.4-13.4,5.5-20,9.4C17.4,59.6,9.5,67.9,4.8,77
				c-6,11.4-6.4,22.7-1.2,31.7s15.2,14.3,28.1,14.9c0.7,0,1.4,0,2.1,0c7.7,0,16-1.7,24-5C52.5,115.4,48.2,112.2,41.3,106.4z"/>
		</g>
	</g>
</g>
</svg>
