<svg xmlns="http://www.w3.org/2000/svg" width="44.819" height="36" viewBox="0 0 44.819 36"><defs><style>.a{fill:none;stroke:#d7d7d9;stroke-linecap:round;stroke-linejoin:round;stroke-width:3px;}</style></defs><g transform="translate(-560.082 1510.5)"><path class="a" d="M31.32,30h0l-12-6L14.8,26.581V15.511c0-1.475-2.517-2.749-5.984-3.029V6l10.5-6,12,6,10.5-6V24l-10.5,6Z" transform="translate(561.582 -1509)"/><g transform="translate(-17.832 11.426)"><g transform="translate(579.414 -1508)"><path class="a" d="M4.5,7.5V21.9c0,1.708,3.29,3.086,7.4,3.086s7.4-1.378,7.4-3.086V7.5" transform="translate(-4.5 -4.414)"/><path class="a" d="M19.3,6.086c0,1.7-3.314,3.086-7.4,3.086S4.5,7.791,4.5,6.086,7.814,3,11.9,3s7.4,1.382,7.4,3.086Z" transform="translate(-4.5 -3)"/><path class="a" d="M19.3,18c0,1.708-3.29,3.086-7.4,3.086S4.5,19.708,4.5,18" transform="translate(-4.5 -10.113)"/><path class="a" d="M19.3,18c0,1.708-3.29,3.086-7.4,3.086S4.5,19.708,4.5,18" transform="translate(-4.5 -5.313)"/></g></g><path class="a" d="M12,3V27" transform="translate(568.902 -1512)"/><path class="a" d="M24,9V33" transform="translate(568.902 -1512)"/></g></svg>