<svg xmlns="http://www.w3.org/2000/svg" width="40.637" height="33" viewBox="0 0 40.637 33"><defs><style>.a{fill:none;stroke:#d7d7d9;stroke-linecap:round;stroke-linejoin:round;stroke-width:3px;}.b{fill:#d7d7d9;}</style></defs><g transform="translate(-564.863 1509.5)"><g transform="translate(577.914 -1511)"><path class="a" d="M4.5,7.5v21c0,2.49,4.8,4.5,10.793,4.5s10.793-2.01,10.793-4.5V7.5"/><path class="a" d="M26.086,7.5c0,2.485-4.832,4.5-10.793,4.5S4.5,9.985,4.5,7.5,9.332,3,15.293,3,26.086,5.015,26.086,7.5Z" transform="translate(0)"/><path class="a" d="M26.086,18c0,2.49-4.8,4.5-10.793,4.5S4.5,20.49,4.5,18" transform="translate(0 -3.5)"/><path class="a" d="M26.086,18c0,2.49-4.8,4.5-10.793,4.5S4.5,20.49,4.5,18" transform="translate(0 3.5)"/></g><path class="b" d="M13.094,0V5.238H5.429v5.238h7.665v5.238L20.95,7.778Z" transform="translate(559.434 -1499.259)"/></g></svg>