<svg xmlns="http://www.w3.org/2000/svg" viewBox="0 0 33.32 30.67"><defs><style>.cls-1{fill:#fff;}</style></defs><title>アセット 96</title><g id="レイヤー_2" data-name="レイヤー 2"><g id="レイヤー_1-2" data-name="レイヤー 1"><path class="cls-1" d="M33,6.24a1.23,1.23,0,0,0-1.28-.33L8.66,13.52a2.42,2.42,0,0,0-1.48,1.37L3.43,23.73,3.26,11.34,25.06,4,25,.72A.72.72,0,0,0,24.7.13.73.73,0,0,0,24,0L11.92,4.12A.72.72,0,0,1,11.17,4L8.87,1.67a.72.72,0,0,0-.75-.18L.5,4a.75.75,0,0,0-.5.71L.35,30a.74.74,0,0,0,1,.69l25.41-8.4a.73.73,0,0,0,.45-.41L33.23,7.55A1.22,1.22,0,0,0,33,6.24Z"/></g></g></svg>