<?xml version="1.0" encoding="utf-8"?>
<!-- Generator: Adobe Illustrator 26.0.0, SVG Export Plug-In . SVG Version: 6.00 Build 0)  -->
<svg version="1.1" id="レイヤー_1" xmlns="http://www.w3.org/2000/svg" xmlns:xlink="http://www.w3.org/1999/xlink" x="0px"
	 y="0px" viewBox="0 0 240.7 49.3" style="enable-background:new 0 0 240.7 49.3;" xml:space="preserve">
<style type="text/css">
	.st0{fill:#FFFFFF;}
</style>
<g id="レイヤー_2_00000072253118528531056680000013955480796576211876_">
	<g id="ICONS">
		<path class="st0" d="M83.9,19.6H72.7v25.7c0,0.8-0.6,1.2-1.4,1.2h-0.8c-0.8,0-1.4-0.4-1.4-1.2V19.6H57.6c-0.6,0.1-1.2-0.4-1.3-1
			c0-0.1,0-0.2,0-0.3v-0.7c-0.1-0.6,0.4-1.2,1.1-1.3c0.1,0,0.2,0,0.3,0h26.3c0.7-0.1,1.3,0.4,1.3,1c0,0.1,0,0.2,0,0.2v0.7
			c0,0.7-0.5,1.3-1.1,1.3C84,19.6,83.9,19.6,83.9,19.6z"/>
		<path class="st0" d="M92.1,32.8H78.9c-0.8,0-1.3-0.5-1.3-1.7s0.5-1.6,1.3-1.6h13.2c0.8,0,1.3,0.6,1.3,1.6
			C93.4,32.2,92.9,32.8,92.1,32.8z"/>
		<path class="st0" d="M122.8,46.5h-13.6c-7.5,0-11-3.3-11-10.4V17.6c0-0.8,0.5-1.2,1.3-1.2h0.9c0.8,0,1.4,0.4,1.4,1.2V36
			c0,5.3,2.3,7.2,7.4,7.2h13.7c0.6-0.1,1.2,0.3,1.3,1c0,0.1,0,0.2,0,0.3v0.7c0.1,0.7-0.4,1.2-1.1,1.3
			C123,46.5,122.9,46.5,122.8,46.5z"/>
		<path class="st0" d="M131.4,46.5h-0.9c-0.9,0-1.4-0.4-1.4-1.2V17.6c0-0.7,0.5-1.2,1.1-1.2c0.1,0,0.1,0,0.2,0h0.9
			c0.7-0.1,1.3,0.4,1.3,1.1c0,0.1,0,0.1,0,0.2v27.7C132.8,46,132.3,46.5,131.4,46.5z"/>
		<path class="st0" d="M161.2,46.5c-1.9,0.2-3.8-0.9-4.5-2.7l-11-22.1c-0.5-0.8-0.9-1.3-1.7-1.3s-1.3,0.4-1.3,1.6v23.3
			c0,0.8-0.5,1.2-1.4,1.2h-0.8c-0.8,0-1.4-0.4-1.4-1.2V20.9c0-3,1.7-4.4,4.3-4.4c2-0.1,3.9,1,4.8,2.9l11,22.3
			c0.3,0.5,0.8,0.9,1.4,0.9c0.9,0,1.5-0.3,1.5-1.6V17.6c0-0.8,0.5-1.2,1.3-1.2h0.8c0.8,0,1.4,0.4,1.4,1.2v24.7
			C165.6,45.2,163.8,46.5,161.2,46.5z"/>
		<path class="st0" d="M175.2,46.5h-0.9c-0.9,0-1.4-0.4-1.4-1.2V17.6c0-0.7,0.5-1.2,1.1-1.2c0.1,0,0.1,0,0.2,0h0.9
			c0.7-0.1,1.3,0.4,1.3,1c0,0.1,0,0.1,0,0.2v27.7C176.6,46,176.1,46.5,175.2,46.5z"/>
		<path class="st0" d="M209.2,19.6H198v25.7c0,0.8-0.6,1.2-1.4,1.2h-0.8c-0.8,0-1.4-0.4-1.4-1.2V19.6h-11.5c-0.6,0.1-1.2-0.4-1.3-1
			c0-0.1,0-0.2,0-0.3v-0.7c-0.1-0.6,0.4-1.2,1.1-1.3c0.1,0,0.2,0,0.3,0h26.3c0.7-0.1,1.3,0.4,1.3,1c0,0.1,0,0.2,0,0.2v0.7
			c0,0.7-0.5,1.3-1.1,1.3C209.3,19.6,209.3,19.6,209.2,19.6z"/>
		<path class="st0" d="M228.9,36.9v8.5c0,0.8-0.6,1.2-1.4,1.2h-0.8c-0.8,0-1.4-0.4-1.4-1.2v-8.5c-8.6-0.1-11.6-4.6-11.6-10.6v-8.7
			c0-0.8,0.5-1.2,1.4-1.2h0.8c0.8,0,1.4,0.4,1.4,1.2v8.7c0,4.8,2.6,7.4,8.5,7.4h2.9c6.2,0,8.6-2.7,8.6-7.4v-8.7
			c0-0.8,0.6-1.2,1.4-1.2h0.8c0.9,0,1.4,0.4,1.4,1.2v8.7C240.7,32.3,237.6,36.8,228.9,36.9z"/>
		<path class="st0" d="M21.1,10.6c1.4-2.2,3.1-3.5,4.8-3.8c0.2,0,0.4,0,0.5,0c0.3,0,0.6,0,0.9,0.1c1.6,0.3,3.1,1.6,4.5,3.7
			c0.8,1.4,1.5,2.8,1.9,4.4l0,0c1.1,3.4,1.3,7,0.6,10.5c0,0.3-0.1,0.7-0.2,1l0,0l0,0c-0.1,0.7-0.3,1.4-0.5,2.1l0,0
			c-0.3,0.9-0.6,1.8-1,2.6l0,0c-0.9,1.7-2,3.2-3.4,4.5l0,0c-0.4,0.3-0.7,0.7-1.1,1c2,1.5,4.3,2.5,6.8,3c1-1,1.8-2,2.5-3.2
			c0.5-0.7,0.9-1.5,1.2-2.3c0-0.1,0.1-0.2,0.1-0.3l0.1-0.2l0.2-0.3c0,0,0-0.1,0.1-0.2l0.2-0.5l0,0c0.1-0.2,0.1-0.3,0.2-0.4
			s0-0.1,0.1-0.2s0.1-0.2,0.1-0.3s0-0.1,0.1-0.2s0.1-0.2,0.1-0.3l0.1-0.2c0-0.1,0-0.2,0.1-0.3l0.1-0.2l0.1-0.2c0-0.1,0-0.2,0.1-0.3
			s0-0.2,0.1-0.2s0-0.2,0.1-0.3c0.7-3.4,1-6.9,0.9-10.4l0,0c-0.3-4.3-1.6-8.5-3.8-12.2c-2.8-4.5-6.8-7-11.1-7s-8.3,2.5-11.1,7
			c-1.9,3.1-3.2,6.6-3.6,10.3c2.5-1.3,5.1-2.5,7.8-3.4C19.9,12.7,20.4,11.6,21.1,10.6z"/>
		<path class="st0" d="M50.8,30.1L50.8,30.1c-1.8-3.3-4.2-6.1-7.2-8.4c-0.1,2.8-0.4,5.6-0.9,8.4c0.8,0.9,1.5,2,2.1,3.1
			c1.3,2.6,1.6,4.9,0.6,6.5c-0.8,1.4-2.5,2.4-4.9,2.7l-0.5,0c-0.2,0-0.4,0-0.5,0c-1.5,0.1-3.1-0.1-4.6-0.5l0,0
			c-3.4-0.7-6.5-2.2-9.1-4.4c-1-0.8-2-1.6-2.9-2.5l0,0c-0.7-0.7-1.3-1.4-1.9-2.2c-0.9-1.5-1.6-3.2-2-4.9l0,0
			c-0.1-0.5-0.3-1.1-0.4-1.6c-2.3,1-4.3,2.5-6,4.4c0.4,1.3,0.9,2.6,1.5,3.8c0.4,0.7,0.8,1.4,1.2,2l0,0l0.3,0.5l0.1,0.2l0.2,0.3
			l0.1,0.2c0.1,0.1,0.1,0.2,0.2,0.3l0.1,0.2c0.1,0.1,0.1,0.2,0.2,0.2l0.1,0.2l0.2,0.2l0.2,0.2c0.1,0.1,0.1,0.2,0.2,0.2l0.2,0.2
			l0.2,0.2l0.2,0.2c0.1,0.1,0.1,0.1,0.2,0.2l0.2,0.2l0.2,0.2l0.2,0.2c2.6,2.3,5.5,4.3,8.5,6l0,0c3.7,1.8,7.7,2.8,11.8,2.9h0.9
			c5.3-0.2,9.4-2.4,11.6-6.1S53.3,34.8,50.8,30.1z"/>
		<path class="st0" d="M17,42.1c-1,0.2-2.1,0.3-3.1,0.3h-0.6c-2.9-0.1-5-1.1-6-2.7s-0.7-4,0.6-6.5c0.8-1.4,1.7-2.7,2.8-3.9l0,0
			l0.3-0.3l0.2-0.2l0.4-0.4c2-2.1,4.5-3.7,7.3-4.7c1.4-0.6,2.9-1.1,4.5-1.4l0,0c0.3-0.1,0.7-0.1,1-0.2s0.7-0.1,1-0.1h0.6
			c1.7,0,3.4,0.3,5.1,0.8c0.4,0.1,0.9,0.3,1.3,0.4c0.2-2.5,0-5-0.8-7.4c-1.3-0.3-2.6-0.5-4-0.6c-1.3,0-2.6,0-3.9,0.2h-0.3h-0.1
			l-0.4,0.1l0,0l-0.4,0.1h-0.1L22,15.6h-0.2h-0.2l-0.2,0.1h-0.2l-0.3,0.1h-0.1L20.5,16h-0.1l-0.3,0.1H20l-0.4,0.1h-0.1h-0.1
			c-2.9,1-5.6,2.3-8.2,3.9C7.4,22.5,4.2,26,2,30c-2.5,4.7-2.7,9.3-0.5,13.1s6.3,5.9,11.6,6.1c0.3,0,0.6,0,0.9,0
			c3.4-0.1,6.8-0.7,9.9-2C21.5,45.7,19.2,44,17,42.1z"/>
	</g>
</g>
</svg>
