<svg xmlns="http://www.w3.org/2000/svg" width="29" height="33" viewBox="0 0 29 33"><defs><style>.a,.c{fill:none;stroke:#d7d7d9;stroke-linecap:round;stroke-linejoin:round;}.a{stroke-width:3px;}.b{fill:#d7d7d9;}.c{stroke-width:2px;}</style></defs><g transform="translate(-573.328 1442.5)"><g transform="translate(575 -1441)"><path class="a" d="M2,0H24a2,2,0,0,1,2,2V20A10,10,0,0,1,16,30H2a2,2,0,0,1-2-2V2A2,2,0,0,1,2,0Z" transform="translate(-0.172)"/></g><g transform="translate(592.656 -1419)"><path class="b" d="M1.4,0H7A0,0,0,0,1,7,0V1A7,7,0,0,1,0,8H0A0,0,0,0,1,0,8V1.4A1.4,1.4,0,0,1,1.4,0Z" transform="translate(0.172)"/></g><g transform="translate(577.902 -1437)"><path class="c" d="M580.092-1427.293l4.5-4.6,4.614,2.725,6.249-5.99" transform="translate(-577.448 1437)"/><circle class="b" cx="2" cy="2" r="2" transform="translate(15.656)"/><path class="b" d="M2,1A1,1,0,1,0,3,2,1,1,0,0,0,2,1M2,0A2,2,0,1,1,0,2,2,2,0,0,1,2,0Z" transform="translate(15.656)"/><circle class="b" cx="2" cy="2" r="2" transform="translate(10.064 6)"/><path class="b" d="M2,1A1,1,0,1,0,3,2,1,1,0,0,0,2,1M2,0A2,2,0,1,1,0,2,2,2,0,0,1,2,0Z" transform="translate(10.064 6)"/><circle class="b" cx="2" cy="2" r="2" transform="translate(5.591 3)"/><path class="b" d="M2,1A1,1,0,1,0,3,2,1,1,0,0,0,2,1M2,0A2,2,0,1,1,0,2,2,2,0,0,1,2,0Z" transform="translate(5.591 3)"/><circle class="b" cx="2" cy="2" r="2" transform="translate(0 8)"/><path class="b" d="M2,1A1,1,0,1,0,3,2,1,1,0,0,0,2,1M2,0A2,2,0,1,1,0,2,2,2,0,0,1,2,0Z" transform="translate(0 8)"/><path class="b" d="M-560.312,1446.139h-5.25v-4.225l5.25-4.913v9.138Zm-6.75,0h-2.867v-6.164l2.867,2.085v4.078Zm-4.368,0h-4.145v-1.394l4.145-4.6v6Z" transform="translate(578.324 -1430.155)"/></g></g></svg>