<?xml version="1.0" encoding="UTF-8"?><svg id="uuid-e5055599-be7a-408f-b126-ce934386f2d5" xmlns="http://www.w3.org/2000/svg" xmlns:xlink="http://www.w3.org/1999/xlink" viewBox="0 0 98.40000153 80"><defs><clipPath id="uuid-6ef9ea54-3c67-42b1-bf8a-d15d367ce372"><rect width="98.40000153" height="80" style="fill:none;"/></clipPath></defs><g id="uuid-9f2aea4e-b892-43c7-a06f-1f3142818244"><g><g style="clip-path:url(#uuid-6ef9ea54-3c67-42b1-bf8a-d15d367ce372);"><g><g><rect x="-1.39999998" width="49.89999998" height="80" style="fill:#707070;"/><rect x="-1.39999998" width="49.89999998" height="80" style="fill:#5cffff;"/></g><g><rect x="-1.39999998" width="49.89999998" height="80" style="fill:#707070;"/><g><g style="opacity:.30000001;"><rect width="49.20000076" height="80" style="fill:#00cdd4;"/></g><g style="opacity:.30000001;"><rect x="49.20000076" width="49.20000076" height="80" style="fill:#00cdd4;"/></g></g></g><g style="opacity:.23;"><g style="opacity:.13;"><path d="M51,87.30000305h-2.09999847c-25.39999962,0-46-20.59999847-46-46v-2.30000305C2.90000153,13.60000038,23.50000191-7,48.90000153-7h2.09999847c25.40000153,0,46,20.60000038,46,46v2.29999924c0,25.39999771-20.59999847,46.00000381-46,46.00000381Z" style="fill:#5ff5b5;"/><path d="M51,87.30000305h-2.09999847c-25.39999962,0-46-20.59999847-46-46v-2.30000305C2.90000153,13.60000038,23.50000191-7,48.90000153-7h2.09999847c25.40000153,0,46,20.60000038,46,46v2.29999924c0,25.39999771-20.59999847,46.00000381-46,46.00000381Z" style="fill:#5ff5b5;"/></g><path d="M51,87.30000305h-2.09999847c-25.39999962,0-46-20.59999847-46-46v-2.30000305C2.90000153,13.60000038,23.50000191-7,48.90000153-7h2.09999847c25.40000153,0,46,20.60000038,46,46v2.29999924c0,25.39999771-20.59999847,46.00000381-46,46.00000381Z" style="fill:#f6ffff;"/></g><g><g><path d="M50.79999924,77.80000305h-1.70000076c-20.29999924,0-36.70000076-16.40000153-36.70000076-36.70000076v-1.79999924c.00000191-20.30000305,16.40000153-36.70000315,36.70000076-36.70000315h1.70000076c20.29999924,0,36.70000076,16.4000001,36.70000076,36.69999933v1.79999924c0,20.30000305-16.40000153,36.70000458-36.70000076,36.70000458Z" style="fill:#f6ffff;"/><path d="M50.79999924,77.80000305h-1.70000076c-20.29999924,0-36.70000076-16.40000153-36.70000076-36.70000076v-1.79999924c.00000191-20.30000305,16.40000153-36.70000315,36.70000076-36.70000315h1.70000076c20.29999924,0,36.70000076,16.4000001,36.70000076,36.69999933v1.79999924c0,20.30000305-16.40000153,36.70000458-36.70000076,36.70000458Z" style="fill:#f6ffff;"/></g><path d="M50.79999924,80.30000305h-1.79999924c-21.60000038,0-39.20000076-17.5-39.20000076-39.20000076v-2c.00000095-21.60000229,17.60000038-39.10000229,39.20000076-39.10000229h1.79999924c21.70000076,0,39.20000076,17.5,39.20000076,39.20000076v2c0,21.59999847-17.5,39.10000229-39.20000076,39.10000229Z" style="fill:#f6ffff;"/><path d="M50.79999924,77.80000305h-1.70000076c-20.29999924,0-36.70000076-16.40000153-36.70000076-36.70000076v-1.79999924c.00000191-20.30000305,16.40000153-36.70000315,36.70000076-36.70000315h1.70000076c20.29999924,0,36.70000076,16.4000001,36.70000076,36.69999933v1.79999924c0,20.30000305-16.40000153,36.70000458-36.70000076,36.70000458Z" style="fill:#f6ffff;"/></g><path d="M50.59999847,71.59999847h-1.40000153c-17,0-30.70000076-13.79999924-30.70000076-30.70000076v-1.5c0-17,13.79999924-30.70000076,30.70000076-30.70000076h1.40000153c17,0,30.70000458,13.79999924,30.70000458,30.70000076v1.5c0,17.00000381-13.70000458,30.70000076-30.70000458,30.70000076Z" style="fill:#f6ffff;"/><g><path d="M50.59999847,69.19999695h-1.29999924c-15.70000076,0-28.29999924-12.69999695-28.29999924-28.29999542v-1.40000153c0-15.60000038,12.70000076-28.29999924,28.29999924-28.29999924h1.29999924c15.59999847,0,28.29999542,12.70000076,28.29999542,28.29999924v1.40000153c.00000763,15.59999847-12.69999695,28.29999542-28.29999542,28.29999542Z" style="fill:#5ff5b5;"/><path d="M50.59999847,69.19999695h-1.29999924c-15.70000076,0-28.29999924-12.69999695-28.29999924-28.29999542v-1.40000153c0-15.60000038,12.70000076-28.29999924,28.29999924-28.29999924h1.29999924c15.59999847,0,28.29999542,12.70000076,28.29999542,28.29999924v1.40000153c.00000763,15.59999847-12.69999695,28.29999542-28.29999542,28.29999542Z" style="fill:none; stroke:#5ff5b5; stroke-linecap:round; stroke-linejoin:round;"/></g><path d="M38.20000076,18.20000076c3.5-1.89999962,7.5-2.89999962,11.70000076-2.89999962h0c4.90000153,0,9.5,1.39999962,13.29999924,3.89999962" style="fill:none; stroke:#fff; stroke-miterlimit:10; stroke-width:.72439998px;"/><path d="M27.39999962,50.70000076c-1.5-3.20000076-2.29999924-6.79999924-2.29999924-10.5h0c0-4.59999847,1.20000076-8.79999924,3.39999962-12.5" style="fill:none; stroke:#5cffff; stroke-miterlimit:10; stroke-width:.72439998px;"/><path d="M61.29999924,62.29999924c-3.40000153,1.79999924-7.29999924,2.79999924-11.39999771,2.79999924h0c-3.70000076,0-7.29999924-.80000305-10.40000153-2.29999924" style="fill:none; stroke:#fff; stroke-miterlimit:10; stroke-width:.72439998px;"/><path d="M50.5,66.69999695h-1.20000076c-14.29999924,0-25.89999962-11.59999847-25.89999962-25.90000153v-1.29999924c0-14.29999924,11.60000038-25.89999962,25.89999962-25.89999962h1.20000076c14.30000305,0,25.90000153,11.60000038,25.90000153,25.89999962v1.29999924c0,14.30000305-11.59999847,25.90000153-25.90000153,25.90000153Z" style="fill:#5ff5b5; stroke:#5cffff; stroke-width:3px;"/><path d="M73.90000153,33.79999924c.5,2,.80000305,4.20000076,.80000305,6.40000153h0c0,4.79999924-1.40000153,9.29999924-3.69999695,13.10000229" style="fill:none; stroke:#5cffff; stroke-miterlimit:10; stroke-width:.72439998px;"/><path d="M33.70000076,16.10000038c4.59999847-3.10000038,10.20000076-5,16.20000076-5h0c5.70000076,0,11,1.60000038,15.5,4.5" style="fill:none; stroke:#5ff5b5; stroke-miterlimit:10; stroke-width:3px;"/><path d="M73.19999695,22.89999962c3.59999847,4.80000114,5.69999695,10.80000114,5.69999695,17.29999733h0c0,3.70000076-.69999695,7.29999924-2,10.59999847" style="fill:none; stroke:#5ff5b5; stroke-miterlimit:10; stroke-width:3px;"/><path d="M49.90000153,69.19999695c-16,0-28.89999962-13-28.89999962-29" style="fill:none; stroke:#5ff5b5; stroke-miterlimit:10; stroke-width:3px;"/><path d="M50.5,65.09999847h-1.09999847c-13.40000153,0-24.29999924-10.90000153-24.29999924-24.29999924v-1.20000076c0-13.39999962,10.89999771-24.29999924,24.29999924-24.29999924h1.09999847c13.40000153,0,24.30000305,10.89999962,24.30000305,24.29999924v1.20000076c0,13.40000153-10.90000153,24.29999924-24.30000305,24.29999924Z" style="fill:#707070;"/><path d="M50.40000153,61.20000076h-.90000153c-11.29999924,0-20.5-9.20000076-20.5-20.5v-1c0-11.29999924,9.20000076-20.5,20.5-20.5h.90000153c11.29999924,0,20.5,9.20000076,20.5,20.5v1c0,11.29999924-9.20000076,20.5-20.5,20.5Z" style="fill:#031119;"/></g></g><path d="M56.86139726,33.22606277h-13.64672852l4.33178711-2.80078125c.69580078-.44970703,.89501953-1.37841797,.4453125-2.07421875-.44970703-.6953125-1.37744141-.89599609-2.07421875-.4453125l-8.60009766,5.56054688c-.00390625,.00250244-.00683594,.00585938-.01049805,.00836182-.00463867,.00317383-.01025391,.00524902-.01489258,.00842285-.03955078,.02679443-.07446289,.06134033-.11157227,.09210205-.00805664,.00653076-.01611328,.01287842-.02392578,.01965332-.02685547,.02301025-.05688477,.04296875-.08178711,.06756592-.00219727,.00219727-.00439453,.00445557-.00683594,.00671387-.02416992,.02441406-.04370117,.05432129-.06640625,.08068848-.00732422,.00860596-.0144043,.01745605-.02172852,.02618408-.03027344,.03674316-.06445312,.07098389-.09082031,.11010742-.00317383,.00476074-.00512695,.01025391-.00854492,.01501465-.00244141,.00378418-.00585938,.00665283-.00830078,.01049805-.01831055,.02819824-.02880859,.05877686-.04492188,.08770752-.02587891,.04638672-.05517578,.09094238-.07568359,.13952637-.00341797,.00793457-.00512695,.01672363-.00830078,.02478027-.01757812,.04315186-.02783203,.08746338-.04125977,.13146973-.01220703,.04058838-.02856445,.07983398-.03735352,.12133789-.00195312,.00909424-.00268555,.01855469-.00439453,.02770996-.00878906,.04650879-.01074219,.09307861-.01513672,.13989258-.00415039,.04315186-.01147461,.08563232-.01196289,.12908936,0,.00439453-.0012207,.00854492-.0012207,.01293945s.0012207,.00854492,.0012207,.01293945c.00048828,.04345703,.0078125,.0859375,.01196289,.12908936,.00439453,.04681396,.00634766,.09338379,.01513672,.13989258,.00170898,.00915527,.00244141,.01861572,.00439453,.02770996,.00878906,.04150391,.02514648,.08074951,.03735352,.12133789,.01342773,.04400635,.02368164,.08831787,.04125977,.13146973,.00317383,.00805664,.00488281,.0168457,.00830078,.02478027,.02050781,.04858398,.04980469,.09313965,.07568359,.13952637,.01611328,.02893066,.02661133,.05950928,.04492188,.08770752,.00219727,.00335693,.00537109,.0055542,.00756836,.0088501,.00341797,.00531006,.00585938,.01141357,.00927734,.0166626,.02636719,.03912354,.06054688,.07336426,.09082031,.11010742,.03149414,.03808594,.05981445,.07879639,.0949707,.11358643,.00952148,.00952148,.02075195,.01745605,.03076172,.0267334,.02294922,.02178955,.04882812,.03881836,.07299805,.05889893,.04223633,.03497314,.08251953,.07177734,.12841797,.10211182,.00366211,.00250244,.0065918,.00585938,.01049805,.00836182l8.60009766,5.56054688c.25195312,.16259766,.53417969,.24023438,.81298828,.24023438,.4921875,0,.97412109-.24169922,1.26123047-.68554688,.44970703-.69580078,.25048828-1.62451172-.4453125-2.07421875l-4.33178711-2.80078125h13.64672852c1.05126953,0,1.90673828,.85546875,1.90673828,1.90722656v7.58691406c0,1.05126953-.85546875,1.90673828-1.90673828,1.90673828h-9.94140625c-.82861328,0-1.5,.67138672-1.5,1.5s.67138672,1.5,1.5,1.5h9.94140625c2.70556641,0,4.90673828-2.20117188,4.90673828-4.90673828v-7.58691406c0-2.70605469-2.20117188-4.90722656-4.90673828-4.90722656Z" style="fill:#f6ffff;"/><rect width="98.40000153" height="80" style="fill:none;"/></g></g></svg>