<?xml version="1.0" encoding="utf-8"?>
<!-- Generator: Adobe Illustrator 25.4.1, SVG Export Plug-In . SVG Version: 6.00 Build 0)  -->
<svg version="1.1" id="レイヤー_1" xmlns="http://www.w3.org/2000/svg" xmlns:xlink="http://www.w3.org/1999/xlink" x="0px"
	 y="0px" viewBox="0 0 62.7 50.1" style="enable-background:new 0 0 62.7 50.1;" xml:space="preserve">
<style type="text/css">
	.st0{fill:none;stroke:#262626;stroke-width:4;stroke-linecap:round;stroke-linejoin:round;}
	.st1{fill:none;stroke:#D7D7D9;stroke-width:4;stroke-linecap:round;stroke-linejoin:round;}
</style>
<g id="レイヤー_2_00000110452385266581610910000008527999694572445867_">
	<g id="ICONS">
		<g id="data_map-2">
			<g id="グループ_703">
				<path id="前面オブジェクトで型抜き_1" class="st0" d="M46.2,44.3L46.2,44.3l-17.1-8.6l-6.5,3.7V23.6
					c0-2.1-3.6-3.9-8.6-4.3v-9.2l15-8.6l17.1,8.6l15-8.6v34.3L46.2,44.3z"/>
			</g>
			<g id="グループ_705">
				<g id="Icon_feather-database-2">
					<path id="パス_658-2" class="st0" d="M1.5,23.6v20.6c0,2.4,4.7,4.4,10.6,4.4s10.6-2,10.6-4.4V23.6"/>
					<path id="パス_656-2" class="st0" d="M22.6,23.6c0,2.4-4.7,4.4-10.6,4.4s-10.6-2-10.6-4.4s4.7-4.4,10.6-4.4
						S22.6,21.2,22.6,23.6z"/>
					<path id="パス_657-2" class="st0" d="M22.6,30.5c0,2.4-4.7,4.4-10.6,4.4S1.5,33,1.5,30.5"/>
					<path id="パス_659-2" class="st0" d="M22.6,37.4c0,2.4-4.7,4.4-10.6,4.4s-10.6-2-10.6-4.4"/>
				</g>
			</g>
			<path id="パス_665" class="st0" d="M29.1,1.5v34.3"/>
			<path id="パス_666" class="st0" d="M46.2,10.1v34.3"/>
			<g id="グループ_703-2">
				<path id="前面オブジェクトで型抜き_1-2" class="st1" d="M46.2,44.3L46.2,44.3l-17.1-8.6l-6.5,3.7V23.6
					c0-2.1-3.6-3.9-8.6-4.3v-9.2l15-8.6l17.1,8.6l15-8.6v34.3L46.2,44.3z"/>
			</g>
			<g id="グループ_705-2">
				<g id="Icon_feather-database-2-2">
					<path id="パス_658-2-2" class="st1" d="M1.5,23.6v20.6c0,2.4,4.7,4.4,10.6,4.4s10.6-2,10.6-4.4V23.6"/>
					<path id="パス_656-2-2" class="st1" d="M22.6,23.6c0,2.4-4.7,4.4-10.6,4.4s-10.6-2-10.6-4.4s4.7-4.4,10.6-4.4
						S22.6,21.2,22.6,23.6z"/>
					<path id="パス_657-2-2" class="st1" d="M22.6,30.5c0,2.4-4.7,4.4-10.6,4.4S1.5,33,1.5,30.5"/>
					<path id="パス_659-2-2" class="st1" d="M22.6,37.4c0,2.4-4.7,4.4-10.6,4.4s-10.6-2-10.6-4.4"/>
				</g>
			</g>
			<path id="パス_665-2" class="st1" d="M29.1,1.5v34.3"/>
			<path id="パス_666-2" class="st1" d="M46.2,10.1v34.3"/>
		</g>
	</g>
</g>
</svg>
