<svg xmlns="http://www.w3.org/2000/svg" viewBox="0 0 41.99 30.06"><defs><style>.cls-1{fill:#d7d7d9;}.cls-2,.cls-3{fill:none;stroke:#d7d7d9;stroke-linecap:round;stroke-linejoin:round;stroke-width:3px;}.cls-3{stroke-dasharray:0 3.86;}</style></defs><g id="レイヤー_2" data-name="レイヤー 2"><g id="ICONS"><circle class="cls-1" cx="6.28" cy="23.77" r="6.28"/><line class="cls-2" x1="11.85" y1="24.19" x2="11.85" y2="24.19"/><path class="cls-3" d="M15.28,22.54c3.57-3.4,1-10.31,5.82-11.43"/><line class="cls-2" x1="23.02" y1="10.96" x2="23.02" y2="10.96"/><path class="cls-1" d="M40.58,5.18A10.59,10.59,0,0,0,36.8,1.41a10.33,10.33,0,0,0-10.42,0,10.8,10.8,0,0,0-3.77,3.77,10,10,0,0,0-1.41,5.21,10.1,10.1,0,0,0,.81,4,10.87,10.87,0,0,0,2.25,3.33A10.19,10.19,0,0,0,27.58,20a10,10,0,0,0,4,.81,9.83,9.83,0,0,0,4-.82,10.44,10.44,0,0,0,3.31-2.25,10.83,10.83,0,0,0,2.27-3.32,9.86,9.86,0,0,0,.83-4A10,10,0,0,0,40.58,5.18ZM37.8,11.35a1.29,1.29,0,0,1-.95.36H26.37a1.28,1.28,0,0,1-.94-.36,1.25,1.25,0,0,1-.37-1,1.24,1.24,0,0,1,.37-1,1.28,1.28,0,0,1,.94-.36H36.85a1.29,1.29,0,0,1,.95.36,1.27,1.27,0,0,1,.36,1A1.28,1.28,0,0,1,37.8,11.35Z"/></g></g></svg>