<svg xmlns="http://www.w3.org/2000/svg" viewBox="0 0 55.04 52.95"><defs><style>.cls-1{fill:#5cffff;}</style></defs><g id="レイヤー_2" data-name="レイヤー 2"><g id="ICONS"><g id="Chat"><g id="ic_setting" data-name="ic setting"><path class="cls-1" d="M17.87,53a4.61,4.61,0,0,1-4.5-3.54,1.65,1.65,0,0,0-2-1.21,1.75,1.75,0,0,0-.47.2A4.64,4.64,0,0,1,4.55,42,1.63,1.63,0,0,0,4,39.78a1.75,1.75,0,0,0-.47-.2,4.63,4.63,0,0,1,0-9,1.65,1.65,0,0,0,1.21-2,1.75,1.75,0,0,0-.2-.47A4.64,4.64,0,0,1,6.1,21.76a4.6,4.6,0,0,1,4.82,0,1.6,1.6,0,0,0,1.24.19,1.63,1.63,0,0,0,1-.73,1.6,1.6,0,0,0,.19-.47h0a4.64,4.64,0,0,1,9,0,1.65,1.65,0,0,0,2,1.21,1.57,1.57,0,0,0,.46-.2,4.64,4.64,0,0,1,6.38,6.37,1.64,1.64,0,0,0,.54,2.25,2,2,0,0,0,.47.2,4.63,4.63,0,0,1,0,9,1.65,1.65,0,0,0-1.21,2,1.57,1.57,0,0,0,.2.46,4.64,4.64,0,0,1-6.38,6.38,1.64,1.64,0,0,0-2.44,1A4.64,4.64,0,0,1,17.87,53Zm-6.09-7.8a4.64,4.64,0,0,1,4.5,3.55,1.64,1.64,0,0,0,3.18,0A4.77,4.77,0,0,1,20,47.38a4.65,4.65,0,0,1,6.37-1.55,1.64,1.64,0,0,0,1.71,0,1.63,1.63,0,0,0,.54-2.24,4.54,4.54,0,0,1-.54-1.33,4.63,4.63,0,0,1,3.41-5.59,1.64,1.64,0,0,0,0-3.18,4.5,4.5,0,0,1-1.32-.55,4.63,4.63,0,0,1-1.54-6.37,1.67,1.67,0,0,0,0-1.7,1.64,1.64,0,0,0-2.25-.55,4.64,4.64,0,0,1-6.92-2.86,1.64,1.64,0,0,0-3.18,0,4.62,4.62,0,0,1-.55,1.32,4.63,4.63,0,0,1-6.37,1.54,1.63,1.63,0,0,0-1.7,0,1.65,1.65,0,0,0-.55,2.25,4.3,4.3,0,0,1,.55,1.33,4.64,4.64,0,0,1-3.41,5.59,1.64,1.64,0,0,0,0,3.18,4.7,4.7,0,0,1,1.31.54,4.65,4.65,0,0,1,1.56,6.37,1.62,1.62,0,0,0,0,1.71,1.64,1.64,0,0,0,2.25.54,4.93,4.93,0,0,1,2.42-.68Z"/><path class="cls-1" d="M17.87,41.85a6.77,6.77,0,1,1,6.77-6.77A6.78,6.78,0,0,1,17.87,41.85Zm0-10.54a3.77,3.77,0,1,0,3.77,3.77A3.77,3.77,0,0,0,17.87,31.31Z"/></g></g><g id="report-2"><g id="グループ_700" data-name="グループ 700"><path id="長方形_707-2" data-name="長方形 707-2" class="cls-1" d="M46.63,28.54h5.86v1.05a7.33,7.33,0,0,1-7.33,7.33h0V30a1.47,1.47,0,0,1,1.47-1.47Z"/></g><path class="cls-1" d="M43.07,38.42H33.72a1.5,1.5,0,0,1,0-3h9.35a9,9,0,0,0,9-9V3.59A.6.6,0,0,0,51.45,3h-23a.6.6,0,0,0-.6.59V21.76a1.5,1.5,0,0,1-3,0V3.59A3.6,3.6,0,0,1,28.41,0h23A3.59,3.59,0,0,1,55,3.59V26.45A12,12,0,0,1,43.07,38.42Z"/><g id="グループ_701" data-name="グループ 701"><path class="cls-1" d="M35.28,23.19a1.11,1.11,0,0,1-1.36-1.54l3.26-6.77a1.11,1.11,0,0,1,1.23-.61l5.3,1.11L48,7.17a1.12,1.12,0,1,1,2,1l-4.67,9a1.11,1.11,0,0,1-1.22.58l-5.27-1.11-2.88,6A1.08,1.08,0,0,1,35.28,23.19Z"/><circle id="楕円形_17" data-name="楕円形 17" class="cls-1" cx="48.65" cy="7.99" r="2.34"/><path id="楕円形_17_-_アウトライン" data-name="楕円形 17 - アウトライン" class="cls-1" d="M48.28,6.88a1.17,1.17,0,1,0,1.48.73,1.17,1.17,0,0,0-1.48-.73M47.9,5.77a2.34,2.34,0,1,1-1.46,3A2.35,2.35,0,0,1,47.9,5.77Z"/><circle id="楕円形_18" data-name="楕円形 18" class="cls-1" cx="44.71" cy="16.72" r="2.34"/><path id="楕円形_18_-_アウトライン" data-name="楕円形 18 - アウトライン" class="cls-1" d="M44.34,15.61a1.17,1.17,0,1,0,1.48.74,1.18,1.18,0,0,0-1.48-.74M44,14.51a2.33,2.33,0,1,1-1.46,3A2.33,2.33,0,0,1,44,14.51Z"/><circle id="楕円形_19" data-name="楕円形 19" class="cls-1" cx="38.64" cy="15.07" r="2.34"/><path id="楕円形_19_-_アウトライン" data-name="楕円形 19 - アウトライン" class="cls-1" d="M38.26,14a1.17,1.17,0,1,0,1.49.73A1.17,1.17,0,0,0,38.26,14m-.37-1.11a2.34,2.34,0,1,1-1.46,3A2.33,2.33,0,0,1,37.89,12.86Z"/><circle id="楕円形_20" data-name="楕円形 20" class="cls-1" cx="34.32" cy="22.7" r="2.34"/><path id="楕円形_20_-_アウトライン" data-name="楕円形 20 - アウトライン" class="cls-1" d="M34,21.59a1.17,1.17,0,1,0,1.48.74A1.18,1.18,0,0,0,34,21.59m-.38-1.1a2.33,2.33,0,1,1-1.46,3A2.34,2.34,0,0,1,33.57,20.49Z"/></g></g></g></g></svg>