<?xml version="1.0" encoding="utf-8"?>
<!-- Generator: Adobe Illustrator 26.0.1, SVG Export Plug-In . SVG Version: 6.00 Build 0)  -->
<svg version="1.1" id="レイヤー_1" xmlns="http://www.w3.org/2000/svg" xmlns:xlink="http://www.w3.org/1999/xlink" x="0px"
	 y="0px" viewBox="0 0 31 39.4" style="enable-background:new 0 0 31 39.4;" xml:space="preserve">
<style type="text/css">
	.st0{fill:#D7D7D9;}
</style>
<g id="レイヤー_2_00000075855447552721394130000014454151564390358912_">
	<g id="ICONS">
		<g>
			<g>
				<path class="st0" d="M1.5,37.9c-1.1-1.2-1.6-2.8-1.5-4.4V5.9c-0.1-1.6,0.4-3.2,1.5-4.4C2.7,0.4,4.2-0.1,5.8,0H17
					c0.9,0,1.8,0.1,2.7,0.4c0.8,0.3,1.6,0.8,2.2,1.5l7.4,6.4c0.4,0.4,0.8,0.9,1.2,1.5c0.3,0.5,0.4,1,0.5,1.6
					c0.1,0.7,0.1,1.4,0.1,2.1v20.2c0.1,1.6-0.4,3.2-1.5,4.4c-1.2,1.1-2.8,1.6-4.4,1.5H5.8C4.2,39.5,2.7,38.9,1.5,37.9z M25,36.1
					c1.3,0.2,2.6-0.8,2.8-2.1c0-0.2,0-0.4,0-0.6V13.6h-7.7c-1,0.1-2-0.2-2.8-0.9c-0.6-0.8-1-1.7-0.9-2.7V3.3H6C5.3,3.3,4.5,3.5,4,4
					C3.5,4.5,3.3,5.3,3.3,6v27.3c0,0.7,0.2,1.4,0.7,2c0.5,0.5,1.3,0.8,2,0.8H25z M27.2,10.6l-7.9-6.8v5.8c0,0.3,0.1,0.6,0.2,0.8
					c0.2,0.2,0.5,0.3,0.8,0.2L27.2,10.6z"/>
				<path class="st0" d="M6.1,21.4c0,0.2,0,0.3,0.1,0.5c0.1,0.1,0.2,0.2,0.3,0.3c0.1,0.1,0.3,0.1,0.4,0.1c0.2,0,0.5-0.1,0.6-0.3
					c0.1-0.3,0.2-0.5,0.2-0.8v-4.9h1.2v4.8c0,0.6-0.1,1.3-0.5,1.8c-0.4,0.4-0.9,0.6-1.4,0.6c-0.3,0-0.6-0.1-0.9-0.2
					c-0.2-0.1-0.4-0.3-0.6-0.5c-0.2-0.2-0.3-0.4-0.4-0.7C5,21.9,5,21.7,5,21.4H6.1z"/>
				<path class="st0" d="M10.7,21.5c0,0.1,0.1,0.3,0.1,0.4c0.1,0.1,0.1,0.2,0.2,0.3c0.1,0.1,0.2,0.2,0.4,0.2c0.1,0,0.3,0.1,0.5,0.1
					c0.2,0,0.4,0,0.6-0.1c0.2-0.1,0.3-0.2,0.4-0.4c0.1-0.2,0.1-0.3,0.1-0.5c0-0.2-0.1-0.4-0.2-0.6c-0.2-0.2-0.4-0.3-0.7-0.3
					l-0.9-0.3c-0.3-0.1-0.5-0.2-0.8-0.4c-0.2-0.2-0.4-0.4-0.5-0.6c-0.1-0.3-0.2-0.6-0.2-0.9c0-0.4,0.1-0.8,0.3-1.1
					c0.2-0.3,0.4-0.6,0.8-0.8c0.3-0.2,0.7-0.3,1.1-0.3c0.4,0,0.8,0.1,1.1,0.3c0.3,0.2,0.6,0.4,0.7,0.7c0.2,0.3,0.3,0.6,0.3,1H13
					c0-0.2-0.1-0.3-0.2-0.5c-0.1-0.1-0.2-0.2-0.4-0.3c-0.2-0.1-0.4-0.1-0.5-0.1c-0.3,0-0.5,0.1-0.7,0.3c-0.2,0.2-0.3,0.4-0.3,0.7
					c0,0.2,0.1,0.4,0.2,0.5c0.2,0.2,0.4,0.3,0.6,0.3l0.9,0.3c0.3,0.1,0.6,0.2,0.8,0.4c0.2,0.2,0.4,0.4,0.5,0.6
					c0.1,0.3,0.2,0.7,0.2,1c0,0.4-0.1,0.8-0.3,1.2c-0.2,0.3-0.5,0.6-0.8,0.8c-0.4,0.2-0.8,0.3-1.2,0.3c-0.3,0-0.7,0-1-0.2
					c-0.3-0.1-0.5-0.3-0.7-0.5c-0.2-0.2-0.3-0.4-0.4-0.7c-0.1-0.3-0.2-0.5-0.2-0.8L10.7,21.5z"/>
				<path class="st0" d="M19.5,22c-0.2,0.4-0.5,0.8-0.9,1.1c-0.8,0.5-1.9,0.5-2.7,0c-0.4-0.3-0.7-0.7-0.9-1.1
					c-0.2-0.6-0.3-1.1-0.3-1.7v-0.9c0-0.6,0.1-1.2,0.3-1.7c0.2-0.4,0.5-0.8,0.9-1.1c0.8-0.5,1.9-0.5,2.7,0c0.4,0.3,0.7,0.7,0.9,1.1
					c0.2,0.6,0.3,1.1,0.3,1.7v0.9C19.8,20.9,19.7,21.5,19.5,22z M18.5,18.2c-0.1-0.3-0.3-0.5-0.5-0.7c-0.4-0.3-1-0.3-1.4,0
					c-0.2,0.2-0.4,0.4-0.5,0.7C16,18.6,16,19,16,19.4v0.9c0,0.4,0,0.8,0.2,1.1c0.1,0.3,0.3,0.5,0.5,0.7c0.4,0.3,1,0.3,1.4,0
					c0.2-0.2,0.4-0.4,0.5-0.7c0.1-0.4,0.2-0.8,0.2-1.1v-0.9C18.7,19,18.6,18.6,18.5,18.2L18.5,18.2z"/>
				<path class="st0" d="M20.8,23.4v-7.1h1l2.5,4.7l0,0v-4.7h1.1v7.1h-1l-2.5-4.8l0,0v4.8H20.8z"/>
				<path class="st0" d="M9.6,29.6c0.3,0,0.5,0.1,0.7,0.3c0.2,0.2,0.2,0.5,0.2,0.7v1.1c0,0.2,0,0.3,0.1,0.5c0.1,0.1,0.2,0.2,0.3,0.3
					c0.2,0.1,0.4,0.1,0.6,0.1h0.2v0.8h-0.4c-0.3,0-0.7,0-1-0.2c-0.3-0.1-0.5-0.3-0.6-0.5c-0.2-0.3-0.2-0.6-0.2-0.9v-0.9
					c0-0.2,0-0.5-0.1-0.7C9,30.1,8.8,30,8.6,30.1V29c0.2,0,0.4,0,0.6-0.2c0.1-0.2,0.2-0.4,0.1-0.7v-0.8c0-0.3,0.1-0.6,0.2-0.9
					c0.1-0.2,0.4-0.4,0.6-0.5c0.3-0.1,0.7-0.2,1-0.1h0.4v0.9h-0.2c-0.2,0-0.4,0-0.6,0.1c-0.1,0.1-0.2,0.2-0.3,0.3
					c-0.1,0.2-0.1,0.3-0.1,0.5v1c0,0.3-0.1,0.5-0.2,0.7c-0.2,0.2-0.4,0.3-0.7,0.3L9.6,29.6z"/>
				<path class="st0" d="M14.5,33.7l0.4-2.7h1.3l-0.6,2.7L14.5,33.7z M15,28c0.3-0.3,0.8-0.3,1.1,0c0.3,0.3,0.3,0.7,0,1c0,0,0,0,0,0
					c-0.3,0.3-0.8,0.3-1.1,0C14.7,28.8,14.7,28.3,15,28C15,28,15,28,15,28z"/>
				<path class="st0" d="M21.5,29.5c-0.2,0-0.5-0.1-0.7-0.3c-0.2-0.2-0.2-0.4-0.2-0.7v-1c0-0.2,0-0.3-0.1-0.5
					c-0.1-0.1-0.2-0.2-0.3-0.3c-0.2-0.1-0.4-0.1-0.6-0.1h-0.2v-0.9h0.4c0.3,0,0.7,0,1,0.1c0.3,0.1,0.5,0.3,0.6,0.5
					c0.2,0.3,0.2,0.6,0.2,0.9v0.8c0,0.2,0,0.5,0.1,0.7c0.2,0.2,0.4,0.2,0.6,0.2v1.1c-0.2,0-0.4,0-0.6,0.2c-0.1,0.2-0.2,0.4-0.1,0.7
					v0.9c0,0.3-0.1,0.6-0.2,0.9c-0.1,0.2-0.4,0.4-0.6,0.5c-0.3,0.1-0.7,0.2-1,0.2h-0.4v-0.9h0.2c0.2,0,0.4,0,0.6-0.1
					c0.1-0.1,0.2-0.2,0.3-0.3c0.1-0.2,0.1-0.3,0.1-0.5v-1.1c0-0.3,0.1-0.5,0.2-0.7c0.2-0.2,0.4-0.3,0.7-0.3V29.5z"/>
			</g>
		</g>
	</g>
</g>
</svg>
