<?xml version="1.0" encoding="utf-8"?>
<!-- Generator: Adobe Illustrator 26.0.1, SVG Export Plug-In . SVG Version: 6.00 Build 0)  -->
<svg version="1.1" id="レイヤー_1" xmlns="http://www.w3.org/2000/svg" xmlns:xlink="http://www.w3.org/1999/xlink" x="0px"
	 y="0px" viewBox="0 0 40.1 45.8" style="enable-background:new 0 0 40.1 45.8;" xml:space="preserve">
<style type="text/css">
	.st0{fill:none;stroke:#D7D7D9;stroke-width:3;stroke-linecap:round;stroke-linejoin:round;}
	.st1{fill:#D7D7D9;}
	.st2{fill:none;stroke:#D7D7D9;stroke-width:2;stroke-linecap:round;stroke-linejoin:round;}
</style>
<g id="レイヤー_2_00000048489807337484555680000002981290904268015244_">
	<g id="ICONS">
		<g id="report-2">
			<g id="グループ_699">
				<path id="長方形_707" class="st0" d="M5.4,1.5h29.3c1.5,0,2.7,1.2,2.7,2.7v0v24c0,7.4-6,13.3-13.3,13.3H5.4
					c-1.5,0-2.7-1.2-2.7-2.7V4.2C2.7,2.7,3.9,1.5,5.4,1.5C5.4,1.5,5.4,1.5,5.4,1.5z"/>
			</g>
			<g id="グループ_700">
				<path id="長方形_707-2" class="st1" d="M28.6,30.8h7.5v1.3c0,5.2-4.2,9.3-9.3,9.3l0,0v-8.8C26.7,31.7,27.6,30.8,28.6,30.8z"
					/>
			</g>
			<g id="グループ_701">
				<path id="パス_663" class="st2" d="M10.4,19.8l6-6.1l6.2,3.6l8.3-8"/>
				<circle id="楕円形_17" class="st1" cx="30.4" cy="9.5" r="2.7"/>
				<path id="楕円形_17_-_アウトライン" class="st1" d="M30.4,8.2c-0.7,0-1.3,0.6-1.3,1.3c0,0.7,0.6,1.3,1.3,1.3
					c0.7,0,1.3-0.6,1.3-1.3v0C31.7,8.8,31.1,8.2,30.4,8.2C30.4,8.2,30.4,8.2,30.4,8.2 M30.4,6.8C31.8,6.8,33,8,33,9.5
					s-1.2,2.7-2.7,2.7c-1.5,0-2.7-1.2-2.7-2.7c0,0,0,0,0,0C27.7,8,28.9,6.8,30.4,6.8z"/>
				<circle id="楕円形_18" class="st1" cx="22.9" cy="17.5" r="2.7"/>
				<path id="楕円形_18_-_アウトライン" class="st1" d="M22.9,16.2c-0.7,0-1.3,0.6-1.3,1.3c0,0.7,0.6,1.3,1.3,1.3
					c0.7,0,1.3-0.6,1.3-1.3S23.7,16.2,22.9,16.2L22.9,16.2 M22.9,14.8c1.5,0,2.7,1.2,2.7,2.7s-1.2,2.7-2.7,2.7s-2.7-1.2-2.7-2.7
					C20.2,16,21.4,14.8,22.9,14.8C22.9,14.8,22.9,14.8,22.9,14.8z"/>
				<circle id="楕円形_19" class="st1" cx="17" cy="13.5" r="2.7"/>
				<path id="楕円形_19_-_アウトライン" class="st1" d="M17,12.2c-0.7,0-1.3,0.6-1.3,1.3s0.6,1.3,1.3,1.3s1.3-0.6,1.3-1.3
					S17.7,12.2,17,12.2L17,12.2 M17,10.8c1.5,0,2.7,1.2,2.7,2.7c0,1.5-1.2,2.7-2.7,2.7c-1.5,0-2.7-1.2-2.7-2.7c0,0,0,0,0,0
					C14.3,12,15.5,10.8,17,10.8z"/>
				<circle id="楕円形_20" class="st1" cx="9.5" cy="20.2" r="2.7"/>
				<path id="楕円形_20_-_アウトライン" class="st1" d="M9.5,18.8c-0.7,0-1.3,0.6-1.3,1.3c0,0.7,0.6,1.3,1.3,1.3
					c0.7,0,1.3-0.6,1.3-1.3c0,0,0,0,0,0C10.8,19.4,10.2,18.8,9.5,18.8 M9.5,17.5c1.5,0,2.7,1.2,2.7,2.7c0,1.5-1.2,2.7-2.7,2.7
					c-1.5,0-2.7-1.2-2.7-2.7c0,0,0,0,0,0C6.8,18.7,8,17.5,9.5,17.5z"/>
				<path id="前面オブジェクトで型抜き_2" class="st1" d="M30.8,28.1h-7v-5.6l7-6.5V28.1z M21.9,28.1H18v-8.2l3.8,2.8
					L21.9,28.1L21.9,28.1z M16,28.1h-5.5v-1.9l5.5-6.1L16,28.1L16,28.1z"/>
			</g>
		</g>
	</g>
</g>
</svg>
