<?xml version="1.0" encoding="UTF-8"?><svg id="uuid-d5220727-caed-4fca-9d2b-842809b9b01d" xmlns="http://www.w3.org/2000/svg" viewBox="0 0 41.6267368 48.99928031"><g id="uuid-970d0473-4c95-4431-9b3e-ce5fc63ee389"><g><g id="uuid-b0014438-149f-4b88-89c5-0deb7c5f7b75"><g id="uuid-64064c77-c61b-4111-b10a-a0d9f677c3d9"><path d="M37.26669042,0H5.85671727C3.45669286,0,1.49673192,1.95001221,1.49673192,4.34997559V41.63592686l.2699585-.2800293,1.42999268-1.4699707,.02001953,.0199585,1.2800293-1.27996826V4.34997559c0-.73999023,.60998535-1.34997559,1.35998535-1.34997559h31.40997314c.75,0,1.36004639,.60998535,1.36004639,1.34997559V30.05999756c0,7.04998779-5.7300415,12.77996826-12.7800293,12.77996826H12.27997366l-2.99005127,3H25.84670751c8.70001221,0,15.7800293-7.07995605,15.7800293-15.77996826V4.34997559c0-2.39996338-1.96002197-4.34997559-4.36004639-4.34997559Z" style="fill:#00cdd4;"/></g><g id="uuid-3bf24a48-d3af-4d36-934d-e3b19e384812"><path id="uuid-9b7ca640-5533-4421-b881-e92df735a931" d="M30.7023702,32.91369972h7.99710435v1.42805434c0,5.52084812-4.47553193,9.9963804-9.9963804,9.9963804h0v-9.42515869c0-1.10416971,.89510634-1.99927605,1.99927605-1.99927605h0Z" style="fill:#00cdd4;"/></g><g id="uuid-e1760d73-3df6-4a59-8b0e-5862eb1c7169"><path d="M11.16360204,22.07065123c-.25244141,0-.50488281-.09472656-.69921875-.28515625-.39501953-.38623047-.40185547-1.01953125-.015625-1.4140625l6.42626953-6.56884766c.32177734-.32910156,.82714844-.39550781,1.22363281-.16162109l5.93554688,3.50585938,8.37695312-8.02929688c.39794922-.38232422,1.03125-.37011719,1.41357422,.02978516,.38232422,.3984375,.36914062,1.03173828-.02978516,1.41357422l-8.92431641,8.55419922c-.32275391,.31054688-.81445312,.36767578-1.20068359,.13916016l-5.91357422-3.49267578-5.87792969,6.00830078c-.19580078,.20019531-.45556641,.30078125-.71484375,.30078125Z" style="fill:#00cdd4;"/><circle id="uuid-c426bc67-c82e-45db-9563-d46222f91167" cx="32.60164225" cy="10.06483025" r="2.85610868" style="fill:#00cdd4;"/><path id="uuid-3c62f358-9f35-4910-9395-a2f74d913012" d="M32.60164225,8.63677591c-.78869259,0-1.42805434,.63936175-1.42805434,1.42805434s.63936175,1.42805434,1.42805434,1.42805434,1.42805434-.63936175,1.42805434-1.42805434-.63936175-1.42805434-1.42805434-1.42805434h0Zm0-1.42805434c1.57738518,0,2.85610868,1.27872342,2.85610868,2.85610868,0,1.57738518-1.27872351,2.85610868-2.85610868,2.85610868-1.57738526,0-2.85610868-1.27872351-2.85610868-2.85610868,0-1.57738526,1.27872342-2.85610868,2.85610868-2.85610868Z" style="fill:#00cdd4;"/><circle id="uuid-7a322c76-e095-45f8-9b2c-676f81481c8d" cx="24.61596236" cy="18.6331563" r="2.85610868" style="fill:#00cdd4;"/><path id="uuid-39639b9f-5a0d-41e5-9c7f-268f8255456a" d="M24.61596236,17.20510196c-.78869259,0-1.42805434,.63936175-1.42805434,1.42805434s.63936175,1.42805434,1.42805434,1.42805434,1.42805434-.63936175,1.42805434-1.42805434-.63936175-1.42805434-1.42805434-1.42805434h0Zm0-1.42805434c1.57738518,0,2.85610868,1.27872342,2.85610868,2.85610868,0,1.57738518-1.27872351,2.85610868-2.85610868,2.85610868-1.57738526,0-2.85610868-1.27872351-2.85610868-2.85610868,0-1.57738526,1.27872342-2.85610868,2.85610868-2.85610868Z" style="fill:#00cdd4;"/><circle id="uuid-844cfb80-f69e-492e-89e1-bafee05fa2ba" cx="18.22827521" cy="14.34899327" r="2.85610868" style="fill:#00cdd4;"/><path id="uuid-e0e49540-3b30-47df-8f6f-b4658245c705" d="M18.22827521,12.92093893c-.78869259,0-1.42805434,.63936175-1.42805434,1.42805434s.63936175,1.42805434,1.42805434,1.42805434,1.42805434-.63936175,1.42805434-1.42805434-.63936175-1.42805434-1.42805434-1.42805434h0Zm0-1.42805434c1.57738518,0,2.85610868,1.27872342,2.85610868,2.85610868,0,1.57738518-1.27872351,2.85610868-2.85610868,2.85610868-1.57738526,0-2.85610868-1.27872351-2.85610868-2.85610868,0-1.57738526,1.27872342-2.85610868,2.85610868-2.85610868Z" style="fill:#00cdd4;"/><circle id="uuid-3553372f-1878-46c3-988e-4a66360458ee" cx="10.24402327" cy="21.48926499" r="2.85610868" style="fill:#00cdd4;"/><path id="uuid-c6fc8c9c-8590-42af-bf6d-ae845f8375a0" d="M10.24402327,20.06121064c-.78869259,0-1.42805434,.63936175-1.42805434,1.42805434s.63936175,1.42805434,1.42805434,1.42805434,1.42805434-.63936175,1.42805434-1.42805434-.63936175-1.42805434-1.42805434-1.42805434h0Zm0-1.42805434c1.57738518,0,2.85610868,1.27872342,2.85610868,2.85610868,0,1.57738518-1.27872351,2.85610868-2.85610868,2.85610868-1.57738526,0-2.85610868-1.27872351-2.85610868-2.85610868,0-1.57738526,1.27872342-2.85610868,2.85610868-2.85610868Z" style="fill:#00cdd4;"/></g><path id="uuid-a29edae8-de79-46ea-a6b9-13119344fd83" d="M33.10997641,30.03475472h-7.4972853v-6.03349473l7.4972853-7.01597938v13.04947412Zm-21.7932982-1.73141596v1.7266295h.97003174l4.95001221-4.92999268v-3.63000488l-5.92004395,6.83336806Zm8.06005859-7.07335829l-.00036528,3.43472358,3.13211049-1.15468639-3.13174521-2.2800372Z" style="fill:#00cdd4;"/></g><path id="uuid-afe35eb1-23df-4b16-b155-99377ac669fe" d="M33.10997641,30.03475472h-7.4972853v-6.03349473l7.4972853-7.01597938v13.04947412Z" style="fill:#00cdd4;"/><path d="M3.62109857,42.49855213l2.86000061,2.84000015,14.79999924-14.84000015,1.27000046-3c.1492157-.27271271,.09124756-.61224365-.13999939-.81999969-.20139313-.21041298-.51203346-.27413559-.78000069-.15999985l-3.15999985,1.17000008L3.62109857,42.49855213Zm-3,3.05000019c-.35564041,.31617832-.57736206,.7560482-.61999893,1.2300005-.01750946,.44669056,.17488098,.87586737,.52000046,1.15999985l.48999786,.55999947c.2973175,.33086252,.72539139,.51380062,1.16999817,.5,.46701431-.04174566,.9018364-.2555933,1.22000122-.5999999l1.67000198-1.67999983-2.82999802-2.84000015-1.62000275,1.67000008Z" style="fill:#00cdd4;"/></g></g></svg>