<?xml version="1.0" encoding="utf-8"?>
<!-- Generator: Adobe Illustrator 26.0.1, SVG Export Plug-In . SVG Version: 6.00 Build 0)  -->
<svg version="1.1" id="レイヤー_1" xmlns="http://www.w3.org/2000/svg" xmlns:xlink="http://www.w3.org/1999/xlink" x="0px"
	 y="0px" viewBox="0 0 98.4 80" style="enable-background:new 0 0 98.4 80;" xml:space="preserve">
<style type="text/css">
	.st0{clip-path:url(#SVGID_00000094590298586666626850000008310949722159711364_);}
	.st1{fill:#707070;}
	.st2{fill:#5CFFFF;}
	.st3{opacity:0.3;}
	.st4{fill:#00CDD4;}
	.st5{opacity:0.23;}
	.st6{opacity:0.13;}
	.st7{fill:#5FF5B5;}
	.st8{fill:#F6FFFF;}
	.st9{fill:#DDFFFF;}
	.st10{fill:#B3FADC;}
	.st11{fill:none;stroke:#5FF5B5;stroke-linecap:round;stroke-linejoin:round;stroke-miterlimit:10;}
	.st12{fill:none;stroke:#FFFFFF;stroke-width:0.7244;stroke-miterlimit:10;}
	.st13{fill:none;stroke:#5CFFFF;stroke-width:0.7244;stroke-miterlimit:10;}
	.st14{fill:#5FF5B5;stroke:#5CFFFF;stroke-width:3;}
	.st15{fill:none;stroke:#5FF5B5;stroke-width:3;stroke-miterlimit:10;}
	.st16{fill:#2A363C;}
	.st17{fill:none;stroke:#DAFDEE;stroke-width:5;stroke-linecap:round;stroke-linejoin:round;}
</style>
<g>
	<g>
		<g>
			<g>
				<g>
					<g>
						<defs>
							<rect id="SVGID_1_" width="98.4" height="80"/>
						</defs>
						<clipPath id="SVGID_00000161601492901522488310000005275939718471567777_">
							<use xlink:href="#SVGID_1_"  style="overflow:visible;"/>
						</clipPath>
						<g style="clip-path:url(#SVGID_00000161601492901522488310000005275939718471567777_);">
							<g>
								<rect x="-1.4" class="st1" width="49.9" height="80"/>
								<rect x="-1.4" class="st2" width="49.9" height="80"/>
							</g>
							<g>
								<rect x="-1.4" class="st1" width="49.9" height="80"/>
								<g>
									<g class="st3">
										<rect class="st4" width="49.2" height="80"/>
									</g>
									<g class="st3">
										<rect x="49.2" class="st4" width="49.2" height="80"/>
									</g>
								</g>
							</g>
							<g class="st5">
								<g class="st6">
									<path class="st7" d="M51,87.3h-2.1c-25.4,0-46-20.6-46-46V39c0-25.4,20.6-46,46-46H51c25.4,0,46,20.6,46,46v2.3
										C97,66.7,76.4,87.3,51,87.3z"/>
									<path class="st7" d="M51,87.3h-2.1c-25.4,0-46-20.6-46-46V39c0-25.4,20.6-46,46-46H51c25.4,0,46,20.6,46,46v2.3
										C97,66.7,76.4,87.3,51,87.3z"/>
								</g>
								<g>
									<g>
										<path class="st8" d="M51,87.3h-2.1c-25.4,0-46-20.6-46-46V39c0-25.4,20.6-46,46-46H51c25.4,0,46,20.6,46,46v2.3
											C97,66.7,76.4,87.3,51,87.3z"/>
									</g>
								</g>
							</g>
							<g>
								<g>
									<path class="st8" d="M50.8,77.8h-1.7c-20.3,0-36.7-16.4-36.7-36.7v-1.8C12.4,19,28.8,2.6,49.1,2.6h1.7
										c20.3,0,36.7,16.4,36.7,36.7v1.8C87.5,61.4,71.1,77.8,50.8,77.8z"/>
									<path class="st8" d="M50.8,77.8h-1.7c-20.3,0-36.7-16.4-36.7-36.7v-1.8C12.4,19,28.8,2.6,49.1,2.6h1.7
										c20.3,0,36.7,16.4,36.7,36.7v1.8C87.5,61.4,71.1,77.8,50.8,77.8z"/>
								</g>
								<g>
									<g>
										<path class="st8" d="M50.8,80.3H49c-21.6,0-39.2-17.5-39.2-39.2v-2C9.8,17.5,27.4,0,49,0h1.8C72.5,0,90,17.5,90,39.2v2
											C90,62.8,72.5,80.3,50.8,80.3z"/>
									</g>
								</g>
								<g>
									<g>
										<path class="st9" d="M50.8,77.8h-1.7c-20.3,0-36.7-16.4-36.7-36.7v-1.8C12.4,19,28.8,2.6,49.1,2.6h1.7
											c20.3,0,36.7,16.4,36.7,36.7v1.8C87.5,61.4,71.1,77.8,50.8,77.8z"/>
									</g>
								</g>
							</g>
							<g>
								<path class="st10" d="M50.6,72.8h-1.5c-17.6,0-31.8-14.3-31.8-31.8v-1.6c0-17.6,14.3-31.8,31.8-31.8h1.5
									c17.6,0,31.8,14.3,31.8,31.8V41C82.4,58.5,68.2,72.8,50.6,72.8z"/>
							</g>
							<g>
								<path class="st7" d="M50.6,69.2h-1.3C33.6,69.2,21,56.5,21,40.9v-1.4c0-15.6,12.7-28.3,28.3-28.3h1.3
									c15.6,0,28.3,12.7,28.3,28.3v1.4C78.9,56.5,66.2,69.2,50.6,69.2z"/>
								<path class="st11" d="M50.6,69.2h-1.3C33.6,69.2,21,56.5,21,40.9v-1.4c0-15.6,12.7-28.3,28.3-28.3h1.3
									c15.6,0,28.3,12.7,28.3,28.3v1.4C78.9,56.5,66.2,69.2,50.6,69.2z"/>
							</g>
							<path class="st12" d="M38.2,18.2c3.5-1.9,7.5-2.9,11.7-2.9l0,0c4.9,0,9.5,1.4,13.3,3.9"/>
							<path class="st13" d="M27.4,50.7c-1.5-3.2-2.3-6.8-2.3-10.5l0,0c0-4.6,1.2-8.8,3.4-12.5"/>
							<path class="st12" d="M61.3,62.3c-3.4,1.8-7.3,2.8-11.4,2.8l0,0c-3.7,0-7.3-0.8-10.4-2.3"/>
							<path class="st14" d="M50.5,66.7h-1.2c-14.3,0-25.9-11.6-25.9-25.9v-1.3c0-14.3,11.6-25.9,25.9-25.9h1.2
								c14.3,0,25.9,11.6,25.9,25.9v1.3C76.4,55.1,64.8,66.7,50.5,66.7z"/>
							<path class="st13" d="M73.9,33.8c0.5,2,0.8,4.2,0.8,6.4l0,0c0,4.8-1.4,9.3-3.7,13.1"/>
							<g>
								<path class="st15" d="M33.7,16.1c4.6-3.1,10.2-5,16.2-5l0,0c5.7,0,11,1.6,15.5,4.5"/>
							</g>
							<g>
								<path class="st15" d="M73.2,22.9c3.6,4.8,5.7,10.8,5.7,17.3l0,0c0,3.7-0.7,7.3-2,10.6"/>
							</g>
							<g>
								<path class="st15" d="M49.9,69.2c-16,0-28.9-13-28.9-29"/>
							</g>
							<path class="st1" d="M50.5,65.1h-1.1c-13.4,0-24.3-10.9-24.3-24.3v-1.2c0-13.4,10.9-24.3,24.3-24.3h1.1
								c13.4,0,24.3,10.9,24.3,24.3v1.2C74.8,54.2,63.9,65.1,50.5,65.1z"/>
							<path class="st16" d="M50.4,61.2h-0.9C38.2,61.2,29,52,29,40.7v-1c0-11.3,9.2-20.5,20.5-20.5h0.9c11.3,0,20.5,9.2,20.5,20.5
								v1C70.9,52,61.7,61.2,50.4,61.2z"/>
							<g>
								<g id="search-2_00000150819326924097340140000012353002585244649867_" transform="translate(-506 1576.5)">
									
										<image style="overflow:visible;opacity:0.1;enable-background:new    ;" width="179" height="175" xlink:href="64F649744F5805FC.png"  transform="matrix(0.2523 0 0 0.2523 533.1547 -1558.5312)">
									</image>
									<g>
										
											<image style="overflow:visible;enable-background:new    ;" width="142" height="142" xlink:href="64F649744F5805FF.png"  transform="matrix(0.2536 0 0 0.2536 537.9876 -1554.332)">
										</image>
										<g>
											
												<ellipse id="楕円形_21_00000047047620069812919550000009727125207471031482_" class="st17" cx="554.1" cy="-1538.2" rx="9.1" ry="9.1"/>
											
												<line id="線_49_00000020373146100945946080000009394578618459402372_" class="st17" x1="561.1" y1="-1531.1" x2="567" y2="-1525.3"/>
										</g>
									</g>
								</g>
							</g>
						</g>
					</g>
				</g>
			</g>
		</g>
	</g>
</g>
</svg>
