<?xml version="1.0" encoding="UTF-8"?>
<svg id="_レイヤー_2" data-name="レイヤー_2" xmlns="http://www.w3.org/2000/svg" xmlns:xlink="http://www.w3.org/1999/xlink" viewBox="0 0 54.07 51">
  <defs>
    <style>
      .cls-1 {
        fill: none;
      }

      .cls-2 {
        fill: #00cdd4;
      }

      .cls-3 {
        clip-path: url(#clippath);
      }
    </style>
    <clipPath id="clippath">
      <circle class="cls-1" cx="25.5" cy="25.5" r="24"/>
    </clipPath>
  </defs>
  <g id="_レイヤー_1-2" data-name="レイヤー_1">
    <g>
      <g>
        <g class="cls-3">
          <path class="cls-2" d="M9.88,39.61v-.79c0-4.48,3.18-8.24,7.41-9.12-.13-.17-.24-.36-.36-.54-1.69.29-3.44.08-5.03-.66h-2.71c-3.49,0-6.31,2.83-6.31,6.31v.79c0,1.31.74,7.01,2.05,7.01l5.91,4c-.22-1.59-.96-6.87-.96-7.01Z"/>
          <path class="cls-2" d="M15.49,26.94h0c.13,0,.26-.01.39-.02-.31-.97-.48-2.01-.48-3.09,0-2.71,1.06-5.24,2.97-7.15.69-.69,1.47-1.26,2.3-1.72-1.29-1.37-3.12-2.23-5.15-2.23-3.92,0-7.11,3.17-7.11,7.1h0c0,3.93,3.17,7.11,7.09,7.11Z"/>
          <path class="cls-2" d="M25.49,30.94h0c3.92,0,7.11-3.17,7.11-7.1,0-3.92-3.17-7.11-7.1-7.11-3.92,0-7.11,3.17-7.11,7.1h0c0,3.93,3.17,7.11,7.09,7.11Z"/>
          <path class="cls-2" d="M36.97,37.7l-3.64,1.35c-.38.15-.78.22-1.17.22-.83,0-1.65-.32-2.25-.92-1-.95-1.27-2.43-.67-3.67l.92-2.17h-1.07c-2.28,1.05-4.91,1.05-7.19,0h-2.71c-3.49,0-6.31,2.83-6.31,6.31v.79c0,1.31.74,11.01,2.05,11.01h20.51c1.3,0,2.69-9.7,2.69-11.01v-.79c0-.68-.12-1.33-.32-1.95l-.83.82Z"/>
          <path class="cls-2" d="M45.19,29.5l-5.11,5.1c.65,1.27,1.04,2.7,1.04,4.22v.79s-.92,5.46-1.28,7.12l5.59-4.11c1.3,0,2.69-5.7,2.69-7.01v-.79c0-2.24-1.17-4.2-2.93-5.32Z"/>
        </g>
        <path class="cls-2" d="M47.96,26.74c-.64,11.83-10.47,21.26-22.46,21.26S3,37.91,3,25.5,13.09,3,25.5,3c9.03,0,16.82,5.35,20.4,13.05l1.68-1.69.02.02.55-.55C43.9,5.63,35.35,0,25.5,0,11.44,0,0,11.44,0,25.5s11.44,25.5,25.5,25.5,25.5-11.44,25.5-25.5c0-.58-.03-1.15-.07-1.72l-2.97,2.96Z"/>
        <path class="cls-2" d="M35.61,23.84c0,1.02-.16,2.02-.45,2.97l7.42-7.44c-.24-3.7-3.31-6.63-7.07-6.63-2.04,0-3.87.86-5.17,2.24,3.14,1.72,5.27,5.05,5.27,8.88Z"/>
      </g>
      <path class="cls-2" d="M50.45,20.73l-2.86-2.84-14.8,14.84-1.27,3c-.15.27-.09.61.14.82.2.21.51.27.78.16l3.16-1.17,14.85-14.81ZM53.45,17.68c.36-.32.58-.76.62-1.23.02-.45-.17-.88-.52-1.16l-.49-.56c-.3-.33-.73-.51-1.17-.5-.47.04-.9.26-1.22.6l-1.67,1.68,2.83,2.84,1.62-1.67Z"/>
    </g>
  </g>
</svg>