<svg xmlns="http://www.w3.org/2000/svg" viewBox="0 0 36.59 33.71"><defs><style>.cls-1{fill:#fff;}</style></defs><title>アセット 73</title><g id="レイヤー_2" data-name="レイヤー 2"><g id="レイヤー_1-2" data-name="レイヤー 1"><path class="cls-1" d="M17.41,21a1,1,0,0,0,1.77,0l6.4-9.2a1,1,0,0,0,.19-.94.8.8,0,0,0-.8-.4H22.52a1.27,1.27,0,0,1-1.2-1.32V1.56A1.51,1.51,0,0,0,19.88,0H16.7a1.5,1.5,0,0,0-1.43,1.56V9.15a1.27,1.27,0,0,1-1.2,1.32H11.62a.8.8,0,0,0-.8.4,1,1,0,0,0,.18.94Z"/><path class="cls-1" d="M31.81,19.83V28.5h-27V19.83H0v11.9a1.91,1.91,0,0,0,1.82,2h33a1.91,1.91,0,0,0,1.82-2V19.83Z"/></g></g></svg>