<svg xmlns="http://www.w3.org/2000/svg" viewBox="0 0 30.17 38.2"><defs><style>.cls-1{fill:#fff;}</style></defs><title>アセット 101</title><g id="レイヤー_2" data-name="レイヤー 2"><g id="レイヤー_1-2" data-name="レイヤー 1"><rect class="cls-1" x="6.57" y="29.41" width="17.04" height="1.63"/><rect class="cls-1" x="6.57" y="22.81" width="17.04" height="1.63"/><rect class="cls-1" x="6.57" y="16.21" width="17.04" height="1.63"/><rect class="cls-1" x="15.57" y="9.6" width="8.03" height="1.63"/><path class="cls-1" d="M26.7,0H12.6A3.77,3.77,0,0,0,9.91,1.12L1.12,9.91A3.77,3.77,0,0,0,0,12.6V34.73A3.48,3.48,0,0,0,3.47,38.2H26.7a3.48,3.48,0,0,0,3.47-3.47V3.47A3.48,3.48,0,0,0,26.7,0ZM11.37,2.41v7.81c0,.85-.33,1.17-1.17,1.17H2.39ZM28.22,34.73a1.53,1.53,0,0,1-1.52,1.52H3.47A1.53,1.53,0,0,1,2,34.73V13.13h9.3a1.87,1.87,0,0,0,1.86-1.86V2H26.7a1.53,1.53,0,0,1,1.52,1.52V34.73Z"/></g></g></svg>