<svg xmlns="http://www.w3.org/2000/svg" viewBox="0 0 240.69 49.31"><g id="レイヤー_2" data-name="レイヤー 2"><g id="ICONS"><path d="M83.86,19.63H72.66v25.7c0,.82-.55,1.19-1.38,1.19h-.83c-.83,0-1.39-.37-1.39-1.19V19.63H57.59a1.16,1.16,0,0,1-1.31-1.26v-.66a1.18,1.18,0,0,1,1.31-1.29H83.86a1.19,1.19,0,0,1,1.35,1.25v.67A1.22,1.22,0,0,1,83.86,19.63Z"/><path d="M92.07,32.83H78.89c-.79,0-1.27-.55-1.27-1.66s.48-1.63,1.27-1.63H92.07c.83,0,1.34.59,1.34,1.63S92.9,32.83,92.07,32.83Z"/><path d="M122.77,46.48H109.2c-7.48,0-11-3.33-11-10.35V17.6c0-.82.51-1.22,1.34-1.22h.88c.83,0,1.38.4,1.38,1.22V36c0,5.26,2.26,7.25,7.36,7.25h13.65a1.18,1.18,0,0,1,1.35,1.26v.67A1.2,1.2,0,0,1,122.77,46.48Z"/><path d="M131.44,46.48h-.87c-.91,0-1.39-.44-1.39-1.18V17.6a1.18,1.18,0,0,1,1.35-1.22h.91a1.2,1.2,0,0,1,1.34,1.22V45.3C132.78,46,132.27,46.48,131.44,46.48Z"/><path d="M161.19,46.52a4.42,4.42,0,0,1-4.51-2.67l-11-22.11c-.51-.81-.87-1.29-1.74-1.29s-1.34.37-1.34,1.59V45.3c0,.81-.52,1.22-1.35,1.22h-.79c-.83,0-1.38-.41-1.38-1.22V20.89c0-3,1.66-4.4,4.31-4.4a5,5,0,0,1,4.75,2.88l11,22.27a1.69,1.69,0,0,0,1.38.92c.95,0,1.47-.33,1.47-1.59V17.64c0-.82.51-1.22,1.34-1.22h.79c.83,0,1.43.4,1.43,1.22V42.3C165.59,45.22,163.81,46.52,161.19,46.52Z"/><path d="M175.24,46.48h-.87c-.91,0-1.38-.44-1.38-1.18V17.6a1.18,1.18,0,0,1,1.34-1.22h.91a1.2,1.2,0,0,1,1.35,1.22V45.3C176.59,46,176.07,46.48,175.24,46.48Z"/><path d="M209.19,19.63H198v25.7c0,.82-.55,1.19-1.38,1.19h-.83c-.83,0-1.39-.37-1.39-1.19V19.63H182.92a1.16,1.16,0,0,1-1.31-1.26v-.66a1.18,1.18,0,0,1,1.31-1.29h26.27a1.19,1.19,0,0,1,1.35,1.25v.67A1.22,1.22,0,0,1,209.19,19.63Z"/><path d="M228.86,36.9v8.54c0,.82-.55,1.23-1.39,1.23h-.83c-.83,0-1.38-.41-1.38-1.23V36.9c-8.55-.11-11.63-4.58-11.63-10.61V17.6c0-.82.51-1.22,1.38-1.22h.75c.83,0,1.39.4,1.39,1.22v8.69c0,4.77,2.57,7.4,8.54,7.4h2.85c6.18,0,8.59-2.74,8.59-7.4V17.6c0-.82.55-1.22,1.38-1.22h.76c.87,0,1.42.4,1.42,1.22v8.69C240.69,32.32,237.57,36.83,228.86,36.9Z"/><path d="M21.08,10.6c1.4-2.22,3.09-3.53,4.81-3.76a4.9,4.9,0,0,1,.54,0,4.5,4.5,0,0,1,.89.1c1.6.35,3.15,1.64,4.46,3.7A17.39,17.39,0,0,1,33.72,15h0a20.78,20.78,0,0,1,.64,10.52c-.05.33-.1.66-.16,1v0h0c-.14.71-.31,1.41-.51,2.08h0a18.44,18.44,0,0,1-1,2.65h0A17.52,17.52,0,0,1,29.3,35.7h0c-.35.35-.72.68-1.1,1a17.93,17.93,0,0,0,6.8,3,18.42,18.42,0,0,0,2.53-3.18,22.42,22.42,0,0,0,1.25-2.27c0-.1.1-.19.14-.28l.1-.2.15-.33s0-.1.08-.16l.21-.49,0,0c.06-.15.12-.29.17-.44s.05-.12.07-.17.08-.22.11-.32.05-.14.07-.2.07-.2.1-.29l.06-.22c0-.09,0-.18.08-.27l.06-.22.06-.24c0-.09.05-.18.08-.28s0-.16.07-.24,0-.17.07-.26a46.06,46.06,0,0,0,.87-10.44h0A26.92,26.92,0,0,0,37.53,7c-2.84-4.49-6.79-7-11.1-7s-8.26,2.47-11.1,7A26.3,26.3,0,0,0,11.7,17.28a53.82,53.82,0,0,1,7.8-3.41A16.79,16.79,0,0,1,21.08,10.6Z"/><path d="M50.83,30.07h0a26.16,26.16,0,0,0-7.2-8.36,52.54,52.54,0,0,1-.94,8.43,16.55,16.55,0,0,1,2.11,3.08c1.35,2.57,1.56,4.89.61,6.54-.83,1.44-2.55,2.36-4.91,2.65l-.52.05a4.58,4.58,0,0,1-.53,0A17.11,17.11,0,0,1,34.87,42v0a20.74,20.74,0,0,1-9.15-4.39,22.67,22.67,0,0,1-2.85-2.55h0A19.05,19.05,0,0,1,21,32.84,17.61,17.61,0,0,1,19,27.93h0c-.14-.52-.26-1.06-.36-1.6a18.28,18.28,0,0,0-6,4.38,18.19,18.19,0,0,0,1.49,3.78,19.05,19.05,0,0,0,1.22,2v0l.3.46.11.16.21.3.13.17a2.48,2.48,0,0,0,.19.26l.14.18c.06.09.13.17.19.25l.15.18.19.23.16.17a2,2,0,0,0,.19.22l.16.17.2.21.16.17a1.37,1.37,0,0,1,.17.17l.21.21.18.19.19.19a45.82,45.82,0,0,0,8.54,6h0a27.62,27.62,0,0,0,11.75,2.87l.88,0c5.31-.22,9.42-2.4,11.58-6.13S53.29,34.77,50.83,30.07Z"/><path d="M17.05,42.14a16.74,16.74,0,0,1-3.09.3h-.6c-2.89-.12-5-1.1-6-2.74s-.74-4,.61-6.54a17.47,17.47,0,0,1,2.84-3.89h0l.3-.31.25-.24.38-.36A19.89,19.89,0,0,1,19,23.7a22.42,22.42,0,0,1,4.46-1.38h0c.34-.07.68-.13,1-.17s.68-.07,1-.09h.6a18.5,18.5,0,0,1,5.06.76c.42.12.85.26,1.27.41a18.17,18.17,0,0,0-.81-7.43,18.62,18.62,0,0,0-4-.59,23.67,23.67,0,0,0-3.91.18l-.3,0-.13,0-.43.07h0l-.42.07-.13,0-.28.06-.23,0-.17,0-.24.05-.16,0-.27.06-.14,0L20.5,16l-.12,0-.32.09-.09,0-.35.11h-.06l-.08,0a43.44,43.44,0,0,0-8.23,3.87A27.12,27.12,0,0,0,2,30C-.48,34.7-.65,39.35,1.5,43.09S7.77,49,13.08,49.22c.29,0,.58,0,.88,0a26.92,26.92,0,0,0,9.9-2.05A53,53,0,0,1,17.05,42.14Z"/></g></g></svg>