<?xml version="1.0" encoding="UTF-8"?><svg xmlns="http://www.w3.org/2000/svg" xmlns:xlink="http://www.w3.org/1999/xlink" viewBox="0 0 1921.23727854 449.31912907"><defs><linearGradient id="uuid-a67011fe-8120-4b5b-9c68-a36dd41f1063" x1=".44901748" y1="322.73330319" x2="1921.23727854" y2="322.73330319" gradientUnits="userSpaceOnUse"><stop offset="0" stop-color="#00cdd4"/><stop offset=".83688664" stop-color="#01cad0"/><stop offset="1" stop-color="#01cad0" stop-opacity=".5"/></linearGradient><linearGradient id="uuid-cf0849e2-053c-4c92-b35c-fe38bba90a29" x1=".42694899" y1="319.77744997" x2="1921.09037699" y2="319.77744997" xlink:href="#uuid-a67011fe-8120-4b5b-9c68-a36dd41f1063"/><linearGradient id="uuid-aff082c2-45ff-4193-a6cb-2d878e4d6262" x1=".41650794" y1="316.69745218" x2="1920.88374684" y2="316.69745218" xlink:href="#uuid-a67011fe-8120-4b5b-9c68-a36dd41f1063"/><linearGradient id="uuid-aafec976-7e7c-450b-9299-f404fdd4bdcc" x1=".41914047" y1="314.4829516" x2="1920.64525665" y2="314.4829516" xlink:href="#uuid-a67011fe-8120-4b5b-9c68-a36dd41f1063"/><linearGradient id="uuid-376e2190-59a5-476d-ab48-4f813860a1ce" x1=".43414318" y1="315.06094151" x2="1920.79934218" y2="315.06094151" xlink:href="#uuid-a67011fe-8120-4b5b-9c68-a36dd41f1063"/><linearGradient id="uuid-91d11421-1c90-4657-8835-8b5eb167a5d8" x1=".45756051" y1="323.86834354" x2="1920.77253655" y2="323.86834354" xlink:href="#uuid-a67011fe-8120-4b5b-9c68-a36dd41f1063"/><linearGradient id="uuid-901d47ff-a9ad-4aa4-8986-a59720e927e9" x1=".44417792" y1="325.77142331" x2="1920.77590323" y2="325.77142331" xlink:href="#uuid-a67011fe-8120-4b5b-9c68-a36dd41f1063"/><linearGradient id="uuid-2ddf1a4c-3f8d-4f1c-ac38-ebdca97a4d0f" x1=".30422043" y1="327.62767342" x2="1920.75694039" y2="327.62767342" xlink:href="#uuid-a67011fe-8120-4b5b-9c68-a36dd41f1063"/><linearGradient id="uuid-b0425f4b-3067-4fc4-85f5-e978a3f5b7de" x1=".17450165" y1="329.44628653" x2="1920.72495283" y2="329.44628653" xlink:href="#uuid-a67011fe-8120-4b5b-9c68-a36dd41f1063"/><linearGradient id="uuid-23dbc0b8-52f7-46ae-9071-ecdf07fdcdce" x1=".05674469" y1="331.2344476" x2="1920.68514894" y2="331.2344476" xlink:href="#uuid-a67011fe-8120-4b5b-9c68-a36dd41f1063"/><linearGradient id="uuid-6a8b9f07-e044-4818-aeaf-c1f7f350dafc" x1=".14876722" y1="296.70062556" x2="1920.67169365" y2="296.70062556" gradientUnits="userSpaceOnUse"><stop offset="0" stop-color="#1cd3d9"/><stop offset=".83688664" stop-color="#1dd0d5"/><stop offset="1" stop-color="#1dd0d5" stop-opacity=".55555556"/></linearGradient><linearGradient id="uuid-c7a58646-a825-46e8-bbf3-6056a076aaca" x1=".24724722" y1="262.05963131" x2="1920.65192676" y2="262.05963131" gradientUnits="userSpaceOnUse"><stop offset="0" stop-color="#39d8de"/><stop offset=".83688664" stop-color="#39d6da"/><stop offset="1" stop-color="#39d6da" stop-opacity=".61111111"/></linearGradient><linearGradient id="uuid-5e51ffcb-3bec-424f-bb5a-7b8f411f4642" x1=".35325338" y1="233.36583536" x2="1920.62083307" y2="233.36583536" gradientUnits="userSpaceOnUse"><stop offset="0" stop-color="#55dee2"/><stop offset=".83688664" stop-color="#56dce0"/><stop offset="1" stop-color="#56dce0" stop-opacity=".66666667"/></linearGradient><linearGradient id="uuid-28b4990c-dbc4-4e5f-8d71-3a232a3d9662" x1=".46752539" y1="211.83736505" x2="1920.56755083" y2="211.83736505" gradientUnits="userSpaceOnUse"><stop offset="0" stop-color="#71e3e7"/><stop offset=".83688664" stop-color="#72e2e5"/><stop offset="1" stop-color="#72e2e5" stop-opacity=".72222222"/></linearGradient><linearGradient id="uuid-0d00963f-9b3f-47d6-a7bc-e418d6eca94d" x1=".57737307" y1="190.3323937" x2="1920.46771954" y2="190.3323937" gradientUnits="userSpaceOnUse"><stop offset="0" stop-color="#8ee9ec"/><stop offset=".83688664" stop-color="#8ee7ea"/><stop offset="1" stop-color="#8ee7ea" stop-opacity=".77777778"/></linearGradient><linearGradient id="uuid-0c555b39-303d-4a12-ba3e-a3103cbc32ea" x1=".56853298" y1="168.85779311" x2="1920.28614432" y2="168.85779311" gradientUnits="userSpaceOnUse"><stop offset="0" stop-color="#aaeef1"/><stop offset=".83688664" stop-color="#aaedef"/><stop offset="1" stop-color="#aaedef" stop-opacity=".83333333"/></linearGradient><linearGradient id="uuid-209c7667-5dfc-4cc9-a06f-48b79c6d5219" x1=".55637899" y1="147.4188807" x2="1920.53823595" y2="147.4188807" gradientUnits="userSpaceOnUse"><stop offset="0" stop-color="#c6f4f5"/><stop offset=".83688664" stop-color="#c7f3f5"/><stop offset="1" stop-color="#c7f3f5" stop-opacity=".88888889"/></linearGradient><linearGradient id="uuid-dfbeff6f-cb7f-421b-8a1a-5e20d707cdae" x1=".54563872" y1="126.01915293" x2="1920.7013063" y2="126.01915293" gradientUnits="userSpaceOnUse"><stop offset="0" stop-color="#e3f9fa"/><stop offset=".83688664" stop-color="#e3f9fa"/><stop offset="1" stop-color="#e3f9fa" stop-opacity=".94444444"/></linearGradient></defs><g style="isolation:isolate;"><g id="uuid-60707e5f-e242-4f8c-b589-0ae4bd240e41"><g id="uuid-8a57daad-ad8d-487a-af95-b23fcb56c223"><g><g style="mix-blend-mode:soft-light;"><path d="M.82417562,404.32195588c221.99108056-251.95704582,172.27418514-28.2735416,636.10540105-185.78027552,156.24343113-53.05678378,633.71476141,20.12253305,718.6623093,101.81543151,84.94754789,81.69289846,218.85699047,153.80192938,378.18896172,112.66484441,159.33197126-41.13708496,187.04332793-81.77707755,187.04332793-81.77707755" style="fill:none; opacity:.47; stroke:#fff; stroke-miterlimit:10;"/><path d="M.76404989,384.07638466c141.99942654-129.62782969,165.40944989-122.42764258,290.90885059-107.07909125,72.1633146,8.82555878,178.48105699,8.20265044,347.06216113-45.51808888,21.88247322-6.97315779,48.93320739-11.82841299,79.19433995-16.079303,121.83184492-17.11415693,306.65679497,6.23550022,443.07013582,40.31585783,87.79038805,21.82340213,162.26238455,46.10382989,195.52092325,71.51874641,62.1611969,47.50123402,142.26079314,93.03373613,236.32442896,100.6379403,45.46655762,3.67556478,94.0216772,2.9817886,144.09317098-7.2603308,152.00574139-31.09276027,183.82598932-58.50311673,183.82598932-58.50311673" style="fill:none; opacity:.46; stroke:#fff; stroke-miterlimit:10;"/><path d="M.70392416,363.83081362c145.8514128-102.46007649,159.62568448-115.91641212,293.80013394-89.87781744,73.29793641,14.2245805,184.17858411,18.69524634,346.03648843-29.53626761,22.57517215-6.72710261,49.55895934-11.65532059,78.82342005-17.23906945,122.90799362-23.45122215,309.90886543,4.11819354,441.47129163,39.57637484,84.13475668,22.47714219,158.6004776,44.34445975,196.61377708,67.35786565,65.83868887,39.85900966,146.51109165,79.26230653,238.95538597,80.52923525,45.93837549,.62957533,94.51362904,.81321965,143.69085216-6.43886048,144.48971874-21.3076492,180.60865074-35.22915614,180.60865074-35.22915614" style="fill:none; opacity:.45; stroke:#fff; stroke-miterlimit:10;"/><path d="M.64379844,343.58524259c149.70339906-75.29232329,153.83553575-109.82886127,296.69141728-72.67654364,74.43817965,19.35902718,189.97808895,29.45091068,345.01081573-13.55444634,23.27892729-6.45746611,50.18610367-11.55328814,78.45250014-18.39883589,124.00734274-30.03206254,313.16093589,2.00088686,439.87244744,38.83689185,80.47912532,23.13088225,154.65857088,42.7801032,197.70663091,63.19698489,68.96861588,32.71051169,150.82075066,65.30222504,241.58634299,60.42053019,46.44151263-2.49778894,94.94556472-1.43454958,143.28853333-5.61739016,136.80349095-11.83682365,177.39131216-11.95519554,177.39131216-11.95519554" style="fill:none; opacity:.44; stroke:#fff; stroke-miterlimit:10;"/><path d="M.58367271,323.33967156c153.55538533-48.12457009,148.11911649-104.12071331,299.58270063-55.47526984,75.61919446,24.28655885,195.86197728,40.45467042,343.98514303,2.42737493,23.99313898-6.15969947,50.80610568-11.51832606,78.08158023-19.55860234,125.08602793-36.87291386,316.41300634-.11641983,438.27360325,38.09740886,76.82349395,23.78462231,150.52422762,41.49705764,198.79948475,59.03610414,71.76424491,26.07290987,155.15380287,51.15147842,244.2173,40.31182514,46.95766745-5.71507801,95.47549445-.93332814,142.88621451-4.79591985,128.58766617-10.47614659,174.17397359,11.31876505,174.17397359,11.31876505" style="fill:none; opacity:.43; stroke:#fff; stroke-miterlimit:10;"/><path d="M.52354698,303.09410053c157.40737159-20.95681689,142.5270348-98.74102368,302.47398397-38.27399603,76.86024109,29.05657374,201.81301613,51.69221863,342.95947034,18.4091962,24.71715275-5.82842519,51.41097291-11.54482325,77.71066033-20.71836879,126.09862517-43.98422925,319.6650768-2.23372651,436.67475906,37.35792587,73.16786259,24.43836237,146.28742291,40.53845169,199.89233858,54.87522338,74.4121178,19.90171107,159.47415086,36.81820254,246.84825702,20.20312009,47.46735249-9.02640393,95.68474659-6.27732759,142.48389569-3.97444953,121.09287612,5.95870081,170.95663501,34.59272565,170.95663501,34.59272565" style="fill:none; opacity:.42; stroke:#fff; stroke-miterlimit:10;"/><path d="M.46342126,282.8485295c161.25935785,6.21093631,137.08772228-93.63882942,305.36526732-21.07272223,78.17002089,33.70915658,207.81395588,63.14994995,341.93379764,34.39101747,25.45020305-5.45721395,51.99350407-11.62587599,77.33974042-21.87813524,126.99971051-51.36991305,322.91714726-4.3510332,435.07591487,36.61844288,69.51223123,25.09210243,142.02787824,39.9090732,200.98519241,50.71434262,77.05346207,14.12180031,163.74855192,22.31939265,249.47921404,.09441504,47.95148662-12.43103331,96.04424119-8.93271364,142.08157687-3.15297921,113.21067293,14.21297769,167.73929643,57.86668624,167.73929643,57.86668624" style="fill:none; opacity:.41; stroke:#fff; stroke-miterlimit:10;"/><path d="M.40329553,262.60295847c165.11134412,33.37868951,131.8138688-88.76684751,308.25655066-3.87144842,79.55060814,38.27577632,213.8470712,74.81495726,340.90812494,50.37283874,26.19132828-5.03829877,52.54747505-11.7536426,76.96882051-23.03790169,127.74552961-59.02679096,326.16921772-6.46833988,433.47707068,35.87895989,65.85659986,25.74584249,137.80806791,39.5853422,202.07804624,46.55346186,79.78308018,8.65004258,167.94898818,7.67870362,252.11017105-20.01429001,48.39292844-15.92355303,96.45169427-11.78124297,141.67925804-2.33150889,105.44286272,22.03096805,164.52195785,81.14064684,164.52195785,81.14064684" style="fill:none; opacity:.4; stroke:#fff; stroke-miterlimit:10;"/><path d="M.3431698,242.35738744c168.96333038,60.54644271,126.70754475-84.08320127,311.14783401,13.32982538,81.00015085,42.7806196,219.89359183,86.67498609,339.88245224,66.35466,26.93924224-4.5622084,53.06776456-11.91970024,76.59790061-24.19766814,128.29570681-66.94438855,329.42128817-8.58564657,431.87822649,35.13947689,62.2009685,26.39958255,133.67115697,39.52658885,203.17090008,42.3925811,82.65669201,3.40855129,172.05414857-7.0762034,254.74112807-40.12299506,48.7777155-19.49456869,96.96272299-14.83966808,141.27693922-1.51003857,97.90971988,29.45105211,161.30461927,104.41460743,161.30461927,104.41460743" style="fill:none; opacity:.39; stroke:#fff; stroke-miterlimit:10;"/><path d="M.28304408,222.11181622c172.81531668,87.71419617,121.76403645-79.5519296,314.03911738,30.53109935,102.74958789,58.82710231,299.93608766,124.21990212,415.08376023,56.97904682,128.61489837-75.1050853,332.67335866-10.70295327,430.27938229,34.3999939,125.78328212,58.12342842,309.50501855,49.67732329,461.63583903-22s298.96190106,127,298.96190106,127" style="fill:none; opacity:.38; stroke:#fff; stroke-miterlimit:10;"/><path d="M.3431698,208.16849902c165.46679,69.82844583,147.79000033-82.09172368,336.92093558,17.70812032,108.07591128,57.02905805,335.89622892,136.46556004,455.42480002,68.72334185,131.49943846-74.73264485,320.72747131-18.47751902,411.71358766,26.59148778,118.52387213,58.70954179,287.56149984,54.73559371,434.74774932-14.55838085,147.18624948-69.29397456,281.13280168,96.19861277,281.13280168,96.19861277" style="fill:none; opacity:.35888889; stroke:#fff; stroke-miterlimit:10;"/><path d="M.40329553,194.22518196c158.11826339,51.94269566,174.19714529-85.12566238,359.80275357,4.88514142,113.57079098,55.07698975,371.85636984,148.71121783,495.76583941,80.46763677,134.38397852-74.3602044,308.77609907-26.21495606,393.14779321,18.78298174,111.2611465,59.33888374,265.61798133,59.79386409,407.85965987-7.11676176,142.24167854-66.91062585,263.30370248,65.39722583,263.30370248,65.39722583" style="fill:none; opacity:.33777778; stroke:#fff; stroke-miterlimit:10;"/><path d="M.46342126,180.2818649c150.76973678,34.05694549,200.91978768-88.63569739,382.68457155-7.93783748,119.22129235,52.9305124,407.81651076,160.95687563,536.10687881,92.21193168,137.26851858-73.98776395,296.81490404-33.90999787,374.58199875,10.9744757,103.98926856,60.01900409,243.67446283,64.85213446,380.97157042,.32485732,137.29710759-64.52727714,245.47460328,34.59583889,245.47460328,34.59583889" style="fill:none; opacity:.31666667; stroke:#fff; stroke-miterlimit:10;"/><path d="M.52354698,166.33854783c143.42121016,16.17119532,227.89474951-92.60016314,405.56638954-20.76081639,125.01330233,50.54759428,443.77665168,173.20253343,576.44791821,103.9562266,140.15305863-73.6153235,284.83781992-41.55701961,356.0162043,3.16596966,96.69965155,60.75857882,221.73094432,69.91040484,354.08348096,7.7664764,132.35253664-62.14392843,227.64550407,3.79445195,227.64550407,3.79445195" style="fill:none; opacity:.29555556; stroke:#fff; stroke-miterlimit:10;"/><path d="M.58367271,152.39523077c136.07268355-1.71455485,255.06145369-96.99504591,428.44820752-33.58379529,130.93119259,47.88434228,479.7367926,185.44819123,616.7889576,115.70052151,143.03759869-73.24288305,272.83646196-49.15038366,337.45040985-4.64253638,89.37983074,61.56726197,199.78742581,74.96867521,327.19539151,15.20809549,127.4079657-59.76057973,209.81640487-27.00693499,209.81640487-27.00693499" style="fill:none; opacity:.27444444; stroke:#fff; stroke-miterlimit:10;"/><path d="M.64379844,138.45191371c128.72415694-19.60030502,282.36173465-101.79492301,451.33002551-46.40677419,136.95733453,44.89489233,515.69693352,197.69384902,657.129997,127.44481643,145.92213875-72.8704426,260.79940368-56.68511122,318.8846154-12.45104242,82.01196067,62.45518614,177.84390731,80.02694559,300.30730206,22.64971457,122.46339475-57.37723102,191.98730567-57.80832193,191.98730567-57.80832193" style="fill:none; opacity:.25333333; stroke:#fff; stroke-miterlimit:10;"/><path d="M.70392416,124.50859665C122.0795545,87.02254146,310.44339658,17.53500347,474.91576766,65.27884355c143.07147553,41.531484,551.65707444,209.93950682,697.4710364,139.18911134,148.80667881-72.49800215,248.71136811-64.15807671,300.31882095-20.25954847,74.57092917,63.43180801,155.9003888,85.08521596,273.41921261,30.09133365,117.51882381-54.99388231,174.15820646-88.60970887,174.15820646-88.60970887" style="fill:none; opacity:.23222222; stroke:#fff; stroke-miterlimit:10;"/><path d="M.76404989,110.56527958C114.79115361,55.19347423,337.90419475-1.93915124,497.85771137,38.51254758c149.24999717,37.74481526,587.61721536,222.18516462,737.81207579,150.93340626,151.69121886-72.1255617,236.55249045-71.56998769,281.7530265-28.06805451,67.0222593,64.50361214,133.9568703,90.14348634,246.53112316,37.53295273,112.57425286-52.6105336,156.32910726-119.41109581,156.32910726-119.41109581" style="fill:none; opacity:.21111111; stroke:#fff; stroke-miterlimit:10;"/><path d="M.82417562,96.62196239C107.50275266,23.36440669,365.33455927-21.73853855,520.7996553,11.74625136c155.46509603,33.48478991,623.57735663,234.43082253,778.15311557,162.67770129s224.29801804-78.92843337,263.18723187-35.87656062c59.32039563,65.66998592,112.01335158,95.20175676,219.64303345,44.97457189,107.62968187-50.22718487,138.50000789-150.21248305,138.50000789-150.21248305" style="fill:none; opacity:.19; stroke:#fff; stroke-miterlimit:10;"/><path d="M.76404989,120.28862923C107.44262693,47.03107353,373.59559019-2.29629231,529.06068622,31.1884976c155.46509603,33.48478991,573.24702267,207.33040981,727.82278162,135.57728857s237.65210929-69.74178147,276.54132312-26.68990872c59.32039563,65.66998592,135.14877253,87.99438657,242.7784544,37.7672017,107.62968187-50.22718487,144.13992445-139.75953247,144.13992445-139.75953247" style="fill:none; opacity:.18333333; stroke:#fff; stroke-miterlimit:10;"/><path d="M.70392416,143.95529585C107.3825012,70.69774015,381.85662103,17.14595374,537.32171707,50.63074366c155.46509603,33.48478991,522.91668919,180.22999736,677.49244814,108.47687611,154.57575895-71.75312125,251.00620042-60.55512965,289.89541424-17.5032569,59.32039563,65.66998592,158.28419326,80.78701646,265.91387513,30.55983159,107.62968187-50.22718487,149.77984096-129.30658199,149.77984096-129.30658199" style="fill:none; opacity:.17666667; stroke:#fff; stroke-miterlimit:10;"/><path d="M.64379844,167.62196246C107.32237548,94.36440677,390.11765188,36.5881998,545.58274791,70.07298971c155.46509603,33.48478991,472.58635572,153.1295849,627.16211467,81.37646365,154.57575895-71.75312125,264.36029154-51.36847784,303.24950536-8.31660509,59.32039563,65.66998592,181.41961399,73.57964634,289.04929585,23.35246147,107.62968187-50.22718487,155.41975747-118.85363151,155.41975747-118.85363151" style="fill:none; opacity:.17; stroke:#fff; stroke-miterlimit:10;"/><path d="M.58367271,191.28862908C107.26224975,118.03107338,398.37868272,56.03044585,553.84377875,89.51523577c155.46509603,33.48478991,422.25602225,126.02917244,576.8317812,54.27605119,154.57575895-71.75312125,277.71438266-42.18182602,316.60359648,.87004673,59.32039563,65.66998592,204.55503471,66.37227622,312.18471658,16.14509135,107.62968187-50.22718487,161.05967398-108.40068103,161.05967398-108.40068103" style="fill:none; opacity:.16333333; stroke:#fff; stroke-miterlimit:10;"/><path d="M.52354698,214.9552957C107.20212402,141.69774,406.63971356,75.47269191,562.10480959,108.95748182c155.46509603,33.48478991,371.92568877,98.92875998,526.50144772,27.17563873,154.57575895-71.75312125,291.06847378-32.99517421,329.9576876,10.05669854,59.32039563,65.66998592,227.69045544,59.16490611,335.32013731,8.93772124,107.62968187-50.22718487,166.69959048-97.94773055,166.69959048-97.94773055" style="fill:none; opacity:.15666667; stroke:#fff; stroke-miterlimit:10;"/><path d="M.46342126,238.62196231c106.67857704-73.2575557,414.43732315-143.70702435,569.90241918-110.22223444,155.46509603,33.48478991,321.5953553,71.82834752,476.17111425,.07522627,154.57575895-71.75312125,304.4225649-23.80852239,343.31177872,19.24335036,59.32039563,65.66998592,250.82587617,51.95753599,358.45555804,1.73035112,107.62968187-50.22718487,172.33950699-87.49478007,172.33950699-87.49478007" style="fill:none; opacity:.15; stroke:#fff; stroke-miterlimit:10;"/><path d="M.40329553,262.28862893c106.67857704-73.2575557,422.75847972-147.93144491,578.22357575-114.446655,155.46509603,33.48478991,271.26502182,44.72793506,425.84078077-27.02518618,154.57575895-71.75312125,317.77665602-14.62187058,356.66586984,28.43000217,59.32039563,65.66998592,273.9612969,44.75016587,381.59097876-5.477019,107.62968187-50.22718487,177.9794235-77.04182959,177.9794235-77.04182959" style="fill:none; opacity:.14333333; stroke:#fff; stroke-miterlimit:10;"/><path d="M.3431698,285.95529555c106.67857704-73.2575557,431.07963629-152.15586548,586.54473232-118.67107556,155.46509603,33.48478991,220.93468835,17.6275226,375.5104473-54.12559864,154.57575895-71.75312125,331.13074714-5.43521876,370.01996096,37.61665398,59.32039563,65.66998592,297.09671762,37.54279576,404.72639949-12.68438912s183.61934001-66.58887911,183.61934001-66.58887911" style="fill:none; opacity:.13666667; stroke:#fff; stroke-miterlimit:10;"/><path d="M.28304408,309.62196239c106.67857704-73.2575557,439.40079294-156.38028608,594.86588897-122.89549616,155.46509603,33.48478991,170.60435439-9.47289012,325.18011334-81.22601136,154.57575895-71.75312125,344.48483839,3.75143314,383.37405221,46.80330589,59.32039563,65.66998592,320.23213857,30.33542557,427.86182044-19.8917593s189.25925657-56.13592853,189.25925657-56.13592853" style="fill:none; opacity:.13; stroke:#fff; stroke-miterlimit:10;"/></g><g style="opacity:.5;"><path d="M.82417562,404.32195588c221.99108056-251.95704582,172.27418514-28.2735416,636.10540105-185.78027552,156.24343113-53.05678378,633.71476141,20.12253305,718.6623093,101.81543151,84.94754789,81.69289846,218.85699047,153.80192938,378.18896172,112.66484441,159.33197126-41.13708496,187.04332793-81.77707755,187.04332793-81.77707755" style="fill:none; opacity:.3; stroke:url(#uuid-a67011fe-8120-4b5b-9c68-a36dd41f1063); stroke-miterlimit:10;"/><path d="M.76404989,384.07638466c141.99942654-129.62782969,165.40944989-122.42764258,290.90885059-107.07909125,72.1633146,8.82555878,178.48105699,8.20265044,347.06216113-45.51808888,21.88247322-6.97315779,48.93320739-11.82841299,79.19433995-16.079303,121.83184492-17.11415693,306.65679497,6.23550022,443.07013582,40.31585783,87.79038805,21.82340213,162.26238455,46.10382989,195.52092325,71.51874641,62.1611969,47.50123402,142.26079314,93.03373613,236.32442896,100.6379403,45.46655762,3.67556478,94.0216772,2.9817886,144.09317098-7.2603308,152.00574139-31.09276027,183.82598932-58.50311673,183.82598932-58.50311673" style="fill:none; opacity:.28888889; stroke:url(#uuid-cf0849e2-053c-4c92-b35c-fe38bba90a29); stroke-miterlimit:10;"/><path d="M.70392416,363.83081362c145.8514128-102.46007649,159.62568448-115.91641212,293.80013394-89.87781744,73.29793641,14.2245805,184.17858411,18.69524634,346.03648843-29.53626761,22.57517215-6.72710261,49.55895934-11.65532059,78.82342005-17.23906945,122.90799362-23.45122215,309.90886543,4.11819354,441.47129163,39.57637484,84.13475668,22.47714219,158.6004776,44.34445975,196.61377708,67.35786565,65.83868887,39.85900966,146.51109165,79.26230653,238.95538597,80.52923525,45.93837549,.62957533,94.51362904,.81321965,143.69085216-6.43886048,144.48971874-21.3076492,180.60865074-35.22915614,180.60865074-35.22915614" style="fill:none; opacity:.27777778; stroke:url(#uuid-aff082c2-45ff-4193-a6cb-2d878e4d6262); stroke-miterlimit:10;"/><path d="M.64379844,343.58524259c149.70339906-75.29232329,153.83553575-109.82886127,296.69141728-72.67654364,74.43817965,19.35902718,189.97808895,29.45091068,345.01081573-13.55444634,23.27892729-6.45746611,50.18610367-11.55328814,78.45250014-18.39883589,124.00734274-30.03206254,313.16093589,2.00088686,439.87244744,38.83689185,80.47912532,23.13088225,154.65857088,42.7801032,197.70663091,63.19698489,68.96861588,32.71051169,150.82075066,65.30222504,241.58634299,60.4205302,46.44151263-2.49778894,94.94556472-1.43454958,143.28853333-5.61739016,136.80349095-11.83682365,177.39131216-11.95519554,177.39131216-11.95519554" style="fill:none; opacity:.26666667; stroke:url(#uuid-aafec976-7e7c-450b-9299-f404fdd4bdcc); stroke-miterlimit:10;"/><path d="M.58367271,323.33967156c153.55538533-48.12457009,148.11911649-104.12071331,299.58270063-55.47526984,75.61919446,24.28655885,195.86197728,40.45467042,343.98514303,2.42737493,23.99313898-6.15969947,50.80610568-11.51832606,78.08158023-19.55860234,125.08602793-36.87291386,316.41300634-.11641983,438.27360325,38.09740886,76.82349395,23.78462231,150.52422762,41.49705764,198.79948475,59.03610414,71.76424491,26.07290987,155.15380287,51.15147842,244.2173,40.31182514,46.95766745-5.71507801,95.47549445-.93332814,142.88621451-4.79591985,128.58766617-10.47614659,174.17397359,11.31876505,174.17397359,11.31876505" style="fill:none; opacity:.25555556; stroke:url(#uuid-376e2190-59a5-476d-ab48-4f813860a1ce); stroke-miterlimit:10;"/><path d="M.52354698,303.09410053c157.40737159-20.95681689,142.5270348-98.74102368,302.47398397-38.27399603,76.86024109,29.05657374,201.81301613,51.69221863,342.95947034,18.4091962,24.71715275-5.82842519,51.41097291-11.54482325,77.71066033-20.71836879,126.09862517-43.98422925,319.6650768-2.23372651,436.67475906,37.35792587,73.16786259,24.43836237,146.28742291,40.53845169,199.89233858,54.87522338,74.4121178,19.90171107,159.47415086,36.81820254,246.84825702,20.20312009,47.46735249-9.02640393,95.68474659-6.27732759,142.48389569-3.97444953,121.09287612,5.95870081,170.95663501,34.59272565,170.95663501,34.59272565" style="fill:none; opacity:.24444444; stroke:url(#uuid-91d11421-1c90-4657-8835-8b5eb167a5d8); stroke-miterlimit:10;"/><path d="M.46342126,282.8485295c161.25935785,6.21093631,137.08772228-93.63882942,305.36526732-21.07272223,78.17002089,33.70915658,207.81395588,63.14994995,341.93379764,34.39101747,25.45020305-5.45721395,51.99350407-11.62587599,77.33974042-21.87813524,126.99971051-51.36991305,322.91714726-4.3510332,435.07591487,36.61844288,69.51223123,25.09210243,142.02787824,39.9090732,200.98519241,50.71434262,77.05346207,14.12180031,163.74855192,22.31939265,249.47921404,.09441504,47.95148662-12.43103331,96.04424119-8.93271364,142.08157687-3.15297921,113.21067293,14.21297769,167.73929643,57.86668624,167.73929643,57.86668624" style="fill:none; opacity:.23333333; stroke:url(#uuid-901d47ff-a9ad-4aa4-8986-a59720e927e9); stroke-miterlimit:10;"/><path d="M.40329553,262.60295847c165.11134412,33.37868951,131.8138688-88.76684751,308.25655066-3.87144842,79.55060814,38.27577632,213.8470712,74.81495726,340.90812494,50.37283874,26.19132828-5.03829877,52.54747505-11.7536426,76.96882051-23.03790169,127.74552961-59.02679096,326.16921772-6.46833988,433.47707068,35.87895989,65.85659986,25.74584249,137.80806791,39.5853422,202.07804624,46.55346186,79.78308018,8.65004258,167.94898818,7.67870362,252.11017105-20.01429001,48.39292844-15.92355303,96.45169427-11.78124297,141.67925804-2.33150889,105.44286272,22.03096805,164.52195785,81.14064684,164.52195785,81.14064684" style="fill:none; opacity:.22222222; stroke:url(#uuid-2ddf1a4c-3f8d-4f1c-ac38-ebdca97a4d0f); stroke-miterlimit:10;"/><path d="M.3431698,242.35738744c168.96333038,60.54644271,126.70754475-84.08320127,311.14783401,13.32982538,81.00015085,42.7806196,219.89359183,86.67498609,339.88245224,66.35466,26.93924224-4.5622084,53.06776456-11.91970024,76.59790061-24.19766814,128.29570681-66.94438855,329.42128817-8.58564657,431.87822649,35.13947689,62.2009685,26.39958255,133.67115697,39.52658885,203.17090008,42.3925811,82.65669201,3.40855129,172.05414857-7.0762034,254.74112807-40.12299506,48.7777155-19.49456869,96.96272299-14.83966808,141.27693922-1.51003857,97.90971988,29.45105211,161.30461927,104.41460743,161.30461927,104.41460743" style="fill:none; opacity:.21111111; stroke:url(#uuid-b0425f4b-3067-4fc4-85f5-e978a3f5b7de); stroke-miterlimit:10;"/><path d="M.28304408,222.11181622c172.81531668,87.71419617,121.76403645-79.5519296,314.03911738,30.53109935,102.74958789,58.82710231,299.93608766,124.21990212,415.08376023,56.97904682,128.61489837-75.1050853,332.67335866-10.70295327,430.27938229,34.3999939,125.78328212,58.12342842,309.50501855,49.67732329,461.63583903-22s298.96190106,127,298.96190106,127" style="fill:none; opacity:.2; stroke:url(#uuid-23dbc0b8-52f7-46ae-9071-ecdf07fdcdce); stroke-miterlimit:10;"/><path d="M.3431698,208.16849902c165.46679,69.82844583,147.79000033-82.09172368,336.92093558,17.70812032,108.07591128,57.02905805,335.89622892,136.46556004,455.42480002,68.72334185,131.49943846-74.73264485,320.72747131-18.47751902,411.71358766,26.59148778,118.52387213,58.70954179,287.56149984,54.73559371,434.74774932-14.55838085,147.18624948-69.29397456,281.13280168,96.19861277,281.13280168,96.19861277" style="fill:none; opacity:.19888889; stroke:url(#uuid-6a8b9f07-e044-4818-aeaf-c1f7f350dafc); stroke-miterlimit:10;"/><path d="M.40329553,194.22518196c158.11826339,51.94269566,174.19714529-85.12566238,359.80275357,4.88514142,113.57079098,55.07698975,371.85636984,148.71121783,495.76583941,80.46763677,134.38397852-74.3602044,308.77609907-26.21495606,393.14779321,18.78298174,111.2611465,59.33888374,265.61798133,59.79386409,407.85965987-7.11676176,142.24167854-66.91062585,263.30370248,65.39722583,263.30370248,65.39722583" style="fill:none; opacity:.19777778; stroke:url(#uuid-c7a58646-a825-46e8-bbf3-6056a076aaca); stroke-miterlimit:10;"/><path d="M.46342126,180.2818649c150.76973678,34.05694549,200.91978768-88.63569739,382.68457155-7.93783748,119.22129235,52.9305124,407.81651076,160.95687563,536.10687881,92.21193168,137.26851858-73.98776395,296.81490404-33.90999787,374.58199875,10.9744757,103.98926856,60.01900409,243.67446283,64.85213446,380.97157042,.32485732,137.29710759-64.52727714,245.47460328,34.59583889,245.47460328,34.59583889" style="fill:none; opacity:.19666667; stroke:url(#uuid-5e51ffcb-3bec-424f-bb5a-7b8f411f4642); stroke-miterlimit:10;"/><path d="M.52354698,166.33854783c143.42121016,16.17119532,227.89474951-92.60016314,405.56638954-20.76081639,125.01330233,50.54759428,443.77665168,173.20253343,576.44791821,103.9562266,140.15305863-73.6153235,284.83781992-41.55701961,356.0162043,3.16596966,96.69965155,60.75857882,221.73094432,69.91040484,354.08348096,7.7664764,132.35253664-62.14392843,227.64550407,3.79445195,227.64550407,3.79445195" style="fill:none; opacity:.19555556; stroke:url(#uuid-28b4990c-dbc4-4e5f-8d71-3a232a3d9662); stroke-miterlimit:10;"/><path d="M.58367271,152.39523077c136.07268355-1.71455485,255.06145369-96.99504591,428.44820752-33.58379529,130.93119259,47.88434228,479.7367926,185.44819123,616.7889576,115.70052151,143.03759869-73.24288305,272.83646196-49.15038366,337.45040985-4.64253638,89.37983074,61.56726197,199.78742581,74.96867521,327.19539151,15.20809549,127.4079657-59.76057973,209.81640487-27.00693499,209.81640487-27.00693499" style="fill:none; opacity:.19444444; stroke:url(#uuid-0d00963f-9b3f-47d6-a7bc-e418d6eca94d); stroke-miterlimit:10;"/><path d="M.64379844,138.45191371c128.72415694-19.60030502,282.36173465-101.79492301,451.33002551-46.40677419,136.95733453,44.89489233,515.69693352,197.69384902,657.129997,127.44481643,145.92213875-72.8704426,260.79940368-56.68511122,318.8846154-12.45104242,82.01196067,62.45518614,177.84390731,80.02694559,300.30730206,22.64971457,122.46339475-57.37723102,191.98730567-57.80832193,191.98730567-57.80832193" style="fill:none; opacity:.19333333; stroke:url(#uuid-0c555b39-303d-4a12-ba3e-a3103cbc32ea); stroke-miterlimit:10;"/><path d="M.70392416,124.50859665C122.0795545,87.02254146,310.44339658,17.53500347,474.91576766,65.27884355c143.07147553,41.531484,551.65707444,209.93950682,697.4710364,139.18911134,148.80667881-72.49800215,248.71136811-64.15807671,300.31882095-20.25954847,74.57092917,63.43180801,155.9003888,85.08521596,273.41921261,30.09133365,117.51882381-54.99388231,174.15820646-88.60970887,174.15820646-88.60970887" style="fill:none; opacity:.19222222; stroke:url(#uuid-209c7667-5dfc-4cc9-a06f-48b79c6d5219); stroke-miterlimit:10;"/><path d="M.76404989,110.56527958C114.79115361,55.19347423,337.90419475-1.93915124,497.85771137,38.51254758c149.24999717,37.74481526,587.61721536,222.18516462,737.81207579,150.93340626,151.69121886-72.1255617,236.55249045-71.56998769,281.7530265-28.06805451,67.0222593,64.50361214,133.9568703,90.14348634,246.53112316,37.53295273,112.57425286-52.6105336,156.32910726-119.41109581,156.32910726-119.41109581" style="fill:none; opacity:.19111111; stroke:url(#uuid-dfbeff6f-cb7f-421b-8a1a-5e20d707cdae); stroke-miterlimit:10;"/><path d="M.82417562,96.62196239C107.50275266,23.36440669,365.33455927-21.73853855,520.7996553,11.74625136c155.46509603,33.48478991,623.57735663,234.43082253,778.15311557,162.67770129,154.57575895-71.75312125,224.29801804-78.92843337,263.18723187-35.87656062,59.32039563,65.66998592,112.01335158,95.20175676,219.64303345,44.97457189,107.62968187-50.22718487,138.50000789-150.21248305,138.50000789-150.21248305" style="fill:none; opacity:.19; stroke:#fff; stroke-miterlimit:10;"/><path d="M.76404989,120.28862923C107.44262693,47.03107353,373.59559019-2.29629231,529.06068622,31.1884976c155.46509603,33.48478991,573.24702267,207.33040981,727.82278162,135.57728857,154.57575895-71.75312125,237.65210929-69.74178147,276.54132312-26.68990872,59.32039563,65.66998592,135.14877253,87.99438657,242.7784544,37.7672017,107.62968187-50.22718487,144.13992445-139.75953247,144.13992445-139.75953247" style="fill:none; opacity:.18333333; stroke:#fff; stroke-miterlimit:10;"/><path d="M.70392416,143.95529585C107.3825012,70.69774015,381.85662103,17.14595374,537.32171707,50.63074366c155.46509603,33.48478991,522.91668919,180.22999736,677.49244814,108.47687611,154.57575895-71.75312125,251.00620042-60.55512965,289.89541424-17.5032569,59.32039563,65.66998592,158.28419326,80.78701646,265.91387513,30.55983159,107.62968187-50.22718487,149.77984096-129.30658199,149.77984096-129.30658199" style="fill:none; opacity:.17666667; stroke:#fff; stroke-miterlimit:10;"/><path d="M.64379844,167.62196246C107.32237548,94.36440677,390.11765188,36.5881998,545.58274791,70.07298971c155.46509603,33.48478991,472.58635572,153.1295849,627.16211467,81.37646365,154.57575895-71.75312125,264.36029154-51.36847784,303.24950536-8.31660509,59.32039563,65.66998592,181.41961399,73.57964634,289.04929585,23.35246147,107.62968187-50.22718487,155.41975747-118.85363151,155.41975747-118.85363151" style="fill:none; opacity:.17; stroke:#fff; stroke-miterlimit:10;"/><path d="M.58367271,191.28862908C107.26224975,118.03107338,398.37868272,56.03044585,553.84377875,89.51523577c155.46509603,33.48478991,422.25602225,126.02917244,576.8317812,54.27605119,154.57575895-71.75312125,277.71438266-42.18182602,316.60359648,.87004673,59.32039563,65.66998592,204.55503471,66.37227622,312.18471658,16.14509135,107.62968187-50.22718487,161.05967398-108.40068103,161.05967398-108.40068103" style="fill:none; opacity:.16333333; stroke:#fff; stroke-miterlimit:10;"/><path d="M.52354698,214.9552957C107.20212402,141.69774,406.63971356,75.47269191,562.10480959,108.95748182c155.46509603,33.48478991,371.92568877,98.92875998,526.50144772,27.17563873,154.57575895-71.75312125,291.06847378-32.99517421,329.9576876,10.05669854,59.32039563,65.66998592,227.69045544,59.16490611,335.32013731,8.93772124,107.62968187-50.22718487,166.69959048-97.94773055,166.69959048-97.94773055" style="fill:none; opacity:.15666667; stroke:#fff; stroke-miterlimit:10;"/><path d="M.46342126,238.62196231c106.67857704-73.2575557,414.43732315-143.70702435,569.90241918-110.22223444,155.46509603,33.48478991,321.5953553,71.82834752,476.17111425,.07522627,154.57575895-71.75312125,304.4225649-23.80852239,343.31177872,19.24335036,59.32039563,65.66998592,250.82587617,51.95753599,358.45555804,1.73035112,107.62968187-50.22718487,172.33950699-87.49478007,172.33950699-87.49478007" style="fill:none; opacity:.15; stroke:#fff; stroke-miterlimit:10;"/><path d="M.40329553,262.28862893c106.67857704-73.2575557,422.75847972-147.93144491,578.22357575-114.446655,155.46509603,33.48478991,271.26502182,44.72793506,425.84078077-27.02518618,154.57575895-71.75312125,317.77665602-14.62187058,356.66586984,28.43000217,59.32039563,65.66998592,273.9612969,44.75016587,381.59097876-5.477019,107.62968187-50.22718487,177.9794235-77.04182959,177.9794235-77.04182959" style="fill:none; opacity:.14333333; stroke:#fff; stroke-miterlimit:10;"/><path d="M.3431698,285.95529555c106.67857704-73.2575557,431.07963629-152.15586548,586.54473232-118.67107556,155.46509603,33.48478991,220.93468835,17.6275226,375.5104473-54.12559864,154.57575895-71.75312125,331.13074714-5.43521876,370.01996096,37.61665398,59.32039563,65.66998592,297.09671762,37.54279576,404.72639949-12.68438912,107.62968187-50.22718487,183.61934001-66.58887911,183.61934001-66.58887911" style="fill:none; opacity:.13666667; stroke:#fff; stroke-miterlimit:10;"/><path d="M.28304408,309.62196239c106.67857704-73.2575557,439.40079294-156.38028608,594.86588897-122.89549616,155.46509603,33.48478991,170.60435439-9.47289012,325.18011334-81.22601136,154.57575895-71.75312125,344.48483839,3.75143314,383.37405221,46.80330589,59.32039563,65.66998592,320.23213857,30.33542557,427.86182044-19.8917593s189.25925657-56.13592853,189.25925657-56.13592853" style="fill:none; opacity:.13; stroke:#fff; stroke-miterlimit:10;"/></g></g></g></g></g></svg>