<?xml version="1.0" encoding="utf-8"?>
<!-- Generator: Adobe Illustrator 26.5.0, SVG Export Plug-In . SVG Version: 6.00 Build 0)  -->
<svg version="1.1" id="レイヤー_1" xmlns="http://www.w3.org/2000/svg" xmlns:xlink="http://www.w3.org/1999/xlink" x="0px"
	 y="0px" viewBox="0 0 394.6 120.5" style="enable-background:new 0 0 394.6 120.5;" xml:space="preserve">
<style type="text/css">
	.st0{opacity:0.3;}
	.st1{fill:#FFFFFF;}
</style>
<g>
	<g id="uuid-106309e4-fffe-4694-8f49-bdcbfdf4f938">
		<g id="uuid-e8090b0b-bc3e-4a06-bf25-aba91b543875">
			<g>
				<g class="st0">
					<path class="st1" d="M146.7,50.8h-15.8v36.1c0,1.1-0.8,1.7-1.9,1.7h-1.2c-1.2,0-1.9-0.5-1.9-1.7V50.8h-16.1
						c-1.2,0-1.8-0.7-1.8-1.8v-0.9c-0.1-0.9,0.6-1.7,1.5-1.8c0.1,0,0.2,0,0.3,0h36.9c1.2,0,1.9,0.7,1.9,1.8V49
						c0.1,0.9-0.6,1.8-1.6,1.8C146.9,50.8,146.8,50.8,146.7,50.8z"/>
					<path class="st1" d="M158.2,69.3h-18.5c-1.1,0-1.8-0.8-1.8-2.3c0-1.5,0.7-2.3,1.8-2.3h18.5c1.2,0,1.9,0.8,1.9,2.3
						C160.1,68.6,159.4,69.3,158.2,69.3z"/>
					<path class="st1" d="M201.4,88.5h-19.1c-10.5,0-15.5-4.7-15.5-14.6v-26c0-1.1,0.7-1.7,1.9-1.7h1.2c1.2,0,1.9,0.6,1.9,1.7v25.9
						c0,7.4,3.2,10.2,10.3,10.2h19.2c1.3,0,1.9,0.7,1.9,1.8v0.9C203.3,87.8,202.6,88.5,201.4,88.5L201.4,88.5z"/>
					<path class="st1" d="M213.5,88.5h-1.2c-1.3,0-1.9-0.6-1.9-1.7V47.9c0-1,0.7-1.7,1.9-1.7h1.3c1.2,0,1.9,0.7,1.9,1.7v38.9
						C215.4,87.9,214.7,88.5,213.5,88.5z"/>
					<path class="st1" d="M255.4,88.6c-3.2,0-5.1-1.1-6.3-3.7l-15.5-31.1c-0.7-1.1-1.2-1.8-2.4-1.8c-1.4,0-1.9,0.5-1.9,2.2v32.7
						c0,1.1-0.7,1.7-1.9,1.7h-1.1c-1.2,0-1.9-0.6-1.9-1.7V52.5c0-4.2,2.3-6.2,6.1-6.2c3.4,0,5.6,1.8,6.7,4.1l15.5,31.3
						c0.4,0.7,1.1,1.2,1.9,1.3c1.3,0,2.1-0.5,2.1-2.2V48c0-1.1,0.7-1.7,1.9-1.7h1.1c1.2,0,2,0.6,2,1.7v34.7
						C261.5,86.7,259,88.6,255.4,88.6z"/>
					<path class="st1" d="M275.1,88.5h-1.2c-1.3,0-1.9-0.6-1.9-1.7V47.9c0-1,0.7-1.7,1.9-1.7h1.3c1.2,0,1.9,0.7,1.9,1.7v38.9
						C277,87.9,276.3,88.5,275.1,88.5z"/>
					<path class="st1" d="M322.8,50.8h-15.7v36.1c0,1.1-0.8,1.7-1.9,1.7H304c-1.2,0-1.9-0.5-1.9-1.7V50.8h-16.2
						c-1.2,0-1.8-0.7-1.8-1.8v-0.9c-0.1-0.9,0.6-1.7,1.5-1.8c0.1,0,0.2,0,0.3,0h36.9c1.2,0,1.9,0.7,1.9,1.8V49
						c0.1,0.9-0.6,1.8-1.6,1.8C323,50.8,322.9,50.8,322.8,50.8L322.8,50.8z"/>
					<path class="st1" d="M350.5,75.1v12c0,1.1-0.8,1.7-1.9,1.7h-1.2c-1.2,0-1.9-0.6-1.9-1.7v-12c-12-0.2-16.3-6.5-16.3-14.9V47.9
						c0-1.1,0.7-1.7,1.9-1.7h1.1c1.2,0,1.9,0.6,1.9,1.7v12.2c0,6.7,3.6,10.4,12,10.4h4c8.7,0,12.1-3.8,12.1-10.4V47.9
						c0-1.1,0.8-1.7,1.9-1.7h1.1c1.2,0,2,0.6,2,1.7v12.2C367.1,68.6,362.7,74.9,350.5,75.1z"/>
					<path class="st1" d="M59.9,23.9c-5.6,0-10.2,4.5-10.2,10.2c0,0.8,0.1,1.6,0.3,2.4c2.4-2.3,6.2-2.2,8.5,0.3
						c1.9,2.1,2.2,5.2,0.6,7.6c0.3,0,0.6,0,0.9,0c5.7,0.1,10.3-4.4,10.5-10c0.1-5.7-4.4-10.3-10-10.5C60.2,23.9,60.1,23.9,59.9,23.9
						C59.9,23.9,59.9,23.9,59.9,23.9z"/>
					<path class="st1" d="M54.1,36c-1.4,0-2.8,0.6-3.7,1.7c-2.6,4.4-4.3,9.2-4.9,14.2c3.1-1.7,6-3,10.9-4.8c0.6-1.6,1.3-3.1,2.2-4.6
						l0.2-0.2c0.1-0.5,0.2-0.9,0.2-1.4C59,38.2,56.8,36,54.1,36z"/>
					<path class="st1" d="M87.1,54.6L87.1,54.6c-0.5-6.5-2.4-12.4-5.4-17.2c-3.2-5-7.3-8.2-11.9-9.3c2,3.3,2.2,7.3,0.7,10.8
						c1.2,1,2.3,2.2,3.1,3.6c1.2,1.9,2.1,4,2.7,6.2l0,0c1.5,5.8,1.9,8.7,0.9,14.8c-0.1,0.5-0.1,0.9-0.2,1.4v0l0,0
						c-0.2,1-0.4,2-0.7,2.9l0,0c-0.4,1.3-0.9,2.5-1.4,3.7l0,0c-1.2,2.3-2.8,4.4-4.8,6.2l0,0c-0.5,0.5-1,1-1.5,1.4
						c3.1,2.3,5.4,3.1,9.6,4.3c1.4-1.4,2.5-2.9,3.6-4.5c0.6-1,1.2-2.1,1.8-3.2c0.1-0.1,0.1-0.3,0.2-0.4c0.1-0.1,0.1-0.2,0.1-0.3
						c0-0.1,0.1-0.3,0.2-0.5c0-0.1,0.1-0.1,0.1-0.2c0.1-0.2,0.2-0.5,0.3-0.7l0-0.1c0.1-0.2,0.2-0.4,0.2-0.6c0-0.1,0.1-0.2,0.1-0.2
						c0-0.1,0.1-0.3,0.2-0.4c0-0.1,0.1-0.2,0.1-0.3l0.1-0.4l0.1-0.3c0-0.1,0.1-0.3,0.1-0.4c0-0.1,0.1-0.2,0.1-0.3l0.1-0.3
						c0-0.1,0.1-0.3,0.1-0.4c0-0.1,0.1-0.2,0.1-0.3c0-0.1,0.1-0.2,0.1-0.4C87,62.7,87.2,59.8,87.1,54.6z"/>
					<path class="st1" d="M110.5,79.7c0-5.7-4.6-10.2-10.2-10.3S90,74,90,79.7c0,1.4,0.3,2.9,0.9,4.2c2-2.7,5.8-3.2,8.5-1.2
						c2.2,1.7,3,4.6,1.9,7.2C106.5,89.4,110.5,85,110.5,79.7z"/>
					<path class="st1" d="M99.5,68.1c-2.4-3.9-5.5-7.3-9.1-10c-0.1,3.6-0.4,6.7-1.3,11.9c0.7,0.9,1.4,1.8,2,2.7
						C93,70,96.1,68.3,99.5,68.1z"/>
					<path class="st1" d="M95.7,82.6c-1.1,0-2.2,0.4-3,1c-1.2,1.9-3.6,3.1-6.8,3.5c-0.2,0-0.5,0.1-0.7,0.1s-0.5,0-0.8,0
						c-2.2,0.1-4.4-0.2-6.5-0.7v0c-5.6-1.5-8.3-2.6-12.9-6.2c-1.4-1.1-2.8-2.3-4-3.6l0,0c-0.9-1-1.8-2.1-2.6-3.2
						c-1.3-2.1-2.3-4.5-2.9-6.9c-0.2-0.7-0.4-1.5-0.5-2.2c-3.5,1.6-5.3,3.1-8.5,6.2c0.5,1.8,1.2,3.6,2.1,5.3c0.5,1,1.1,1.9,1.7,2.9
						l0,0c0.1,0.2,0.3,0.4,0.4,0.7l0.1,0.2l0.3,0.4c0.1,0.1,0.1,0.2,0.2,0.2l0.3,0.4l0.2,0.2c0.1,0.1,0.2,0.2,0.3,0.3l0.2,0.3
						l0.3,0.3c0.1,0.1,0.1,0.2,0.2,0.2l0.3,0.3c0.1,0.1,0.2,0.2,0.2,0.2s0.2,0.2,0.3,0.3l0.2,0.2c0.1,0.1,0.2,0.2,0.2,0.2
						c0.1,0.1,0.2,0.2,0.3,0.3l0.3,0.3c0.1,0.1,0.2,0.2,0.3,0.3c5,4.2,7.5,5.9,12,8.4l0,0c5.5,2.6,11.2,4,16.5,4c0.4,0,0.8,0,1.2,0
						c6.6-0.3,11.9-2.7,15.1-7c1.3-2.4,0.5-5.3-1.9-6.7C97.4,82.8,96.5,82.6,95.7,82.6C95.7,82.6,95.7,82.6,95.7,82.6z"/>
					<path class="st1" d="M41.5,92.1c0-3.2,2.5-5.8,5.6-6c-2.3-5.2-8.3-7.6-13.5-5.3c-5.2,2.3-7.6,8.3-5.3,13.5
						c2.3,5.2,8.3,7.6,13.5,5.3c1.1-0.5,2.2-1.2,3-2C42.8,96.5,41.5,94.4,41.5,92.1z"/>
					<path class="st1" d="M73.4,49.8c-1.8-0.5-3.7-0.8-5.6-0.8c-1.8-0.1-3.7,0-5.5,0.3l-0.4,0.1h-0.2c-0.2,0-0.4,0.1-0.6,0.1l0,0
						l-0.6,0.1l-0.2,0L60,49.6l-0.3,0.1l-0.2,0L59,49.8l-0.2,0l-0.4,0.1l-0.2,0c-0.1,0-0.3,0.1-0.4,0.1l-0.2,0l-0.5,0.1l-0.1,0
						l-0.5,0.1h-0.1l-0.1,0c-5.2,1.9-7.8,3.2-11.6,5.4c-5.7,3.7-10.3,8.6-13,13.8c-2.3,4.3-3.1,8.7-2.6,12.6
						c2.2-2.4,5.3-3.8,8.6-3.8c0.3,0,0.6,0,1,0c0.3-1.5,0.8-3,1.5-4.4c1.1-2,2.4-3.8,4-5.5l0,0l0.4-0.4l0.3-0.3l0.5-0.5
						c3.4-3.2,5.8-4.8,10.1-6.5c2-0.8,4.1-1.5,6.2-1.9l0,0c0.5-0.1,1-0.2,1.4-0.2s1-0.1,1.4-0.1h0.9c2.4,0,4.8,0.4,7.1,1.1
						c0.6,0.2,1.2,0.4,1.8,0.6C74.9,56.5,74.5,54.1,73.4,49.8z"/>
					<path class="st1" d="M48.6,87.2h-1.1c-2.7,0-4.9,2.2-4.9,4.9c0,2,1.2,3.8,3.1,4.6l0,0c0.6,0.1,1.1,0.1,1.7,0.1
						c0.4,0,0.8,0,1.2,0c4.8-0.1,9.5-1.1,13.9-2.9c-3.1-1.9-5.6-3.7-9.6-7.1C51.5,87.1,50.1,87.3,48.6,87.2z"/>
				</g>
				<g class="st0">
					<path class="st1" d="M146.7,48.9h-15.8V85c0,1.1-0.8,1.7-1.9,1.7h-1.2c-1.2,0-1.9-0.5-1.9-1.7V48.9h-16.1
						c-1.2,0-1.8-0.7-1.8-1.8v-0.9c-0.1-0.9,0.6-1.7,1.5-1.8c0.1,0,0.2,0,0.3,0h36.9c1.2,0,1.9,0.7,1.9,1.8V47
						c0.1,0.9-0.6,1.8-1.6,1.8C146.9,48.9,146.8,48.9,146.7,48.9z"/>
					<path class="st1" d="M158.2,67.4h-18.5c-1.1,0-1.8-0.8-1.8-2.3c0-1.5,0.7-2.3,1.8-2.3h18.5c1.2,0,1.9,0.8,1.9,2.3
						C160.1,66.6,159.4,67.4,158.2,67.4z"/>
					<path class="st1" d="M201.4,86.6h-19.1c-10.5,0-15.5-4.7-15.5-14.6V46c0-1.1,0.7-1.7,1.9-1.7h1.2c1.2,0,1.9,0.6,1.9,1.7v25.9
						c0,7.4,3.2,10.2,10.3,10.2h19.2c1.3,0,1.9,0.7,1.9,1.8v0.9C203.3,85.9,202.6,86.6,201.4,86.6L201.4,86.6z"/>
					<path class="st1" d="M213.5,86.6h-1.2c-1.3,0-1.9-0.6-1.9-1.7V46c0-1,0.7-1.7,1.9-1.7h1.3c1.2,0,1.9,0.7,1.9,1.7v38.9
						C215.4,86,214.7,86.6,213.5,86.6z"/>
					<path class="st1" d="M255.4,86.6c-3.2,0-5.1-1.1-6.3-3.7l-15.5-31.1c-0.7-1.1-1.2-1.8-2.4-1.8c-1.4,0-1.9,0.5-1.9,2.2v32.7
						c0,1.1-0.7,1.7-1.9,1.7h-1.1c-1.2,0-1.9-0.6-1.9-1.7V50.6c0-4.2,2.3-6.2,6.1-6.2c3.4,0,5.6,1.8,6.7,4.1l15.5,31.3
						c0.4,0.7,1.1,1.2,1.9,1.3c1.3,0,2.1-0.5,2.1-2.2V46.1c0-1.1,0.7-1.7,1.9-1.7h1.1c1.2,0,2,0.6,2,1.7v34.7
						C261.5,84.8,259,86.6,255.4,86.6z"/>
					<path class="st1" d="M275.1,86.6h-1.2c-1.3,0-1.9-0.6-1.9-1.7V46c0-1,0.7-1.7,1.9-1.7h1.3c1.2,0,1.9,0.7,1.9,1.7v38.9
						C277,86,276.3,86.6,275.1,86.6z"/>
					<path class="st1" d="M322.8,48.9h-15.7V85c0,1.1-0.8,1.7-1.9,1.7H304c-1.2,0-1.9-0.5-1.9-1.7V48.9h-16.2
						c-1.2,0-1.8-0.7-1.8-1.8v-0.9c-0.1-0.9,0.6-1.7,1.5-1.8c0.1,0,0.2,0,0.3,0h36.9c1.2,0,1.9,0.7,1.9,1.8V47
						c0.1,0.9-0.6,1.8-1.6,1.8C323,48.9,322.9,48.9,322.8,48.9L322.8,48.9z"/>
					<path class="st1" d="M350.5,73.1v12c0,1.1-0.8,1.7-1.9,1.7h-1.2c-1.2,0-1.9-0.6-1.9-1.7v-12c-12-0.2-16.3-6.5-16.3-14.9V46
						c0-1.1,0.7-1.7,1.9-1.7h1.1c1.2,0,1.9,0.6,1.9,1.7v12.2c0,6.7,3.6,10.4,12,10.4h4c8.7,0,12.1-3.8,12.1-10.4V46
						c0-1.1,0.8-1.7,1.9-1.7h1.1c1.2,0,2,0.6,2,1.7v12.2C367.1,66.7,362.7,73,350.5,73.1z"/>
					<path class="st1" d="M59.9,21.9c-5.6,0-10.2,4.5-10.2,10.2c0,0.8,0.1,1.6,0.3,2.4c2.4-2.3,6.2-2.2,8.5,0.3
						c1.9,2.1,2.2,5.2,0.6,7.6c0.3,0,0.6,0,0.9,0c5.7,0.1,10.3-4.4,10.5-10c0.1-5.7-4.4-10.3-10-10.5C60.2,21.9,60.1,21.9,59.9,21.9
						C59.9,21.9,59.9,21.9,59.9,21.9z"/>
					<path class="st1" d="M54.1,34c-1.4,0-2.8,0.6-3.7,1.7c-2.6,4.4-4.3,9.2-4.9,14.2c3.1-1.7,6-3,10.9-4.8c0.6-1.6,1.3-3.1,2.2-4.6
						l0.2-0.2c0.1-0.5,0.2-0.9,0.2-1.4C59,36.2,56.8,34,54.1,34z"/>
					<path class="st1" d="M87.1,52.7L87.1,52.7c-0.5-6.5-2.4-12.4-5.4-17.2c-3.2-5-7.3-8.2-11.9-9.3c2,3.3,2.2,7.3,0.7,10.8
						c1.2,1,2.3,2.2,3.1,3.6c1.2,1.9,2.1,4,2.7,6.2l0,0c1.5,5.8,1.9,8.7,0.9,14.8c-0.1,0.5-0.1,0.9-0.2,1.4v0l0,0
						c-0.2,1-0.4,2-0.7,2.9l0,0c-0.4,1.3-0.9,2.5-1.4,3.7l0,0c-1.2,2.3-2.8,4.4-4.8,6.2l0,0c-0.5,0.5-1,1-1.5,1.4
						c3.1,2.3,5.4,3.1,9.6,4.3c1.4-1.4,2.5-2.9,3.6-4.5c0.6-1,1.2-2.1,1.8-3.2c0.1-0.1,0.1-0.3,0.2-0.4c0.1-0.1,0.1-0.2,0.1-0.3
						c0-0.1,0.1-0.3,0.2-0.5c0-0.1,0.1-0.1,0.1-0.2c0.1-0.2,0.2-0.5,0.3-0.7l0-0.1c0.1-0.2,0.2-0.4,0.2-0.6c0-0.1,0.1-0.2,0.1-0.2
						c0-0.1,0.1-0.3,0.2-0.4c0-0.1,0.1-0.2,0.1-0.3l0.1-0.4l0.1-0.3c0-0.1,0.1-0.3,0.1-0.4c0-0.1,0.1-0.2,0.1-0.3l0.1-0.3
						c0-0.1,0.1-0.3,0.1-0.4c0-0.1,0.1-0.2,0.1-0.3c0-0.1,0.1-0.2,0.1-0.4C87,60.8,87.2,57.9,87.1,52.7z"/>
					<path class="st1" d="M110.5,77.8c0-5.7-4.6-10.2-10.2-10.3S90,72.1,90,77.8c0,1.4,0.3,2.9,0.9,4.2c2-2.7,5.8-3.2,8.5-1.2
						c2.2,1.7,3,4.6,1.9,7.2C106.5,87.5,110.5,83.1,110.5,77.8z"/>
					<path class="st1" d="M99.5,66.2c-2.4-3.9-5.5-7.3-9.1-10c-0.1,3.6-0.4,6.7-1.3,11.9c0.7,0.9,1.4,1.8,2,2.7
						C93,68.1,96.1,66.4,99.5,66.2z"/>
					<path class="st1" d="M95.7,80.7c-1.1,0-2.2,0.4-3,1c-1.2,1.9-3.6,3.1-6.8,3.5c-0.2,0-0.5,0.1-0.7,0.1s-0.5,0-0.8,0
						c-2.2,0.1-4.4-0.2-6.5-0.7v0c-5.6-1.5-8.3-2.6-12.9-6.2c-1.4-1.1-2.8-2.3-4-3.6l0,0c-0.9-1-1.8-2.1-2.6-3.2
						c-1.3-2.1-2.3-4.5-2.9-6.9c-0.2-0.7-0.4-1.5-0.5-2.2c-3.5,1.6-5.3,3.1-8.5,6.2c0.5,1.8,1.2,3.6,2.1,5.3c0.5,1,1.1,1.9,1.7,2.9
						l0,0c0.1,0.2,0.3,0.4,0.4,0.7l0.1,0.2l0.3,0.4c0.1,0.1,0.1,0.2,0.2,0.2l0.3,0.4l0.2,0.2c0.1,0.1,0.2,0.2,0.3,0.3l0.2,0.3
						l0.3,0.3c0.1,0.1,0.1,0.2,0.2,0.2l0.3,0.3c0.1,0.1,0.2,0.2,0.2,0.2s0.2,0.2,0.3,0.3l0.2,0.2c0.1,0.1,0.2,0.2,0.2,0.2
						c0.1,0.1,0.2,0.2,0.3,0.3l0.3,0.3c0.1,0.1,0.2,0.2,0.3,0.3c5,4.2,7.5,5.9,12,8.4l0,0c5.5,2.6,11.2,4,16.5,4c0.4,0,0.8,0,1.2,0
						c6.6-0.3,11.9-2.7,15.1-7c1.3-2.4,0.5-5.3-1.9-6.7C97.4,80.9,96.5,80.7,95.7,80.7C95.7,80.7,95.7,80.7,95.7,80.7z"/>
					<path class="st1" d="M41.5,90.2c0-3.2,2.5-5.8,5.6-6c-2.3-5.2-8.3-7.6-13.5-5.3c-5.2,2.3-7.6,8.3-5.3,13.5
						c2.3,5.2,8.3,7.6,13.5,5.3c1.1-0.5,2.2-1.2,3-2C42.8,94.6,41.5,92.5,41.5,90.2z"/>
					<path class="st1" d="M73.4,47.9c-1.8-0.5-3.7-0.8-5.6-0.8c-1.8-0.1-3.7,0-5.5,0.3l-0.4,0.1h-0.2c-0.2,0-0.4,0.1-0.6,0.1l0,0
						l-0.6,0.1l-0.2,0L60,47.7l-0.3,0.1l-0.2,0L59,47.9l-0.2,0L58.4,48l-0.2,0c-0.1,0-0.3,0.1-0.4,0.1l-0.2,0l-0.5,0.1l-0.1,0
						l-0.5,0.1h-0.1l-0.1,0c-5.2,1.9-7.8,3.2-11.6,5.4c-5.7,3.7-10.3,8.6-13,13.8c-2.3,4.3-3.1,8.7-2.6,12.6
						c2.2-2.4,5.3-3.8,8.6-3.8c0.3,0,0.6,0,1,0c0.3-1.5,0.8-3,1.5-4.4c1.1-2,2.4-3.8,4-5.5l0,0l0.4-0.4l0.3-0.3l0.5-0.5
						c3.4-3.2,5.8-4.8,10.1-6.5c2-0.8,4.1-1.5,6.2-1.9l0,0c0.5-0.1,1-0.2,1.4-0.2s1-0.1,1.4-0.1h0.9c2.4,0,4.8,0.4,7.1,1.1
						c0.6,0.2,1.2,0.4,1.8,0.6C74.9,54.6,74.5,52.1,73.4,47.9z"/>
					<path class="st1" d="M48.6,85.3h-1.1c-2.7,0-4.9,2.2-4.9,4.9c0,2,1.2,3.8,3.1,4.6l0,0c0.6,0.1,1.1,0.1,1.7,0.1
						c0.4,0,0.8,0,1.2,0c4.8-0.1,9.5-1.1,13.9-2.9c-3.1-1.9-5.6-3.7-9.6-7.1C51.5,85.2,50.1,85.3,48.6,85.3z"/>
				</g>
				<g>
					<path class="st1" d="M146.7,46.9h-15.8v36.1c0,1.1-0.8,1.7-1.9,1.7h-1.2c-1.2,0-1.9-0.5-1.9-1.7V46.9h-16.1
						c-1.2,0-1.8-0.7-1.8-1.8v-0.9c-0.1-0.9,0.6-1.7,1.5-1.8c0.1,0,0.2,0,0.3,0h36.9c1.2,0,1.9,0.7,1.9,1.8v0.9
						c0.1,0.9-0.6,1.8-1.6,1.8C146.9,47,146.8,47,146.7,46.9z"/>
					<path class="st1" d="M158.2,65.5h-18.5c-1.1,0-1.8-0.8-1.8-2.3c0-1.5,0.7-2.3,1.8-2.3h18.5c1.2,0,1.9,0.8,1.9,2.3
						C160.1,64.7,159.4,65.5,158.2,65.5z"/>
					<path class="st1" d="M201.4,84.7h-19.1c-10.5,0-15.5-4.7-15.5-14.6v-26c0-1.1,0.7-1.7,1.9-1.7h1.2c1.2,0,1.9,0.6,1.9,1.7v25.9
						c0,7.4,3.2,10.2,10.3,10.2h19.2c1.3,0,1.9,0.7,1.9,1.8v0.9C203.3,83.9,202.6,84.7,201.4,84.7L201.4,84.7z"/>
					<path class="st1" d="M213.5,84.7h-1.2c-1.3,0-1.9-0.6-1.9-1.7V44.1c0-1,0.7-1.7,1.9-1.7h1.3c1.2,0,1.9,0.7,1.9,1.7V83
						C215.4,84.1,214.7,84.7,213.5,84.7z"/>
					<path class="st1" d="M255.4,84.7c-3.2,0-5.1-1.1-6.3-3.7l-15.5-31.1c-0.7-1.1-1.2-1.8-2.4-1.8c-1.4,0-1.9,0.5-1.9,2.2V83
						c0,1.1-0.7,1.7-1.9,1.7h-1.1c-1.2,0-1.9-0.6-1.9-1.7V48.7c0-4.2,2.3-6.2,6.1-6.2c3.4,0,5.6,1.8,6.7,4.1l15.5,31.3
						c0.4,0.7,1.1,1.2,1.9,1.3c1.3,0,2.1-0.5,2.1-2.2V44.1c0-1.1,0.7-1.7,1.9-1.7h1.1c1.2,0,2,0.6,2,1.7v34.7
						C261.5,82.9,259,84.7,255.4,84.7z"/>
					<path class="st1" d="M275.1,84.7h-1.2c-1.3,0-1.9-0.6-1.9-1.7V44.1c0-1,0.7-1.7,1.9-1.7h1.3c1.2,0,1.9,0.7,1.9,1.7V83
						C277,84.1,276.3,84.7,275.1,84.7z"/>
					<path class="st1" d="M322.8,46.9h-15.7v36.1c0,1.1-0.8,1.7-1.9,1.7H304c-1.2,0-1.9-0.5-1.9-1.7V46.9h-16.2
						c-1.2,0-1.8-0.7-1.8-1.8v-0.9c-0.1-0.9,0.6-1.7,1.5-1.8c0.1,0,0.2,0,0.3,0h36.9c1.2,0,1.9,0.7,1.9,1.8v0.9
						c0.1,0.9-0.6,1.8-1.6,1.8C323,47,322.9,47,322.8,46.9L322.8,46.9z"/>
					<path class="st1" d="M350.5,71.2v12c0,1.1-0.8,1.7-1.9,1.7h-1.2c-1.2,0-1.9-0.6-1.9-1.7v-12c-12-0.2-16.3-6.5-16.3-14.9V44.1
						c0-1.1,0.7-1.7,1.9-1.7h1.1c1.2,0,1.9,0.6,1.9,1.7v12.2c0,6.7,3.6,10.4,12,10.4h4c8.7,0,12.1-3.8,12.1-10.4V44.1
						c0-1.1,0.8-1.7,1.9-1.7h1.1c1.2,0,2,0.6,2,1.7v12.2C367.1,64.8,362.7,71.1,350.5,71.2z"/>
					<path class="st1" d="M59.9,20c-5.6,0-10.2,4.5-10.2,10.2c0,0.8,0.1,1.6,0.3,2.4c2.4-2.3,6.2-2.2,8.5,0.3
						c1.9,2.1,2.2,5.2,0.6,7.6c0.3,0,0.6,0,0.9,0c5.7,0.1,10.3-4.4,10.5-10c0.1-5.7-4.4-10.3-10-10.5C60.2,20,60.1,20,59.9,20
						C59.9,20,59.9,20,59.9,20z"/>
					<path class="st1" d="M54.1,32.1c-1.4,0-2.8,0.6-3.7,1.7c-2.6,4.4-4.3,9.2-4.9,14.2c3.1-1.7,6-3,10.9-4.8
						c0.6-1.6,1.3-3.1,2.2-4.6l0.2-0.2C58.9,38,59,37.5,59,37C59,34.3,56.8,32.1,54.1,32.1z"/>
					<path class="st1" d="M87.1,50.7L87.1,50.7c-0.5-6.5-2.4-12.4-5.4-17.2c-3.2-5-7.3-8.2-11.9-9.3c2,3.3,2.2,7.3,0.7,10.8
						c1.2,1,2.3,2.2,3.1,3.6c1.2,1.9,2.1,4,2.7,6.2l0,0c1.5,5.8,1.9,8.7,0.9,14.8c-0.1,0.5-0.1,0.9-0.2,1.4v0l0,0
						c-0.2,1-0.4,2-0.7,2.9l0,0c-0.4,1.3-0.9,2.5-1.4,3.7l0,0c-1.2,2.3-2.8,4.4-4.8,6.2l0,0c-0.5,0.5-1,1-1.5,1.4
						c3.1,2.3,5.4,3.1,9.6,4.3c1.4-1.4,2.5-2.9,3.6-4.5c0.6-1,1.2-2.1,1.8-3.2c0.1-0.1,0.1-0.3,0.2-0.4c0.1-0.1,0.1-0.2,0.1-0.3
						c0-0.1,0.1-0.3,0.2-0.5c0-0.1,0.1-0.1,0.1-0.2c0.1-0.2,0.2-0.5,0.3-0.7l0-0.1c0.1-0.2,0.2-0.4,0.2-0.6c0-0.1,0.1-0.2,0.1-0.2
						c0-0.1,0.1-0.3,0.2-0.4c0-0.1,0.1-0.2,0.1-0.3l0.1-0.4l0.1-0.3c0-0.1,0.1-0.3,0.1-0.4c0-0.1,0.1-0.2,0.1-0.3l0.1-0.3
						c0-0.1,0.1-0.3,0.1-0.4c0-0.1,0.1-0.2,0.1-0.3c0-0.1,0.1-0.2,0.1-0.4C87,58.9,87.2,56,87.1,50.7z"/>
					<path class="st1" d="M110.5,75.9c0-5.7-4.6-10.2-10.2-10.3S90,70.2,90,75.9c0,1.4,0.3,2.9,0.9,4.2c2-2.7,5.8-3.2,8.5-1.2
						c2.2,1.7,3,4.6,1.9,7.2C106.5,85.6,110.5,81.2,110.5,75.9z"/>
					<path class="st1" d="M99.5,64.3c-2.4-3.9-5.5-7.3-9.1-10c-0.1,3.6-0.4,6.7-1.3,11.9c0.7,0.9,1.4,1.8,2,2.7
						C93,66.2,96.1,64.5,99.5,64.3z"/>
					<path class="st1" d="M95.7,78.8c-1.1,0-2.2,0.4-3,1c-1.2,1.9-3.6,3.1-6.8,3.5c-0.2,0-0.5,0.1-0.7,0.1c-0.2,0-0.5,0-0.8,0
						c-2.2,0.1-4.4-0.2-6.5-0.7v0c-5.6-1.5-8.3-2.6-12.9-6.2c-1.4-1.1-2.8-2.3-4-3.6l0,0c-0.9-1-1.8-2.1-2.6-3.2
						c-1.3-2.1-2.3-4.5-2.9-6.9c-0.2-0.7-0.4-1.5-0.5-2.2c-3.5,1.6-5.3,3.1-8.5,6.2c0.5,1.8,1.2,3.6,2.1,5.3c0.5,1,1.1,1.9,1.7,2.9
						l0,0c0.1,0.2,0.3,0.4,0.4,0.7l0.1,0.2l0.3,0.4c0.1,0.1,0.1,0.2,0.2,0.2l0.3,0.4l0.2,0.2c0.1,0.1,0.2,0.2,0.3,0.3l0.2,0.3
						l0.3,0.3c0.1,0.1,0.1,0.2,0.2,0.2l0.3,0.3c0.1,0.1,0.2,0.2,0.2,0.2s0.2,0.2,0.3,0.3l0.2,0.2c0.1,0.1,0.2,0.2,0.2,0.2
						c0.1,0.1,0.2,0.2,0.3,0.3l0.3,0.3c0.1,0.1,0.2,0.2,0.3,0.3c5,4.2,7.5,5.9,12,8.4l0,0c5.5,2.6,11.2,4,16.5,4c0.4,0,0.8,0,1.2,0
						c6.6-0.3,11.9-2.7,15.1-7c1.3-2.4,0.5-5.3-1.9-6.7C97.4,79,96.5,78.7,95.7,78.8C95.7,78.8,95.7,78.8,95.7,78.8z"/>
					<path class="st1" d="M41.5,88.3c0-3.2,2.5-5.8,5.6-6c-2.3-5.2-8.3-7.6-13.5-5.3c-5.2,2.3-7.6,8.3-5.3,13.5s8.3,7.6,13.5,5.3
						c1.1-0.5,2.2-1.2,3-2C42.8,92.7,41.5,90.6,41.5,88.3z"/>
					<path class="st1" d="M73.4,46c-1.8-0.5-3.7-0.8-5.6-0.8c-1.8-0.1-3.7,0-5.5,0.3l-0.4,0.1h-0.2c-0.2,0-0.4,0.1-0.6,0.1l0,0
						l-0.6,0.1l-0.2,0L60,45.8l-0.3,0.1l-0.2,0L59,45.9l-0.2,0l-0.4,0.1l-0.2,0c-0.1,0-0.3,0.1-0.4,0.1l-0.2,0l-0.5,0.1l-0.1,0
						l-0.5,0.1h-0.1l-0.1,0c-5.2,1.9-7.8,3.2-11.6,5.4c-5.7,3.7-10.3,8.6-13,13.8c-2.3,4.3-3.1,8.7-2.6,12.6
						c2.2-2.4,5.3-3.8,8.6-3.8c0.3,0,0.6,0,1,0c0.3-1.5,0.8-3,1.5-4.4c1.1-2,2.4-3.8,4-5.5l0,0l0.4-0.4l0.3-0.3l0.5-0.5
						c3.4-3.2,5.8-4.8,10.1-6.5c2-0.8,4.1-1.5,6.2-1.9l0,0c0.5-0.1,1-0.2,1.4-0.2s1-0.1,1.4-0.1h0.9c2.4,0,4.8,0.4,7.1,1.1
						c0.6,0.2,1.2,0.4,1.8,0.6C74.9,52.7,74.5,50.2,73.4,46z"/>
					<path class="st1" d="M48.6,83.4h-1.1c-2.7,0-4.9,2.2-4.9,4.9c0,2,1.2,3.8,3.1,4.6l0,0c0.6,0.1,1.1,0.1,1.7,0.1
						c0.4,0,0.8,0,1.2,0c4.8-0.1,9.5-1.1,13.9-2.9C59.5,88.2,57,86.4,53,83C51.5,83.3,50.1,83.4,48.6,83.4z"/>
				</g>
				<g>
					<path class="st1" d="M146.7,46.9h-15.8v36.1c0,1.1-0.8,1.7-1.9,1.7h-1.2c-1.2,0-1.9-0.5-1.9-1.7V46.9h-16.1
						c-1.2,0-1.8-0.7-1.8-1.8v-0.9c-0.1-0.9,0.6-1.7,1.5-1.8c0.1,0,0.2,0,0.3,0h36.9c1.2,0,1.9,0.7,1.9,1.8v0.9
						c0.1,0.9-0.6,1.8-1.6,1.8C146.9,47,146.8,47,146.7,46.9z"/>
					<path class="st1" d="M158.2,65.5h-18.5c-1.1,0-1.8-0.8-1.8-2.3c0-1.5,0.7-2.3,1.8-2.3h18.5c1.2,0,1.9,0.8,1.9,2.3
						C160.1,64.7,159.4,65.5,158.2,65.5z"/>
					<path class="st1" d="M201.4,84.7h-19.1c-10.5,0-15.5-4.7-15.5-14.6v-26c0-1.1,0.7-1.7,1.9-1.7h1.2c1.2,0,1.9,0.6,1.9,1.7v25.9
						c0,7.4,3.2,10.2,10.3,10.2h19.2c1.3,0,1.9,0.7,1.9,1.8v0.9C203.3,83.9,202.6,84.7,201.4,84.7L201.4,84.7z"/>
					<path class="st1" d="M213.5,84.7h-1.2c-1.3,0-1.9-0.6-1.9-1.7V44.1c0-1,0.7-1.7,1.9-1.7h1.3c1.2,0,1.9,0.7,1.9,1.7V83
						C215.4,84.1,214.7,84.7,213.5,84.7z"/>
					<path class="st1" d="M255.4,84.7c-3.2,0-5.1-1.1-6.3-3.7l-15.5-31.1c-0.7-1.1-1.2-1.8-2.4-1.8c-1.4,0-1.9,0.5-1.9,2.2V83
						c0,1.1-0.7,1.7-1.9,1.7h-1.1c-1.2,0-1.9-0.6-1.9-1.7V48.7c0-4.2,2.3-6.2,6.1-6.2c3.4,0,5.6,1.8,6.7,4.1l15.5,31.3
						c0.4,0.7,1.1,1.2,1.9,1.3c1.3,0,2.1-0.5,2.1-2.2V44.1c0-1.1,0.7-1.7,1.9-1.7h1.1c1.2,0,2,0.6,2,1.7v34.7
						C261.5,82.9,259,84.7,255.4,84.7z"/>
					<path class="st1" d="M275.1,84.7h-1.2c-1.3,0-1.9-0.6-1.9-1.7V44.1c0-1,0.7-1.7,1.9-1.7h1.3c1.2,0,1.9,0.7,1.9,1.7V83
						C277,84.1,276.3,84.7,275.1,84.7z"/>
					<path class="st1" d="M322.8,46.9h-15.7v36.1c0,1.1-0.8,1.7-1.9,1.7H304c-1.2,0-1.9-0.5-1.9-1.7V46.9h-16.2
						c-1.2,0-1.8-0.7-1.8-1.8v-0.9c-0.1-0.9,0.6-1.7,1.5-1.8c0.1,0,0.2,0,0.3,0h36.9c1.2,0,1.9,0.7,1.9,1.8v0.9
						c0.1,0.9-0.6,1.8-1.6,1.8C323,47,322.9,47,322.8,46.9L322.8,46.9z"/>
					<path class="st1" d="M350.5,71.2v12c0,1.1-0.8,1.7-1.9,1.7h-1.2c-1.2,0-1.9-0.6-1.9-1.7v-12c-12-0.2-16.3-6.5-16.3-14.9V44.1
						c0-1.1,0.7-1.7,1.9-1.7h1.1c1.2,0,1.9,0.6,1.9,1.7v12.2c0,6.7,3.6,10.4,12,10.4h4c8.7,0,12.1-3.8,12.1-10.4V44.1
						c0-1.1,0.8-1.7,1.9-1.7h1.1c1.2,0,2,0.6,2,1.7v12.2C367.1,64.8,362.7,71.1,350.5,71.2z"/>
					<path class="st1" d="M59.9,20c-5.6,0-10.2,4.5-10.2,10.2c0,0.8,0.1,1.6,0.3,2.4c2.4-2.3,6.2-2.2,8.5,0.3
						c1.9,2.1,2.2,5.2,0.6,7.6c0.3,0,0.6,0,0.9,0c5.7,0.1,10.3-4.4,10.5-10c0.1-5.7-4.4-10.3-10-10.5C60.2,20,60.1,20,59.9,20
						C59.9,20,59.9,20,59.9,20z"/>
					<path class="st1" d="M54.1,32.1c-1.4,0-2.8,0.6-3.7,1.7c-2.6,4.4-4.3,9.2-4.9,14.2c3.1-1.7,6-3,10.9-4.8
						c0.6-1.6,1.3-3.1,2.2-4.6l0.2-0.2C58.9,38,59,37.5,59,37C59,34.3,56.8,32.1,54.1,32.1z"/>
					<path class="st1" d="M87.1,50.7L87.1,50.7c-0.5-6.5-2.4-12.4-5.4-17.2c-3.2-5-7.3-8.2-11.9-9.3c2,3.3,2.2,7.3,0.7,10.8
						c1.2,1,2.3,2.2,3.1,3.6c1.2,1.9,2.1,4,2.7,6.2l0,0c1.5,5.8,1.9,8.7,0.9,14.8c-0.1,0.5-0.1,0.9-0.2,1.4v0l0,0
						c-0.2,1-0.4,2-0.7,2.9l0,0c-0.4,1.3-0.9,2.5-1.4,3.7l0,0c-1.2,2.3-2.8,4.4-4.8,6.2l0,0c-0.5,0.5-1,1-1.5,1.4
						c3.1,2.3,5.4,3.1,9.6,4.3c1.4-1.4,2.5-2.9,3.6-4.5c0.6-1,1.2-2.1,1.8-3.2c0.1-0.1,0.1-0.3,0.2-0.4c0.1-0.1,0.1-0.2,0.1-0.3
						c0-0.1,0.1-0.3,0.2-0.5c0-0.1,0.1-0.1,0.1-0.2c0.1-0.2,0.2-0.5,0.3-0.7l0-0.1c0.1-0.2,0.2-0.4,0.2-0.6c0-0.1,0.1-0.2,0.1-0.2
						c0-0.1,0.1-0.3,0.2-0.4c0-0.1,0.1-0.2,0.1-0.3l0.1-0.4l0.1-0.3c0-0.1,0.1-0.3,0.1-0.4c0-0.1,0.1-0.2,0.1-0.3l0.1-0.3
						c0-0.1,0.1-0.3,0.1-0.4c0-0.1,0.1-0.2,0.1-0.3c0-0.1,0.1-0.2,0.1-0.4C87,58.9,87.2,56,87.1,50.7z"/>
					<path class="st1" d="M110.5,75.9c0-5.7-4.6-10.2-10.2-10.3S90,70.2,90,75.9c0,1.4,0.3,2.9,0.9,4.2c2-2.7,5.8-3.2,8.5-1.2
						c2.2,1.7,3,4.6,1.9,7.2C106.5,85.6,110.5,81.2,110.5,75.9z"/>
					<path class="st1" d="M99.5,64.3c-2.4-3.9-5.5-7.3-9.1-10c-0.1,3.6-0.4,6.7-1.3,11.9c0.7,0.9,1.4,1.8,2,2.7
						C93,66.2,96.1,64.5,99.5,64.3z"/>
					<path class="st1" d="M95.7,78.8c-1.1,0-2.2,0.4-3,1c-1.2,1.9-3.6,3.1-6.8,3.5c-0.2,0-0.5,0.1-0.7,0.1c-0.2,0-0.5,0-0.8,0
						c-2.2,0.1-4.4-0.2-6.5-0.7v0c-5.6-1.5-8.3-2.6-12.9-6.2c-1.4-1.1-2.8-2.3-4-3.6l0,0c-0.9-1-1.8-2.1-2.6-3.2
						c-1.3-2.1-2.3-4.5-2.9-6.9c-0.2-0.7-0.4-1.5-0.5-2.2c-3.5,1.6-5.3,3.1-8.5,6.2c0.5,1.8,1.2,3.6,2.1,5.3c0.5,1,1.1,1.9,1.7,2.9
						l0,0c0.1,0.2,0.3,0.4,0.4,0.7l0.1,0.2l0.3,0.4c0.1,0.1,0.1,0.2,0.2,0.2l0.3,0.4l0.2,0.2c0.1,0.1,0.2,0.2,0.3,0.3l0.2,0.3
						l0.3,0.3c0.1,0.1,0.1,0.2,0.2,0.2l0.3,0.3c0.1,0.1,0.2,0.2,0.2,0.2s0.2,0.2,0.3,0.3l0.2,0.2c0.1,0.1,0.2,0.2,0.2,0.2
						c0.1,0.1,0.2,0.2,0.3,0.3l0.3,0.3c0.1,0.1,0.2,0.2,0.3,0.3c5,4.2,7.5,5.9,12,8.4l0,0c5.5,2.6,11.2,4,16.5,4c0.4,0,0.8,0,1.2,0
						c6.6-0.3,11.9-2.7,15.1-7c1.3-2.4,0.5-5.3-1.9-6.7C97.4,79,96.5,78.7,95.7,78.8C95.7,78.8,95.7,78.8,95.7,78.8z"/>
					<path class="st1" d="M41.5,88.3c0-3.2,2.5-5.8,5.6-6c-2.3-5.2-8.3-7.6-13.5-5.3c-5.2,2.3-7.6,8.3-5.3,13.5s8.3,7.6,13.5,5.3
						c1.1-0.5,2.2-1.2,3-2C42.8,92.7,41.5,90.6,41.5,88.3z"/>
					<path class="st1" d="M73.4,46c-1.8-0.5-3.7-0.8-5.6-0.8c-1.8-0.1-3.7,0-5.5,0.3l-0.4,0.1h-0.2c-0.2,0-0.4,0.1-0.6,0.1l0,0
						l-0.6,0.1l-0.2,0L60,45.8l-0.3,0.1l-0.2,0L59,45.9l-0.2,0l-0.4,0.1l-0.2,0c-0.1,0-0.3,0.1-0.4,0.1l-0.2,0l-0.5,0.1l-0.1,0
						l-0.5,0.1h-0.1l-0.1,0c-5.2,1.9-7.8,3.2-11.6,5.4c-5.7,3.7-10.3,8.6-13,13.8c-2.3,4.3-3.1,8.7-2.6,12.6
						c2.2-2.4,5.3-3.8,8.6-3.8c0.3,0,0.6,0,1,0c0.3-1.5,0.8-3,1.5-4.4c1.1-2,2.4-3.8,4-5.5l0,0l0.4-0.4l0.3-0.3l0.5-0.5
						c3.4-3.2,5.8-4.8,10.1-6.5c2-0.8,4.1-1.5,6.2-1.9l0,0c0.5-0.1,1-0.2,1.4-0.2s1-0.1,1.4-0.1h0.9c2.4,0,4.8,0.4,7.1,1.1
						c0.6,0.2,1.2,0.4,1.8,0.6C74.9,52.7,74.5,50.2,73.4,46z"/>
					<path class="st1" d="M48.6,83.4h-1.1c-2.7,0-4.9,2.2-4.9,4.9c0,2,1.2,3.8,3.1,4.6l0,0c0.6,0.1,1.1,0.1,1.7,0.1
						c0.4,0,0.8,0,1.2,0c4.8-0.1,9.5-1.1,13.9-2.9C59.5,88.2,57,86.4,53,83C51.5,83.3,50.1,83.4,48.6,83.4z"/>
				</g>
			</g>
		</g>
	</g>
</g>
</svg>
