<svg xmlns="http://www.w3.org/2000/svg" viewBox="0 0 40.92 40.89"><defs><style>.cls-1{opacity:0.7;}.cls-2{fill:#5cffff;stroke:#5cffff;stroke-linecap:round;stroke-linejoin:round;stroke-width:2px;}</style></defs><g id="レイヤー_2" data-name="レイヤー 2"><g id="背景"><g class="cls-1"><path class="cls-2" d="M12.94,38.37A19.86,19.86,0,0,1,2.53,28,18.71,18.71,0,0,1,1,20.43a18.61,18.61,0,0,1,1.53-7.51A19.71,19.71,0,0,1,12.94,2.52,18.77,18.77,0,0,1,20.45,1,19,19,0,0,1,28,2.52,19.71,19.71,0,0,1,38.4,12.92a18.77,18.77,0,0,1,1.52,7.51A18.87,18.87,0,0,1,38.4,28a19.68,19.68,0,0,1-4.21,6.2A20,20,0,0,1,28,38.37a18.62,18.62,0,0,1-7.52,1.52A18.63,18.63,0,0,1,12.94,38.37Zm14.3-1.86a17.62,17.62,0,0,0,5.56-3.74,17.37,17.37,0,0,0,3.75-5.56,17.1,17.1,0,0,0,1.35-6.78,16.87,16.87,0,0,0-1.36-6.76,17.75,17.75,0,0,0-3.76-5.55,17.55,17.55,0,0,0-5.55-3.75A17,17,0,0,0,20.45,3a17,17,0,0,0-6.76,1.35,17.52,17.52,0,0,0-9.27,9.3,17,17,0,0,0-1.34,6.76A17.3,17.3,0,0,0,8.15,32.77a17.53,17.53,0,0,0,5.54,3.74,17.1,17.1,0,0,0,6.78,1.35A17,17,0,0,0,27.24,36.51ZM12.79,28.12a.89.89,0,0,1-.3-.69,1,1,0,0,1,.33-.75L19,20.47l-6.21-6.21a1,1,0,0,1-.33-.75.92.92,0,0,1,.3-.7,1,1,0,0,1,.74-.28,1,1,0,0,1,.75.33L20.47,19l6.19-6.2a1.07,1.07,0,0,1,.75-.33,1,1,0,0,1,.72.29,1,1,0,0,1,.3.71,1.08,1.08,0,0,1-.32.75L21.9,20.47l6.21,6.19a1.09,1.09,0,0,1,.32.77.89.89,0,0,1-.3.69,1,1,0,0,1-.72.29,1.09,1.09,0,0,1-.77-.32L20.47,21.9,14.3,28.09a1.06,1.06,0,0,1-.77.32A1,1,0,0,1,12.79,28.12Z"/></g></g></g></svg>