<?xml version="1.0" encoding="utf-8"?>
<!-- Generator: Adobe Illustrator 25.4.1, SVG Export Plug-In . SVG Version: 6.00 Build 0)  -->
<svg version="1.1" id="レイヤー_1" xmlns="http://www.w3.org/2000/svg" xmlns:xlink="http://www.w3.org/1999/xlink" x="0px"
	 y="0px" viewBox="0 0 58.8 47.8" style="enable-background:new 0 0 58.8 47.8;" xml:space="preserve">
<style type="text/css">
	.st0{fill:none;stroke:#5CFFFF;stroke-width:4;stroke-linecap:round;stroke-linejoin:round;}
	.st1{fill:#5CFFFF;}
</style>
<g id="レイヤー_2_00000117636881309837377530000015158851761864667285_">
	<g id="ICONS">
		<g id="data_set">
			<g id="Icon_feather-database">
				<g>
					<path id="パス_658_00000095317409484202956570000014011139494431570069_" class="st0" d="M25.5,8.7v30.5
						c0,3.6,7,6.5,15.7,6.5s15.7-2.9,15.7-6.5V8.7"/>
					<path id="パス_656_00000019657425040325727980000006146996580847641993_" class="st0" d="M56.8,8.7c0,3.6-7,6.5-15.7,6.5
						s-15.7-2.9-15.7-6.5s7.1-6.5,15.7-6.5S56.8,5.1,56.8,8.7z"/>
					<path id="パス_657_00000172411317111884857640000008080533768526422918_" class="st0" d="M56.8,18.8c0,3.6-7,6.5-15.7,6.5
						s-15.7-2.9-15.7-6.5"/>
					<path id="パス_659_00000101807286486308185180000015068917972504003977_" class="st0" d="M56.8,29c0,3.6-7,6.5-15.7,6.5
						S25.5,32.6,25.5,29"/>
				</g>
			</g>
			<path id="Icon_open-arrow-thick-right" class="st1" d="M11.2,14.8v7.6H0V30h11.2v7.6l11.3-11.5L11.2,14.8z"/>
		</g>
	</g>
</g>
</svg>
