<svg xmlns="http://www.w3.org/2000/svg" viewBox="0 0 41.99 30.06"><defs><style>.cls-1{fill:#5cffff;}.cls-2{fill:none;stroke:#5cffff;stroke-miterlimit:10;stroke-width:3px;}</style></defs><g id="レイヤー_2" data-name="レイヤー 2"><g id="ICONS"><circle class="cls-1" cx="6.28" cy="23.77" r="6.28"/><path class="cls-2" d="M11.85,24.19C21.15,22.33,14.09,10.59,23,11"/><path class="cls-1" d="M40.58,5.18A10.59,10.59,0,0,0,36.8,1.41a10.33,10.33,0,0,0-10.42,0,10.8,10.8,0,0,0-3.77,3.77,10,10,0,0,0-1.41,5.21,10.1,10.1,0,0,0,.81,4,10.87,10.87,0,0,0,2.25,3.33A10.19,10.19,0,0,0,27.58,20a10,10,0,0,0,4,.81,9.83,9.83,0,0,0,4-.82,10.44,10.44,0,0,0,3.31-2.25,10.83,10.83,0,0,0,2.27-3.32,9.86,9.86,0,0,0,.83-4A10,10,0,0,0,40.58,5.18ZM37.8,11.35a1.29,1.29,0,0,1-.95.36H32.92v3.93a1.28,1.28,0,0,1-.36.94,1.42,1.42,0,0,1-1.91,0,1.25,1.25,0,0,1-.37-.94V11.71H26.37a1.28,1.28,0,0,1-.94-.36,1.25,1.25,0,0,1-.37-1,1.24,1.24,0,0,1,.37-1,1.28,1.28,0,0,1,.94-.36h3.91V5.18a1.29,1.29,0,0,1,.37-1,1.42,1.42,0,0,1,1.91,0,1.32,1.32,0,0,1,.36,1v3.9h3.93a1.29,1.29,0,0,1,.95.36,1.27,1.27,0,0,1,.36,1A1.28,1.28,0,0,1,37.8,11.35Z"/></g></g></svg>