<svg xmlns="http://www.w3.org/2000/svg" viewBox="0 0 40.78 32.43"><defs><style>.cls-1{fill:#5cffff;}</style></defs><g id="レイヤー_2" data-name="レイヤー 2"><g id="ICONS"><path class="cls-1" d="M1.23,31.23A4.82,4.82,0,0,1,0,27.63V5.18A4.9,4.9,0,0,1,1.14,1.66,4.27,4.27,0,0,1,4.35.48h4.3a5.6,5.6,0,0,1,1.86.25A5,5,0,0,1,12,1.62l.89.73A4.49,4.49,0,0,0,14,3.06a4,4,0,0,0,1.33.2H24.2a9,9,0,0,0-.54,1.35A8.53,8.53,0,0,0,23.37,6H14.65a5.71,5.71,0,0,1-1.87-.25,5.37,5.37,0,0,1-1.49-.88l-.88-.74A4,4,0,0,0,9.25,3.4a3.82,3.82,0,0,0-1.32-.2h-3a2.22,2.22,0,0,0-1.62.55,2.19,2.19,0,0,0-.55,1.62V27.44a2.35,2.35,0,0,0,.57,1.71A2.28,2.28,0,0,0,5,29.72H29.56a2,2,0,0,0,2.26-2.27v-10a7.87,7.87,0,0,0,1.42.11,7.79,7.79,0,0,0,1.3-.11V27.63a5,5,0,0,1-1.18,3.59,4.36,4.36,0,0,1-3.27,1.21H4.86A5,5,0,0,1,1.23,31.23Zm.45-22.1H23.29a7.25,7.25,0,0,0,.26,1.28A10,10,0,0,0,24,11.6H1.68ZM30,14.88a7.6,7.6,0,0,1-2.47-1.67,7.8,7.8,0,0,1-1.67-2.48,7.34,7.34,0,0,1-.61-3,7.38,7.38,0,0,1,1.06-3.89,8.07,8.07,0,0,1,2.8-2.8,7.69,7.69,0,0,1,7.76,0,8,8,0,0,1,2.82,2.8,7.47,7.47,0,0,1,1.05,3.89,7.38,7.38,0,0,1-.62,3A8.05,8.05,0,0,1,36,14.88a7.44,7.44,0,0,1-3,.6A7.57,7.57,0,0,1,30,14.88Zm6.9-6.16a1,1,0,0,0,.7-.27.93.93,0,0,0,.27-.71.91.91,0,0,0-1-1H29.13a.94.94,0,0,0-.7.26.92.92,0,0,0-.28.71.91.91,0,0,0,.28.71.94.94,0,0,0,.7.27Z"/><g id="グループ_701" data-name="グループ 701"><path class="cls-1" d="M8.47,24.71a1,1,0,0,1-.42-1.84l5.6-4a1,1,0,0,1,1.27.06l3.77,3.23,7.06-4.73a1,1,0,1,1,1.14,1.7l-7.71,5.16A1,1,0,0,1,18,24.2L14.19,21,9.24,24.53A1,1,0,0,1,8.47,24.71Z"/><circle id="楕円形_17" data-name="楕円形 17" class="cls-1" cx="25.92" cy="18.36" r="2.14"/><path id="楕円形_17_-_アウトライン" data-name="楕円形 17 - アウトライン" class="cls-1" d="M26.11,17.31a1.07,1.07,0,0,0-.38,2.11A1.08,1.08,0,0,0,27,18.55a1.07,1.07,0,0,0-.87-1.24m.18-1.06A2.14,2.14,0,1,1,23.81,18,2.14,2.14,0,0,1,26.29,16.25Z"/><circle id="楕円形_18" data-name="楕円形 18" class="cls-1" cx="18.9" cy="23.65" r="2.14"/><path id="楕円形_18_-_アウトライン" data-name="楕円形 18 - アウトライン" class="cls-1" d="M19.09,22.6a1.06,1.06,0,0,0-1.24.87,1.07,1.07,0,1,0,1.24-.87m.19-1.06a2.14,2.14,0,1,1-2.49,1.74A2.14,2.14,0,0,1,19.28,21.54Z"/><circle id="楕円形_19" data-name="楕円形 19" class="cls-1" cx="14.74" cy="19.66" r="2.14"/><path id="楕円形_19_-_アウトライン" data-name="楕円形 19 - アウトライン" class="cls-1" d="M14.93,18.6a1.07,1.07,0,0,0-1.24.87,1.06,1.06,0,0,0,.87,1.24,1.07,1.07,0,1,0,.37-2.11m.18-1.06a2.15,2.15,0,1,1-2.48,1.74A2.14,2.14,0,0,1,15.11,17.54Z"/><circle id="楕円形_20" data-name="楕円形 20" class="cls-1" cx="7.91" cy="23.89" r="2.14"/><path id="楕円形_20_-_アウトライン" data-name="楕円形 20 - アウトライン" class="cls-1" d="M8.1,22.84A1.07,1.07,0,1,0,7.73,25a1.07,1.07,0,0,0,.37-2.11m.18-1.06A2.14,2.14,0,1,1,5.8,23.52,2.14,2.14,0,0,1,8.28,21.78Z"/></g></g></g></svg>