<svg xmlns="http://www.w3.org/2000/svg" viewBox="0 0 41.86 39.01"><defs><style>.cls-1{fill:#5cffff;}</style></defs><g id="レイヤー_2" data-name="レイヤー 2"><g id="ICONS"><path class="cls-1" d="M37,23.74v7.7h.38a4.39,4.39,0,0,0,3.27-1.2,5,5,0,0,0,1.17-3.6V7.08A3.77,3.77,0,0,0,40.69,4a4.39,4.39,0,0,0-3.27-1.21H25.7a4,4,0,0,1-1.33-.2,4.33,4.33,0,0,1-1.15-.71l-.9-.73A4.84,4.84,0,0,0,20.84.25,5.6,5.6,0,0,0,19,0h-4.3a4.28,4.28,0,0,0-3.21,1.18A4.9,4.9,0,0,0,10.33,4.7h0a7.09,7.09,0,0,1,1,.26,7.59,7.59,0,0,1,2.24,1.31l.9.74a1.84,1.84,0,0,0,.46.3,1.55,1.55,0,0,0,.43,0H30.09a6.82,6.82,0,0,1,5.06,2A7.37,7.37,0,0,1,37,14.65Z"/><path class="cls-1" d="M34.54,34.21a5,5,0,0,1-1.18,3.6A4.36,4.36,0,0,1,30.09,39H4.86a5,5,0,0,1-3.63-1.2A4.82,4.82,0,0,1,0,34.21V11.77A4.89,4.89,0,0,1,1.14,8.25,4.27,4.27,0,0,1,4.35,7.07h4.3a5.91,5.91,0,0,1,1.86.24A5.46,5.46,0,0,1,12,8.2l.89.74a4.43,4.43,0,0,0,1.15.7,3.75,3.75,0,0,0,1.33.21H30.09a4.32,4.32,0,0,1,3.27,1.21,5,5,0,0,1,1.18,3.59ZM31.82,14.82a2.27,2.27,0,0,0-.59-1.69,2.32,2.32,0,0,0-1.67-.58l-14.91,0a5.68,5.68,0,0,1-1.87-.26,5.13,5.13,0,0,1-1.49-.88l-.88-.73A4,4,0,0,0,9.25,10a3.6,3.6,0,0,0-1.32-.2h-3a2.22,2.22,0,0,0-1.62.55A2.19,2.19,0,0,0,2.74,12V34a2.32,2.32,0,0,0,.57,1.71A2.24,2.24,0,0,0,5,36.31H29.56A2,2,0,0,0,31.82,34Zm-30.14.9H32.15A7.25,7.25,0,0,0,32.41,17a9.23,9.23,0,0,0,.44,1.18H1.68Z"/><path class="cls-1" d="M26.29,22.84a2.14,2.14,0,0,0-2.48,1.74,2.41,2.41,0,0,0,0,.71l-4.32,2.9-.21-.06a2.13,2.13,0,0,0-1.15.12l-1.4-1.2a2.2,2.2,0,0,0,.12-.44,2.14,2.14,0,1,0-4.22-.74,1.72,1.72,0,0,0,0,.32L9.11,28.7a2.14,2.14,0,1,0-1.57,3.89A2.14,2.14,0,0,0,10,30.85c0-.1,0-.2,0-.3L13.56,28a2.22,2.22,0,0,0,.81.32,2,2,0,0,0,.73,0l1.71,1.46a.14.14,0,0,1,0,.06,2.16,2.16,0,0,0,1.74,2.48A2.13,2.13,0,0,0,21,30.61a2,2,0,0,0-.05-.95l4.11-2.75a1.92,1.92,0,0,0,.48.15,2.14,2.14,0,0,0,.74-4.22Z"/></g></g></svg>