<svg xmlns="http://www.w3.org/2000/svg" viewBox="0 0 42.8 44.47"><defs><style>.cls-1{fill:#d7d7d9;}</style></defs><g id="レイヤー_2" data-name="レイヤー 2"><g id="ICONS"><g id="report-2"><g id="グループ_700" data-name="グループ 700"><path id="長方形_707-2" data-name="長方形 707-2" class="cls-1" d="M34.39,28.54h5.87v1.05a7.34,7.34,0,0,1-7.34,7.33h0V30a1.47,1.47,0,0,1,1.47-1.47Z"/></g><path class="cls-1" d="M39.21,0h-23a3.6,3.6,0,0,0-3.6,3.59v18.3a11.92,11.92,0,0,1,3,.95V3.59a.6.6,0,0,1,.6-.59h23a.59.59,0,0,1,.59.59V26.45a9,9,0,0,1-9,9H22.71a11.37,11.37,0,0,1-.74,3h8.86a12,12,0,0,0,12-12V3.59A3.59,3.59,0,0,0,39.21,0Z"/><path class="cls-1" d="M19.38,28.86a10.51,10.51,0,0,0-3.78-3.77,10,10,0,0,0-5.2-1.41,9.91,9.91,0,0,0-5.21,1.41,10.72,10.72,0,0,0-3.77,3.77,10.27,10.27,0,0,0-.6,9.23,10.67,10.67,0,0,0,2.24,3.33,10.38,10.38,0,0,0,3.32,2.25,10.27,10.27,0,0,0,4,.8,9.94,9.94,0,0,0,4-.81A10.8,10.8,0,0,0,17.7,41.4,10.68,10.68,0,0,0,20,38.08a9.81,9.81,0,0,0,.83-4A10,10,0,0,0,19.38,28.86ZM16.6,35a1.28,1.28,0,0,1-.94.36H5.18A1.29,1.29,0,0,1,4.23,35a1.26,1.26,0,0,1-.36-1,1.3,1.3,0,0,1,.36-1,1.32,1.32,0,0,1,.95-.35H15.66a1.32,1.32,0,0,1,.94.35,1.27,1.27,0,0,1,.37,1A1.23,1.23,0,0,1,16.6,35Z"/><g id="グループ_701" data-name="グループ 701"><path class="cls-1" d="M23.05,23.19a1.14,1.14,0,0,1-.85-.05,1.13,1.13,0,0,1-.52-1.49l3.26-6.77a1.11,1.11,0,0,1,1.23-.61l5.3,1.11,4.28-8.21a1.13,1.13,0,0,1,1.51-.48,1.11,1.11,0,0,1,.47,1.51l-4.67,9a1.11,1.11,0,0,1-1.22.58l-5.27-1.11-2.88,6A1.09,1.09,0,0,1,23.05,23.19Z"/><circle id="楕円形_17" data-name="楕円形 17" class="cls-1" cx="36.41" cy="7.99" r="2.34"/><path id="楕円形_17_-_アウトライン" data-name="楕円形 17 - アウトライン" class="cls-1" d="M36,6.88a1.17,1.17,0,1,0,1.48.73A1.17,1.17,0,0,0,36,6.88m-.37-1.11a2.34,2.34,0,1,1-1.47,3A2.35,2.35,0,0,1,35.67,5.77Z"/><circle id="楕円形_18" data-name="楕円形 18" class="cls-1" cx="32.47" cy="16.72" r="2.34"/><path id="楕円形_18_-_アウトライン" data-name="楕円形 18 - アウトライン" class="cls-1" d="M32.1,15.61a1.17,1.17,0,1,0,1.48.74,1.17,1.17,0,0,0-1.48-.74m-.38-1.1a2.33,2.33,0,1,1-1.46,3A2.34,2.34,0,0,1,31.72,14.51Z"/><circle id="楕円形_19" data-name="楕円形 19" class="cls-1" cx="26.4" cy="15.07" r="2.34"/><path id="楕円形_19_-_アウトライン" data-name="楕円形 19 - アウトライン" class="cls-1" d="M26,14a1.17,1.17,0,1,0,1.48.73A1.17,1.17,0,0,0,26,14m-.38-1.11a2.34,2.34,0,1,1-1.46,3A2.33,2.33,0,0,1,25.65,12.86Z"/><circle id="楕円形_20" data-name="楕円形 20" class="cls-1" cx="22.08" cy="22.7" r="2.34"/><path id="楕円形_20_-_アウトライン" data-name="楕円形 20 - アウトライン" class="cls-1" d="M21.71,21.59a1.17,1.17,0,1,0,1.48.74,1.18,1.18,0,0,0-1.48-.74m-.37-1.1a2.33,2.33,0,1,1-1.47,3A2.33,2.33,0,0,1,21.34,20.49Z"/></g></g></g></g></svg>