<svg xmlns="http://www.w3.org/2000/svg" viewBox="0 0 40.61 37.75"><defs><style>.cls-1{fill:#d7d7d9;}</style></defs><g id="レイヤー_2" data-name="レイヤー 2"><g id="ICONS"><path class="cls-1" d="M31.82,14.41v.05h-.05L29.3,16.92h2.52V32.78a2,2,0,0,1-2.26,2.27H5a2.24,2.24,0,0,1-1.66-.58,2.32,2.32,0,0,1-.57-1.71V16.92H18l2.46-2.46H2.74V10.7a2.19,2.19,0,0,1,.55-1.62,2.22,2.22,0,0,1,1.62-.55h3a3.6,3.6,0,0,1,1.32.2,4,4,0,0,1,1.16.71l.88.73a5.13,5.13,0,0,0,1.49.88,5.68,5.68,0,0,0,1.87.26h8.72v0h.24l2.7-2.7H15.37A3.75,3.75,0,0,1,14,8.38a4.43,4.43,0,0,1-1.15-.7L12,6.94a5.46,5.46,0,0,0-1.49-.89,5.91,5.91,0,0,0-1.86-.24H4.35A4.27,4.27,0,0,0,1.14,7,4.89,4.89,0,0,0,0,10.51V33a4.82,4.82,0,0,0,1.23,3.6,5,5,0,0,0,3.63,1.2H30.09a4.36,4.36,0,0,0,3.27-1.2A5,5,0,0,0,34.54,33V13.39a7.06,7.06,0,0,0-.17-1.52Zm-12.54,4-1.26,3a.66.66,0,0,0,.14.82.68.68,0,0,0,.77.16l3.16-1.17L36.94,6.48,34.09,3.64ZM40.08,1,39.54.51A1.52,1.52,0,0,0,38.37,0a2,2,0,0,0-1.21.6L35.49,2.26,38.33,5.1,40,3.43a1.87,1.87,0,0,0,.62-1.23A1.44,1.44,0,0,0,40.08,1Z"/><g id="グループ_701" data-name="グループ 701"><path class="cls-1" d="M8.47,30a1.08,1.08,0,0,1-.66-.41,1,1,0,0,1,.24-1.43l5.6-4a1.05,1.05,0,0,1,1.27.05l3.77,3.23,7.06-4.72a1,1,0,1,1,1.14,1.7L19.18,29.6A1,1,0,0,1,18,29.52l-3.76-3.21L9.24,29.86A1,1,0,0,1,8.47,30Z"/><circle id="楕円形_17" data-name="楕円形 17" class="cls-1" cx="25.92" cy="23.69" r="2.14"/><path id="楕円形_17_-_アウトライン" data-name="楕円形 17 - アウトライン" class="cls-1" d="M26.11,22.63A1.07,1.07,0,1,0,27,23.87a1.07,1.07,0,0,0-.87-1.24m.18-1.05a2.14,2.14,0,1,1-2.48,1.74A2.13,2.13,0,0,1,26.29,21.58Z"/><circle id="楕円形_18" data-name="楕円形 18" class="cls-1" cx="18.9" cy="28.98" r="2.14"/><path id="楕円形_18_-_アウトライン" data-name="楕円形 18 - アウトライン" class="cls-1" d="M19.09,27.92A1.07,1.07,0,0,0,18.72,30,1.06,1.06,0,0,0,20,29.17a1.08,1.08,0,0,0-.87-1.25m.19-1.05a2.14,2.14,0,1,1-2.49,1.74A2.14,2.14,0,0,1,19.28,26.87Z"/><circle id="楕円形_19" data-name="楕円形 19" class="cls-1" cx="14.74" cy="24.98" r="2.14"/><path id="楕円形_19_-_アウトライン" data-name="楕円形 19 - アウトライン" class="cls-1" d="M14.93,23.93A1.07,1.07,0,0,0,14.56,26a1.07,1.07,0,0,0,.37-2.11m.18-1.06a2.14,2.14,0,1,1-2.48,1.74A2.14,2.14,0,0,1,15.11,22.87Z"/><circle id="楕円形_20" data-name="楕円形 20" class="cls-1" cx="7.91" cy="29.22" r="2.14"/><path id="楕円形_20_-_アウトライン" data-name="楕円形 20 - アウトライン" class="cls-1" d="M8.1,28.16A1.07,1.07,0,0,0,6.86,29,1.07,1.07,0,0,0,9,29.4a1.08,1.08,0,0,0-.87-1.24m.18-1.05A2.14,2.14,0,1,1,5.8,28.85,2.13,2.13,0,0,1,8.28,27.11Z"/></g></g></g></svg>