<?xml version="1.0" encoding="UTF-8"?>
<svg id="_レイヤー_2" data-name="レイヤー 2" xmlns="http://www.w3.org/2000/svg" viewBox="0 0 41.18 45.57">
  <defs>
    <style>
      .cls-1 {
        fill: #d7d7d9;
      }
    </style>
  </defs>
  <g id="_レイヤー_1-2" data-name="レイヤー 1">
    <g>
      <g>
        <path class="cls-1" d="M9.09,29.62c-.15-.02-.3-.02-.46-.03-.21-.01-.41-.04-.62-.04h0c-.21,0-.42.02-.63.04-.15.01-.3.01-.45.03-.21.03-.41.08-.61.12-.14.03-.28.05-.41.08-.22.06-.43.14-.65.22-.11.04-.23.07-.33.12-.31.13-.61.28-.9.46-.01,0-.02.01-.03.02-.6.35-1.15.78-1.64,1.27-.49.49-.91,1.04-1.27,1.64-1.27,2.16-1.44,4.8-.46,7.11.31.72.71,1.39,1.2,1.99.16.2.34.39.52.58.37.37.77.7,1.19.99.43.29.88.54,1.36.74.24.1.49.19.74.27.08.03.17.04.25.06.17.05.34.09.51.13.1.02.2.03.3.05.16.03.32.06.48.07.11.01.23.01.34.02.15,0,.31.02.46.02.16,0,.32-.01.47-.02.11,0,.23,0,.34-.02.15-.02.3-.04.46-.07.11-.02.21-.03.32-.05.17-.03.34-.08.5-.13.08-.02.17-.04.25-.07.25-.08.5-.17.74-.27.96-.42,1.83-1.01,2.56-1.74s1.32-1.6,1.74-2.56c.32-.73.52-1.5.6-2.29.03-.26.04-.53.04-.79.01-1.06-.2-2.11-.61-3.08-.14-.32-.3-.64-.48-.94-.7-1.2-1.71-2.2-2.91-2.9-.02,0-.03-.02-.05-.02-.29-.17-.58-.32-.88-.45-.11-.05-.22-.07-.33-.11-.22-.08-.43-.17-.66-.23-.13-.04-.27-.05-.41-.08-.2-.04-.4-.09-.61-.12ZM12.19,36.51c.53.03.93.48.9,1.01.03.29-.08.57-.29.77-.19.19-.46.29-.72.28h-3.03v3.03c0,.27-.1.53-.29.72h-.02c-.19.19-.45.3-.72.29-.03,0-.06,0-.09,0-.54-.02-.96-.47-.95-1.01v-2.98h-3c-.27.01-.54-.09-.73-.28-.2-.2-.3-.49-.28-.77-.02-.28.08-.56.28-.77.2-.19.46-.28.73-.27h3v-3.01s0-.08,0-.12c.03-.53.5-.94,1.03-.91.27-.01.53.09.72.28.2.21.3.49.29.77v2.97h3.04s.07,0,.11,0Z"/>
        <path class="cls-1" d="M41.16,37.28v-18.45c0-.77-.05-1.53-.16-2.29-.1-.62-.31-1.22-.64-1.76-.36-.61-.8-1.17-1.3-1.66L28.15,2.02c-.67-.72-1.51-1.27-2.44-1.6-.97-.29-1.99-.43-3-.4h-9.71c-1.76-.12-3.49.47-4.8,1.64-1.18,1.35-1.76,3.11-1.63,4.89l-.05,20.1c.46-.06.93-.1,1.4-.1h.09s.06,0,.06,0c.73,0,1.46.1,2.17.25V6.72c-.05-.82.22-1.62.76-2.24.62-.57,1.45-.86,2.29-.79h8.85v11.44c-.09,1.12.27,2.22,1,3.07.85.73,1.95,1.09,3.06,1h11.25v17.93c.02.22.02.43,0,.65-.2,1.49-1.57,2.55-3.06,2.35h-15.68c-.14.58-.33,1.16-.57,1.71-.3.69-.67,1.34-1.09,1.95h17.65c1.77.14,3.51-.45,4.84-1.63,1.18-1.34,1.76-3.1,1.63-4.88ZM26.59,15.89c-.33.03-.66-.07-.91-.28-.2-.25-.3-.56-.27-.88V4.27l11.46,11.62h-10.28Z"/>
      </g>
      <path class="cls-1" d="M10.02,22.6v4.15c1.24.23,2.44.65,3.51,1.29,1.65.96,3.03,2.34,3.98,3.96.12.19.2.4.3.6h20.21v-10H10.02ZM18.33,30.38c-1.72,0-2.55-1.18-2.55-2.74s.82-2.82,2.62-2.82c1.54,0,2.24.92,2.34,1.84h-1.52c-.07-.39-.29-.74-.86-.74-.75,0-1,.72-1,1.66,0,.85.21,1.69,1.02,1.69.61,0,.78-.45.85-.76h1.53c-.19,1.12-1,1.86-2.43,1.86ZM23.93,30.38c-1.45,0-2.22-.69-2.33-1.72h1.49c.09.47.41.66.9.66.46,0,.68-.17.68-.48,0-.35-.23-.48-1.06-.69-1.55-.38-1.85-.96-1.85-1.68,0-.9.65-1.65,2.1-1.65s2.14.79,2.21,1.63h-1.48c-.04-.29-.18-.58-.73-.58-.35,0-.57.14-.57.43s.19.4,1,.61c1.61.41,1.94,1.01,1.94,1.77,0,1.01-.76,1.7-2.3,1.7ZM30.41,30.28h-1.81l-1.79-5.35h1.63l.65,2.3c.2.71.32,1.21.44,1.81h.02c.1-.55.24-1.05.45-1.79l.67-2.32h1.57l-1.83,5.35Z"/>
    </g>
  </g>
</svg>