<svg xmlns="http://www.w3.org/2000/svg" viewBox="0 0 31.05 39.36"><defs><style>.cls-1{fill:#5cffff;}</style></defs><g id="レイヤー_2" data-name="レイヤー 2"><g id="ICONS"><path class="cls-1" d="M1.47,37.89A5.94,5.94,0,0,1,0,33.51V5.87A6,6,0,0,1,1.47,1.48,5.84,5.84,0,0,1,5.81,0H17a8.56,8.56,0,0,1,2.7.36,5.62,5.62,0,0,1,2.16,1.48l7.4,6.36a8.16,8.16,0,0,1,1.17,1.48,4.66,4.66,0,0,1,.53,1.55,13.51,13.51,0,0,1,.13,2.07V33.51a6,6,0,0,1-1.45,4.38,5.91,5.91,0,0,1-4.36,1.47H5.81A5.88,5.88,0,0,1,1.47,37.89ZM25,36.1a2.46,2.46,0,0,0,2.76-2.75V13.62h-7.7a3.81,3.81,0,0,1-2.76-.9A3.75,3.75,0,0,1,16.4,10V3.3H6A2.73,2.73,0,0,0,4,4,2.76,2.76,0,0,0,3.3,6V33.35a2.84,2.84,0,0,0,.68,2A2.71,2.71,0,0,0,6,36.1Zm2.24-25.45-7.9-6.83V9.61a1.12,1.12,0,0,0,.25.79,1.11,1.11,0,0,0,.81.25Z"/><path class="cls-1" d="M6.07,21.38a1.3,1.3,0,0,0,.11.47.89.89,0,0,0,.27.33.74.74,0,0,0,.39.11A.68.68,0,0,0,7.46,22a1.47,1.47,0,0,0,.2-.83V16.3H8.81v4.84a2.66,2.66,0,0,1-.52,1.78,1.76,1.76,0,0,1-1.43.62A2,2,0,0,1,6,23.37a1.62,1.62,0,0,1-.59-.47,2.06,2.06,0,0,1-.36-.69A2.87,2.87,0,0,1,5,21.38Z"/><path class="cls-1" d="M10.69,21.47a1,1,0,0,0,.13.37,1,1,0,0,0,.24.31,1.46,1.46,0,0,0,.37.2,1.35,1.35,0,0,0,.46.07,1.41,1.41,0,0,0,.61-.12.89.89,0,0,0,.37-.35,1,1,0,0,0,.12-.51.75.75,0,0,0-.22-.58,1.66,1.66,0,0,0-.68-.34l-.9-.26a2.18,2.18,0,0,1-.78-.38,1.58,1.58,0,0,1-.52-.65,2.2,2.2,0,0,1-.18-.93A2.28,2.28,0,0,1,10,17.17a2,2,0,0,1,.77-.75,2.33,2.33,0,0,1,1.13-.27,2.24,2.24,0,0,1,1.14.27,1.9,1.9,0,0,1,.73.73,2.28,2.28,0,0,1,.29,1H13a1.17,1.17,0,0,0-.18-.46.93.93,0,0,0-.36-.32,1.13,1.13,0,0,0-.54-.12,1,1,0,0,0-.74.26.93.93,0,0,0-.27.69.72.72,0,0,0,.21.53,1.27,1.27,0,0,0,.59.31l.9.26a2.62,2.62,0,0,1,.83.37,1.61,1.61,0,0,1,.54.64,2.21,2.21,0,0,1,.2,1,2.39,2.39,0,0,1-.27,1.16,1.88,1.88,0,0,1-.79.79,2.65,2.65,0,0,1-1.25.28,2.81,2.81,0,0,1-1-.16,2,2,0,0,1-.7-.45,2.23,2.23,0,0,1-.42-.67,2.32,2.32,0,0,1-.16-.79Z"/><path class="cls-1" d="M19.52,22a2.49,2.49,0,0,1-.86,1.11,2.5,2.5,0,0,1-2.68,0A2.42,2.42,0,0,1,15.12,22a4.54,4.54,0,0,1-.3-1.73V19.4a4.59,4.59,0,0,1,.3-1.74A2.42,2.42,0,0,1,16,16.55a2.5,2.5,0,0,1,2.68,0,2.52,2.52,0,0,1,.86,1.12,4.71,4.71,0,0,1,.29,1.73v.91A4.75,4.75,0,0,1,19.52,22Zm-1.05-3.79a1.49,1.49,0,0,0-.47-.69,1.14,1.14,0,0,0-1.37,0,1.56,1.56,0,0,0-.47.69A3.34,3.34,0,0,0,16,19.39v.93a3.42,3.42,0,0,0,.17,1.14,1.53,1.53,0,0,0,.47.68,1.14,1.14,0,0,0,1.37,0,1.45,1.45,0,0,0,.47-.68,3.18,3.18,0,0,0,.17-1.14v-.93A3.11,3.11,0,0,0,18.47,18.25Z"/><path class="cls-1" d="M20.76,23.4V16.3h1L24.28,21h0V16.3h1.09v7.1h-1L21.9,18.65h0V23.4Z"/><path class="cls-1" d="M9.56,29.58a1,1,0,0,1,.67.29,1.09,1.09,0,0,1,.22.74v1.11a1.18,1.18,0,0,0,.08.51.53.53,0,0,0,.29.28,1.48,1.48,0,0,0,.57.09h.19v.84h-.43a3,3,0,0,1-1-.15,1.12,1.12,0,0,1-.62-.5,1.88,1.88,0,0,1-.22-.93v-.93a1.25,1.25,0,0,0-.14-.66.69.69,0,0,0-.6-.21V29a.69.69,0,0,0,.6-.21,1.16,1.16,0,0,0,.14-.66v-.84a1.73,1.73,0,0,1,.21-.91,1.21,1.21,0,0,1,.62-.48,3.07,3.07,0,0,1,1-.15h.42v.85H11.4a1.73,1.73,0,0,0-.57.08.53.53,0,0,0-.29.28,1.16,1.16,0,0,0-.09.51v1a1,1,0,0,1-.22.7,1.09,1.09,0,0,1-.67.27Z"/><path class="cls-1" d="M14.54,33.68,14.89,31h1.28l-.61,2.71ZM15,28a.89.89,0,0,1,1.15,0,.74.74,0,0,1,0,1.09.93.93,0,0,1-1.15,0A.76.76,0,0,1,15,28Z"/><path class="cls-1" d="M21.45,29.46a1.06,1.06,0,0,1-.66-.27,1,1,0,0,1-.23-.7v-1a1.18,1.18,0,0,0-.08-.51.57.57,0,0,0-.29-.28,1.75,1.75,0,0,0-.58-.08h-.18v-.85h.42a3,3,0,0,1,1,.15,1.17,1.17,0,0,1,.62.48,1.73,1.73,0,0,1,.21.91v.84a1.25,1.25,0,0,0,.14.66.7.7,0,0,0,.6.21v1.08a.7.7,0,0,0-.6.21,1.25,1.25,0,0,0-.14.66v.93a1.78,1.78,0,0,1-.21.93,1.15,1.15,0,0,1-.62.5,3,3,0,0,1-1,.15h-.42V32.6h.18a1.5,1.5,0,0,0,.58-.09.57.57,0,0,0,.29-.28,1.18,1.18,0,0,0,.08-.51V30.61a1.09,1.09,0,0,1,.23-.74.93.93,0,0,1,.66-.29Z"/></g></g></svg>