<?xml version="1.0" encoding="UTF-8"?><svg id="uuid-8e278cd1-e3a6-43ab-bb79-5d9d63cba1ef" xmlns="http://www.w3.org/2000/svg" viewBox="0 0 41.6267368 48.99928031"><g id="uuid-1ff10eb8-52a8-4e7e-8497-eda353249d82"><g><g id="uuid-f9e40167-e087-4b38-8dec-e5bb13581c48"><g id="uuid-ff435254-7580-413f-b838-4dd388e31c5a"><path d="M37.26669042,0H5.85671727C3.45669286,0,1.49673192,1.95001221,1.49673192,4.34997559V41.63592686l.2699585-.2800293,1.42999268-1.4699707,.02001953,.0199585,1.2800293-1.27996826V4.34997559c0-.73999023,.60998535-1.34997559,1.35998535-1.34997559h31.40997314c.75,0,1.36004639,.60998535,1.36004639,1.34997559V30.05999756c0,7.04998779-5.7300415,12.77996826-12.7800293,12.77996826H12.27997366l-2.99005127,3H25.84670751c8.70001221,0,15.7800293-7.07995605,15.7800293-15.77996826V4.34997559c0-2.39996338-1.96002197-4.34997559-4.36004639-4.34997559Z" style="fill:#d7d7d9;"/></g><g id="uuid-ece8f322-159b-45a3-b133-ce74dc8bb245"><path id="uuid-1663a5de-52b7-4e16-8a7e-d3a0e684abc6" d="M30.7023702,32.91369972h7.99710435v1.42805434c0,5.52084812-4.47553193,9.9963804-9.9963804,9.9963804h0v-9.42515869c0-1.10416971,.89510634-1.99927605,1.99927605-1.99927605h0Z" style="fill:#d7d7d9;"/></g><g id="uuid-854c1024-fc5c-4ab1-ad88-967abc3d56ba"><path d="M11.16360204,22.07092285c-.25244141,0-.50488281-.09472656-.69921875-.28515625-.39501953-.38623047-.40185547-1.01953125-.015625-1.4140625l6.42626953-6.56884766c.32177734-.32861328,.82714844-.39550781,1.22314453-.16162109l5.93603516,3.50537109,8.37695312-8.02929688c.39794922-.38134766,1.03076172-.36914062,1.4140625,.03027344,.38183594,.3984375,.36865234,1.03173828-.03027344,1.4140625l-8.92431641,8.55371094c-.32275391,.31005859-.81445312,.36767578-1.20019531,.13867188l-5.9140625-3.4921875-5.87792969,6.00830078c-.19580078,.20019531-.45556641,.30078125-.71484375,.30078125Z" style="fill:#d7d7d9;"/><circle id="uuid-bd20f158-31aa-484b-aee6-f242382c63c4" cx="32.60164225" cy="10.06483025" r="2.85610868" style="fill:#d7d7d9;"/><path id="uuid-163e72a8-891a-479c-8909-07a41a580df1" d="M32.60164225,8.63677591c-.78869259,0-1.42805434,.63936175-1.42805434,1.42805434s.63936175,1.42805434,1.42805434,1.42805434,1.42805434-.63936175,1.42805434-1.42805434-.63936175-1.42805434-1.42805434-1.42805434h0Zm0-1.42805434c1.57738518,0,2.85610868,1.27872342,2.85610868,2.85610868,0,1.57738518-1.27872351,2.85610868-2.85610868,2.85610868-1.57738526,0-2.85610868-1.27872351-2.85610868-2.85610868,0-1.57738526,1.27872342-2.85610868,2.85610868-2.85610868Z" style="fill:#d7d7d9;"/><circle id="uuid-e6d058bd-08f4-4c2e-a53f-78f71a8649f3" cx="24.61596236" cy="18.6331563" r="2.85610868" style="fill:#d7d7d9;"/><path id="uuid-e106ea4d-6959-40bc-bbaf-263d907e4d99" d="M24.61596236,17.20510196c-.78869259,0-1.42805434,.63936175-1.42805434,1.42805434s.63936175,1.42805434,1.42805434,1.42805434,1.42805434-.63936175,1.42805434-1.42805434-.63936175-1.42805434-1.42805434-1.42805434h0Zm0-1.42805434c1.57738518,0,2.85610868,1.27872342,2.85610868,2.85610868,0,1.57738518-1.27872351,2.85610868-2.85610868,2.85610868-1.57738526,0-2.85610868-1.27872351-2.85610868-2.85610868,0-1.57738526,1.27872342-2.85610868,2.85610868-2.85610868Z" style="fill:#d7d7d9;"/><circle id="uuid-06285540-f4b1-497f-97ab-ca629aa1b694" cx="18.22827521" cy="14.34899327" r="2.85610868" style="fill:#d7d7d9;"/><path id="uuid-38fc0b6e-fb92-4cc5-87b3-999f98d8468c" d="M18.22827521,12.92093893c-.78869259,0-1.42805434,.63936175-1.42805434,1.42805434s.63936175,1.42805434,1.42805434,1.42805434,1.42805434-.63936175,1.42805434-1.42805434-.63936175-1.42805434-1.42805434-1.42805434h0Zm0-1.42805434c1.57738518,0,2.85610868,1.27872342,2.85610868,2.85610868,0,1.57738518-1.27872351,2.85610868-2.85610868,2.85610868-1.57738526,0-2.85610868-1.27872351-2.85610868-2.85610868,0-1.57738526,1.27872342-2.85610868,2.85610868-2.85610868Z" style="fill:#d7d7d9;"/><circle id="uuid-cbc6d1b8-a98f-4604-b750-33fda24f5763" cx="10.24402327" cy="21.48926499" r="2.85610868" style="fill:#d7d7d9;"/><path id="uuid-d76419d3-7fe2-475e-8949-c30ca21c4038" d="M10.24402327,20.06121064c-.78869259,0-1.42805434,.63936175-1.42805434,1.42805434s.63936175,1.42805434,1.42805434,1.42805434,1.42805434-.63936175,1.42805434-1.42805434-.63936175-1.42805434-1.42805434-1.42805434h0Zm0-1.42805434c1.57738518,0,2.85610868,1.27872342,2.85610868,2.85610868,0,1.57738518-1.27872351,2.85610868-2.85610868,2.85610868-1.57738526,0-2.85610868-1.27872351-2.85610868-2.85610868,0-1.57738526,1.27872342-2.85610868,2.85610868-2.85610868Z" style="fill:#d7d7d9;"/></g><path id="uuid-41466b86-dc54-4114-9634-1ec9ea6150c1" d="M33.10997641,30.03475472h-7.4972853v-6.03349473l7.4972853-7.01597938v13.04947412Zm-21.7932982-1.73141596v1.7266295h.97003174l4.95001221-4.92999268v-3.63000488l-5.92004395,6.83336806Zm8.06005859-7.07335829l-.00036528,3.43472358,3.13211049-1.15468639-3.13174521-2.2800372Z" style="fill:#d7d7d9;"/></g><path id="uuid-6229046b-a87d-4e03-a78c-200444232c6a" d="M33.10997641,30.03475472h-7.4972853v-6.03349473l7.4972853-7.01597938v13.04947412Z" style="fill:#d7d7d9;"/><path d="M3.62109857,42.49855213l2.86000061,2.84000015,14.79999924-14.84000015,1.27000046-3c.1492157-.27271271,.09124756-.61224365-.13999939-.81999969-.20139313-.21041298-.51203346-.27413559-.78000069-.15999985l-3.15999985,1.17000008L3.62109857,42.49855213Zm-3,3.05000019c-.35564041,.31617832-.57736206,.7560482-.61999893,1.2300005-.01750946,.44669056,.17488098,.87586737,.52000046,1.15999985l.48999786,.55999947c.2973175,.33086252,.72539139,.51380062,1.16999817,.5,.46701431-.04174566,.9018364-.2555933,1.22000122-.5999999l1.67000198-1.67999983-2.82999802-2.84000015-1.62000275,1.67000008Z" style="fill:#d7d7d9;"/></g></g></svg>