<?xml version="1.0" encoding="UTF-8"?><svg id="uuid-0b761816-6a39-48c0-90a8-c1cc141b928a" xmlns="http://www.w3.org/2000/svg" viewBox="0 0 43.51119963 49.0199585"><g id="uuid-27e0ae43-5029-4b1e-b5b0-ff47a8c25b5b"><g id="uuid-0a13d288-46bf-49a3-b751-ef20dce59f58"><g id="uuid-b0880b2b-b67b-4498-98a8-6b88be2595aa"><path d="M43.51119963,4.34997559V30.05999756c0,8.70001221-7.07995605,15.77996826-15.77996826,15.77996826h-3.77001953l-3.05999756-3h6.83001709c7.04998779,0,12.77996826-5.72998047,12.77996826-12.77996826V4.34997559c0-.73999023-.60998535-1.34997559-1.35998535-1.34997559H7.74124113c-.75,0-1.36004639,.60998535-1.36004639,1.34997559V25.36871773c-1,.20996094-1.99357426,.56354491-2.88995361,1.23125785-.07000732-.16998291-.11004639-.35998535-.11004639-.55999756V4.34997559C3.38119474,1.95001221,5.34121672,0,7.74124113,0h31.40997314c2.40002441,0,4.35998535,1.95001221,4.35998535,4.34997559Z" style="fill:#d7d7d9;"/></g><g><path d="M9.16613942,45.8118097c-5.05435608,0-9.16613942-4.11178334-9.16613942-9.16613942s4.11178334-9.16613942,9.16613942-9.16613942,9.16613942,4.11178334,9.16613942,9.16613942-4.11178334,9.16613942-9.16613942,9.16613942Zm0-15.58243701c-3.5380045,0-6.41629759,2.8782931-6.41629759,6.41629759s2.8782931,6.41629759,6.41629759,6.41629759,6.41629759-2.8782931,6.41629759-6.41629759-2.8782931-6.41629759-6.41629759-6.41629759Z" style="fill:#d7d7d9;"/><path d="M20.16550672,49.0199585c-.34775832,0-.69551663-.13113666-.96316074-.39385755l-5.04137668-4.94962577c-.5420017-.53215526-.55005788-1.40266997-.01790262-1.9442241,.53126013-.54289683,1.4022224-.55005788,1.9442241-.01790262l5.04137668,4.94962577c.5420017,.53215526,.55005788,1.40266997,.01790262,1.9442241-.26898681,.27435759-.62524887,.41176017-.98106336,.41176017Z" style="fill:#d7d7d9;"/></g><g id="uuid-119f8a71-27e3-4035-a3a1-102a08e8561a"><path id="uuid-84378589-41f7-4377-b323-0932f5cb2ab6" d="M32.58652709,32.91369972h7.99710435v1.42805434c0,5.52084812-4.47553193,9.9963804-9.9963804,9.9963804h0v-9.42515869c0-1.10416971,.89510634-1.99927605,1.99927605-1.99927605h0Z" style="fill:#d7d7d9;"/></g><g id="uuid-a0715459-da35-4e24-bb2d-23468a3c96ab"><path d="M13.04794279,22.07092285c-.25244141,0-.50488281-.09472656-.69921875-.28515625-.39501953-.38623047-.40185547-1.01953125-.015625-1.4140625l6.42626953-6.56884766c.32275391-.32861328,.82714844-.39550781,1.22314453-.16162109l5.93603516,3.50537109,8.37646484-8.02880859c.39794922-.38232422,1.03125-.36962891,1.41357422,.02978516,.38232422,.3984375,.36914062,1.03173828-.02978516,1.41357422l-8.92382812,8.55371094c-.32324219,.31054688-.81396484,.36816406-1.20019531,.13916016l-5.9140625-3.4921875-5.87792969,6.00830078c-.19580078,.20019531-.45556641,.30078125-.71484375,.30078125Z" style="fill:#d7d7d9;"/><circle id="uuid-7a35c13e-016f-4761-b23a-da502137580a" cx="34.48579914" cy="10.06483025" r="2.85610868" style="fill:#d7d7d9;"/><path id="uuid-951d0132-3d7c-4236-94e5-dfcacb68f39d" d="M34.48579914,8.63677591c-.78869259,0-1.42805434,.63936175-1.42805434,1.42805434s.63936175,1.42805434,1.42805434,1.42805434,1.42805434-.63936175,1.42805434-1.42805434-.63936175-1.42805434-1.42805434-1.42805434h0Zm0-1.42805434c1.57738518,0,2.85610868,1.27872342,2.85610868,2.85610868,0,1.57738518-1.27872351,2.85610868-2.85610868,2.85610868-1.57738526,0-2.85610868-1.27872351-2.85610868-2.85610868,0-1.57738526,1.27872342-2.85610868,2.85610868-2.85610868Z" style="fill:#d7d7d9;"/><circle id="uuid-813fbd59-0ab7-472c-ae8d-6dd8348350d7" cx="26.50011925" cy="18.6331563" r="2.85610868" style="fill:#d7d7d9;"/><path id="uuid-6e6d584f-8192-4cd9-8519-5c16df7b3091" d="M26.50011925,17.20510196c-.78869259,0-1.42805434,.63936175-1.42805434,1.42805434s.63936175,1.42805434,1.42805434,1.42805434,1.42805434-.63936175,1.42805434-1.42805434-.63936175-1.42805434-1.42805434-1.42805434h0Zm0-1.42805434c1.57738518,0,2.85610868,1.27872342,2.85610868,2.85610868,0,1.57738518-1.27872351,2.85610868-2.85610868,2.85610868-1.57738526,0-2.85610868-1.27872351-2.85610868-2.85610868,0-1.57738526,1.27872342-2.85610868,2.85610868-2.85610868Z" style="fill:#d7d7d9;"/><circle id="uuid-8cd61db5-3df1-4958-ad25-79fb24943ecf" cx="20.1124321" cy="14.34899327" r="2.85610868" style="fill:#d7d7d9;"/><path id="uuid-588db9c9-a932-42ae-a999-3e916145554f" d="M20.1124321,12.92093893c-.78869259,0-1.42805434,.63936175-1.42805434,1.42805434s.63936175,1.42805434,1.42805434,1.42805434,1.42805434-.63936175,1.42805434-1.42805434-.63936175-1.42805434-1.42805434-1.42805434h0Zm0-1.42805434c1.57738518,0,2.85610868,1.27872342,2.85610868,2.85610868,0,1.57738518-1.27872351,2.85610868-2.85610868,2.85610868-1.57738526,0-2.85610868-1.27872351-2.85610868-2.85610868,0-1.57738526,1.27872342-2.85610868,2.85610868-2.85610868Z" style="fill:#d7d7d9;"/><circle id="uuid-3795a19b-bdb1-410b-83b8-51fa9e31f057" cx="12.12818016" cy="21.48926499" r="2.85610868" style="fill:#d7d7d9;"/><path id="uuid-a726ec11-f533-4506-a3d5-66f39d58af3f" d="M12.12818016,20.06121064c-.78869259,0-1.42805434,.63936175-1.42805434,1.42805434s.63936175,1.42805434,1.42805434,1.42805434,1.42805434-.63936175,1.42805434-1.42805434-.63936175-1.42805434-1.42805434-1.42805434h0Zm0-1.42805434c1.57738518,0,2.85610868,1.27872342,2.85610868,2.85610868,0,1.57738518-1.27872351,2.85610868-2.85610868,2.85610868-1.57738526,0-2.85610868-1.27872351-2.85610868-2.85610868,0-1.57738526,1.27872342-2.85610868,2.85610868-2.85610868Z" style="fill:#d7d7d9;"/><path id="uuid-951f617e-6d7b-4cfe-b2fb-491506884bf5" d="M34.9941333,30.03475472h-7.4972853v-6.03349473l7.4972853-7.01597938v13.04947412Zm-9.63936681,0h-4.09423808v-8.8024419l4.09423808,2.97743752v5.82500438Zm-10.38055229-3.78046641c1.76323386,.65945333,3.30076306,2.29443286,4.1384309,3.73570193v-8.52001953l-4.1384309,4.78431761Z" style="fill:#d7d7d9;"/></g></g></g></svg>