<?xml version="1.0" encoding="UTF-8"?><svg id="uuid-90b75191-d71d-404c-9e38-d2fd80c2b350" xmlns="http://www.w3.org/2000/svg" viewBox="0 0 44.83260287 49.02136602"><g id="uuid-16306539-08b9-4ef9-bd69-7380483ef26d"><g id="uuid-e760dd9a-057d-43ba-a6e5-28505cd6c781"><g id="uuid-17571b4f-ae76-422f-993d-4e827150a0e5"><path d="M44.83260287,4.34997559V30.05999756c0,8.70001221-7.08001709,15.77996826-15.77996826,15.77996826h-6.7300415c-.2699585,0-.51000977-.07000732-.72998047-.19995117,.38000488-.60003662,.7199707-1.24005127,1.01000977-1.90002441,.13000488-.29998779,.25-.59997559,.34997559-.90002441h6.10003662c7.04998779,0,12.77996826-5.72998047,12.77996826-12.77996826V4.34997559c0-.73999023-.60998535-1.34997559-1.35998535-1.34997559H9.06258334c-.75,0-1.35998535,.60998535-1.35998535,1.34997559V25.61999512c-1,.20996094-1.9699707,.53997803-2.89001465,.97998047-.06994629-.16998291-.10998535-.35998535-.10998535-.55999756V4.34997559C4.70259799,1.95001221,6.66261996,0,9.06258334,0h31.41003418c2.39996338,0,4.35998535,1.95001221,4.35998535,4.34997559Z" style="fill:#00cdd4;"/></g><g id="uuid-2198594f-1449-4a18-a55e-2bdd2b690550"><path id="uuid-e250091a-3e26-49fe-b094-687afaedc3ac" d="M33.90652148,32.91369972h7.99710435v1.42805434c0,5.52084812-4.47553193,9.9963804-9.9963804,9.9963804h0v-9.42515869c0-1.10416971,.89510634-1.99927605,1.99927605-1.99927605h0Z" style="fill:#00cdd4;"/></g><path d="M6.37955923,48.22112577c-1.24241304-.52703857-2.37012577-1.29130173-3.32000017-2.25-.95057583-.95832443-1.71068549-2.08830643-2.23999995-3.33000183-1.27520323-2.99769592-1.0525645-6.42262268,.60000008-9.22999954,.91912603-1.55410194,2.21589828-2.85087395,3.76999998-3.77000046,1.57276011-.94298935,3.37632608-1.43109512,5.20999956-1.40999985,1.82968807-.01458549,3.62830639,.47311783,5.19999981,1.40999985,1.56348515,.91037178,2.86549091,2.20893097,3.77999973,3.77000046,.94042397,1.57751083,1.4282589,3.38353729,1.40999985,5.22000122,.00590515,1.3766861-.27684021,2.73931885-.82999992,4-1.08621025,2.49954605-3.08045197,4.49378967-5.57999992,5.57999802-1.26295567,.54376221-2.62499332,.81957626-4,.81000137-1.37341213,.003479-2.73357153-.26855469-3.99999905-.79999924Zm9.27999973-8.27999878c.34934807,.01340485,.6889782-.11666489,.94000053-.36000061,.26891136-.25977325,.40506554-.62775803,.37000084-1,.03981972-.68367386-.48212814-1.27018356-1.16580296-1.31000137-.04802513-.00279617-.09617138-.00279617-.14419651,0H5.17955895c-.3513093-.01884842-.69488907,.10773468-.94999981,.34999847-.25700259,.26681137-.38796568,.63059998-.36000013,1-.03333521,.37010956,.09840727,.7360611,.36000013,1,.25409508,.24489212,.59742212,.37499619,.94999981,.36000061l10.48000002-.0399971Z" style="fill:#00cdd4;"/><g id="uuid-11e87a2c-14e1-4bc0-a145-0317d9f91e03"><path d="M14.36794223,22.07065123c-.25244141,0-.50488281-.09472656-.69921875-.28515625-.39501953-.38623047-.40185547-1.01953125-.015625-1.4140625l6.42626953-6.56884766c.32226562-.32910156,.82714844-.39550781,1.22363281-.16162109l5.93554688,3.50585938,8.37646484-8.02929688c.3984375-.38232422,1.03125-.37011719,1.41357422,.02978516,.38232422,.3984375,.36914062,1.03173828-.02978516,1.41357422l-8.92382812,8.55419922c-.32226562,.31054688-.81396484,.36767578-1.20068359,.13916016l-5.91357422-3.49267578-5.87792969,6.00830078c-.19580078,.20019531-.45556641,.30078125-.71484375,.30078125Z" style="fill:#00cdd4;"/><circle id="uuid-13e98619-b212-4b32-9d5c-b88ad2758632" cx="35.80579354" cy="10.06483025" r="2.85610868" style="fill:#00cdd4;"/><path id="uuid-3ae3f8af-9f90-4a57-a48b-34550da181fc" d="M35.80579354,8.63677591c-.78869259,0-1.42805434,.63936175-1.42805434,1.42805434s.63936175,1.42805434,1.42805434,1.42805434,1.42805434-.63936175,1.42805434-1.42805434-.63936175-1.42805434-1.42805434-1.42805434h0Zm0-1.42805434c1.57738518,0,2.85610868,1.27872342,2.85610868,2.85610868,0,1.57738518-1.27872351,2.85610868-2.85610868,2.85610868-1.57738526,0-2.85610868-1.27872351-2.85610868-2.85610868,0-1.57738526,1.27872342-2.85610868,2.85610868-2.85610868Z" style="fill:#00cdd4;"/><circle id="uuid-b69a3f0c-9ab8-4880-9016-5f037ce77746" cx="27.82011364" cy="18.6331563" r="2.85610868" style="fill:#00cdd4;"/><path id="uuid-676800c9-d661-4ab9-9db6-94f84a4727b5" d="M27.82011364,17.20510196c-.78869259,0-1.42805434,.63936175-1.42805434,1.42805434s.63936175,1.42805434,1.42805434,1.42805434,1.42805434-.63936175,1.42805434-1.42805434-.63936175-1.42805434-1.42805434-1.42805434h0Zm0-1.42805434c1.57738518,0,2.85610868,1.27872342,2.85610868,2.85610868,0,1.57738518-1.27872351,2.85610868-2.85610868,2.85610868-1.57738526,0-2.85610868-1.27872351-2.85610868-2.85610868,0-1.57738526,1.27872342-2.85610868,2.85610868-2.85610868Z" style="fill:#00cdd4;"/><circle id="uuid-33e70d40-b3f8-4b58-a2ac-4db5579f2093" cx="21.4324265" cy="14.34899327" r="2.85610868" style="fill:#00cdd4;"/><path id="uuid-b7842e93-ae2f-4f9f-9f3d-ac43f854d429" d="M21.4324265,12.92093893c-.78869259,0-1.42805434,.63936175-1.42805434,1.42805434s.63936175,1.42805434,1.42805434,1.42805434,1.42805434-.63936175,1.42805434-1.42805434-.63936175-1.42805434-1.42805434-1.42805434h0Zm0-1.42805434c1.57738518,0,2.85610868,1.27872342,2.85610868,2.85610868,0,1.57738518-1.27872351,2.85610868-2.85610868,2.85610868-1.57738526,0-2.85610868-1.27872351-2.85610868-2.85610868,0-1.57738526,1.27872342-2.85610868,2.85610868-2.85610868Z" style="fill:#00cdd4;"/><circle id="uuid-b99ff2c9-0afb-4b9c-91bc-75404e5d2184" cx="13.44817456" cy="21.48926499" r="2.85610868" style="fill:#00cdd4;"/><path id="uuid-94471a1b-b64a-4b4b-8134-6c90af2b7d2f" d="M13.44817456,20.06121064c-.78869259,0-1.42805434,.63936175-1.42805434,1.42805434s.63936175,1.42805434,1.42805434,1.42805434,1.42805434-.63936175,1.42805434-1.42805434-.63936175-1.42805434-1.42805434-1.42805434h0Zm0-1.42805434c1.57738518,0,2.85610868,1.27872342,2.85610868,2.85610868,0,1.57738518-1.27872351,2.85610868-2.85610868,2.85610868-1.57738526,0-2.85610868-1.27872351-2.85610868-2.85610868,0-1.57738526,1.27872342-2.85610868,2.85610868-2.85610868Z" style="fill:#00cdd4;"/><path id="uuid-8b490c7f-050c-4bc1-9b79-a46421804897" d="M36.31412769,30.03475472h-7.4972853v-6.03349473l7.4972853-7.01597938v13.04947412Zm-9.63936681,0h-4.09423808v-8.8024419l4.09423808,2.97743752v5.82500438Zm-10.81212871-3.48476693c.39996338,.17999268,.78997803,.38000488,1.16998291,.60998535,1.28997803,.75,2.44000244,1.71002197,3.40002441,2.83001709v-8.52001953l-4.57000732,5.08001709Z" style="fill:#00cdd4;"/></g></g></g></svg>