<?xml version="1.0" encoding="UTF-8"?><svg id="uuid-f47e5c57-77d0-4673-8af9-a55b9fadd93b" xmlns="http://www.w3.org/2000/svg" viewBox="0 0 43.51119963 49.0199585"><g id="uuid-ee691b5b-730b-41da-b252-3d95a3e239bb"><g id="uuid-4cbfd499-6e7f-4b87-914c-e096c584ddd1"><g id="uuid-7886758b-4b53-4d30-b8c0-bf949de804ef"><path d="M43.51119963,4.34997559V30.05999756c0,8.70001221-7.07995605,15.77996826-15.77996826,15.77996826h-3.77001953l-3.05999756-3h6.83001709c7.04998779,0,12.77996826-5.72998047,12.77996826-12.77996826V4.34997559c0-.73999023-.60998535-1.34997559-1.35998535-1.34997559H7.74124113c-.75,0-1.36004639,.60998535-1.36004639,1.34997559V25.36871773c-1,.20996094-1.99357426,.56354491-2.88995361,1.23125785-.07000732-.16998291-.11004639-.35998535-.11004639-.55999756V4.34997559C3.38119474,1.95001221,5.34121672,0,7.74124113,0h31.40997314c2.40002441,0,4.35998535,1.95001221,4.35998535,4.34997559Z" style="fill:#00cdd4;"/></g><g><path d="M9.16613942,45.8118097c-5.05435608,0-9.16613942-4.11178334-9.16613942-9.16613942s4.11178334-9.16613942,9.16613942-9.16613942,9.16613942,4.11178334,9.16613942,9.16613942-4.11178334,9.16613942-9.16613942,9.16613942Zm0-15.58243701c-3.5380045,0-6.41629759,2.8782931-6.41629759,6.41629759s2.8782931,6.41629759,6.41629759,6.41629759,6.41629759-2.8782931,6.41629759-6.41629759-2.8782931-6.41629759-6.41629759-6.41629759Z" style="fill:#00cdd4;"/><path d="M20.16550672,49.0199585c-.34775832,0-.69551663-.13113666-.96316074-.39385755l-5.04137668-4.94962577c-.5420017-.53215526-.55005788-1.40266997-.01790262-1.9442241,.53126013-.54289683,1.4022224-.55005788,1.9442241-.01790262l5.04137668,4.94962577c.5420017,.53215526,.55005788,1.40266997,.01790262,1.9442241-.26898681,.27435759-.62524887,.41176017-.98106336,.41176017Z" style="fill:#00cdd4;"/></g><g id="uuid-f4df4f57-c4d8-47bb-bdde-920ed7f7fc76"><path id="uuid-6108cdd3-b062-4ab6-9a95-091d44ab3951" d="M32.58652709,32.91369972h7.99710435v1.42805434c0,5.52084812-4.47553193,9.9963804-9.9963804,9.9963804h0v-9.42515869c0-1.10416971,.89510634-1.99927605,1.99927605-1.99927605h0Z" style="fill:#00cdd4;"/></g><g id="uuid-3b675c8c-c1bb-4675-b607-33716223208e"><path d="M13.04794279,22.07065123c-.25244141,0-.50488281-.09472656-.69921875-.28515625-.39501953-.38623047-.40185547-1.01953125-.015625-1.4140625l6.42626953-6.56884766c.32275391-.32910156,.82714844-.39550781,1.22363281-.16162109l5.93554688,3.50585938,8.37646484-8.02929688c.39794922-.38232422,1.03125-.37011719,1.41357422,.02978516,.38232422,.3984375,.36914062,1.03173828-.02978516,1.41357422l-8.92382812,8.55419922c-.32324219,.31054688-.81396484,.36767578-1.20068359,.13916016l-5.91357422-3.49267578-5.87792969,6.00830078c-.19580078,.20019531-.45556641,.30078125-.71484375,.30078125Z" style="fill:#00cdd4;"/><circle id="uuid-9ae95c4c-58db-4e7d-82a3-c0f72c427784" cx="34.48579914" cy="10.06483025" r="2.85610868" style="fill:#00cdd4;"/><path id="uuid-f844b50c-4d91-4195-9318-33ac6f165632" d="M34.48579914,8.63677591c-.78869259,0-1.42805434,.63936175-1.42805434,1.42805434s.63936175,1.42805434,1.42805434,1.42805434,1.42805434-.63936175,1.42805434-1.42805434-.63936175-1.42805434-1.42805434-1.42805434h0Zm0-1.42805434c1.57738518,0,2.85610868,1.27872342,2.85610868,2.85610868,0,1.57738518-1.27872351,2.85610868-2.85610868,2.85610868-1.57738526,0-2.85610868-1.27872351-2.85610868-2.85610868,0-1.57738526,1.27872342-2.85610868,2.85610868-2.85610868Z" style="fill:#00cdd4;"/><circle id="uuid-cbf1a589-013c-4aea-8d18-7cf5cab9e9e9" cx="26.50011925" cy="18.6331563" r="2.85610868" style="fill:#00cdd4;"/><path id="uuid-b94c221a-bc43-4936-9375-1811c9a30e7c" d="M26.50011925,17.20510196c-.78869259,0-1.42805434,.63936175-1.42805434,1.42805434s.63936175,1.42805434,1.42805434,1.42805434,1.42805434-.63936175,1.42805434-1.42805434-.63936175-1.42805434-1.42805434-1.42805434h0Zm0-1.42805434c1.57738518,0,2.85610868,1.27872342,2.85610868,2.85610868,0,1.57738518-1.27872351,2.85610868-2.85610868,2.85610868-1.57738526,0-2.85610868-1.27872351-2.85610868-2.85610868,0-1.57738526,1.27872342-2.85610868,2.85610868-2.85610868Z" style="fill:#00cdd4;"/><circle id="uuid-7e63984f-0adc-481b-8f0b-70de4da85c53" cx="20.1124321" cy="14.34899327" r="2.85610868" style="fill:#00cdd4;"/><path id="uuid-2c63445d-f0e5-4bc8-b098-c7e056640e2a" d="M20.1124321,12.92093893c-.78869259,0-1.42805434,.63936175-1.42805434,1.42805434s.63936175,1.42805434,1.42805434,1.42805434,1.42805434-.63936175,1.42805434-1.42805434-.63936175-1.42805434-1.42805434-1.42805434h0Zm0-1.42805434c1.57738518,0,2.85610868,1.27872342,2.85610868,2.85610868,0,1.57738518-1.27872351,2.85610868-2.85610868,2.85610868-1.57738526,0-2.85610868-1.27872351-2.85610868-2.85610868,0-1.57738526,1.27872342-2.85610868,2.85610868-2.85610868Z" style="fill:#00cdd4;"/><circle id="uuid-935b46eb-b72b-4d3c-9cad-e233e3806bc3" cx="12.12818016" cy="21.48926499" r="2.85610868" style="fill:#00cdd4;"/><path id="uuid-5516d2f3-9210-4043-bd2c-68a8a7c51e19" d="M12.12818016,20.06121064c-.78869259,0-1.42805434,.63936175-1.42805434,1.42805434s.63936175,1.42805434,1.42805434,1.42805434,1.42805434-.63936175,1.42805434-1.42805434-.63936175-1.42805434-1.42805434-1.42805434h0Zm0-1.42805434c1.57738518,0,2.85610868,1.27872342,2.85610868,2.85610868,0,1.57738518-1.27872351,2.85610868-2.85610868,2.85610868-1.57738526,0-2.85610868-1.27872351-2.85610868-2.85610868,0-1.57738526,1.27872342-2.85610868,2.85610868-2.85610868Z" style="fill:#00cdd4;"/><path id="uuid-ee2fe1a3-4d61-4a78-87d4-99beeb630bdc" d="M34.9941333,30.03475472h-7.4972853v-6.03349473l7.4972853-7.01597938v13.04947412Zm-9.63936681,0h-4.09423808v-8.8024419l4.09423808,2.97743752v5.82500438Zm-10.38055229-3.78046641c1.76323386,.65945333,3.30076306,2.29443286,4.1384309,3.73570193v-8.52001953l-4.1384309,4.78431761Z" style="fill:#00cdd4;"/></g></g></g></svg>