<?xml version="1.0" encoding="UTF-8"?><svg id="uuid-0663c990-7256-4cb1-9bb0-8dc21a16e117" xmlns="http://www.w3.org/2000/svg" viewBox="0 0 44.83282622 49.0202178"><g id="uuid-92fcf7c5-762e-4e81-972c-c0c138a83118"><g id="uuid-e88b4ac5-4b08-4520-8432-29a4a5af7201"><g id="uuid-3bb31bec-7653-475f-bd42-651c6f58d364"><path d="M44.83282622,4.34997559V30.05999756c0,8.70001221-7.08001709,15.77996826-15.77996826,15.77996826h-6.7300415c-.2699585,0-.51000977-.07000732-.72998047-.19995117,.38000488-.60003662,.7199707-1.24005127,1.01000977-1.90002441,.13000488-.29998779,.25-.59997559,.34997559-.90002441h6.10003662c7.04998779,0,12.77996826-5.72998047,12.77996826-12.77996826V4.34997559c0-.73999023-.60998535-1.34997559-1.35998535-1.34997559H9.06280669c-.75,0-1.35998535,.60998535-1.35998535,1.34997559V25.61999512c-1,.20996094-1.9699707,.53997803-2.89001465,.97998047-.06994629-.16998291-.10998535-.35998535-.10998535-.55999756V4.34997559C4.70282133,1.95001221,6.66284331,0,9.06280669,0h31.41003418c2.39996338,0,4.35998535,1.95001221,4.35998535,4.34997559Z" style="fill:#00cdd4;"/></g><g id="uuid-07e5f759-5dcb-47ab-abba-e390b52368ca"><path id="uuid-e9f53a54-8661-481e-b937-9d185fc10528" d="M33.90674483,32.91369972h7.99710435v1.42805434c0,5.52084812-4.47553193,9.9963804-9.9963804,9.9963804h0v-9.42515869c0-1.10416971,.89510634-1.99927605,1.99927605-1.99927605h0Z" style="fill:#00cdd4;"/></g><path d="M19.37654086,33.40997314c-.90997314-1.55999756-2.20996094-2.85998535-3.77996826-3.7699585-1.57000732-.94000244-3.36999512-1.42004395-5.20001221-1.41003418-1.83001709-.02001953-3.63000488,.47003174-5.21002197,1.41003418-1.54998779,.91998291-2.84997559,2.2199707-3.7699585,3.7699585-1.65002441,2.80999756-1.86999512,6.2300415-.60003662,9.2300415,.5300293,1.23999023,1.29003906,2.36999512,2.23999023,3.32995605,.95001221,.96002197,2.08001709,1.72003174,3.32000732,2.25,1.27001953,.5300293,2.63000488,.79998779,4,.79998779,1.38000488,.01000977,2.73999023-.2699585,4-.80999756,2.5-1.08996582,4.5-3.07995605,5.58001709-5.57995605,.55999756-1.26000977,.84002686-2.61999512,.83001709-4,.0199585-1.84002686-.47003174-3.64001465-1.41003418-5.22003174Zm-2.77996826,6.16998291c-.25,.24005127-.59002686,.37005615-.94000244,.36004639l-3.89001465,.01000977,.01000977,3.91998291c.01000977,.34997559-.11999512,.69000244-.35998535,.95001221-.27001953,.25994873-.63000488,.38995361-1,.35998535-.36999512,.02001953-.7300415-.10998535-1-.35998535-.24005127-.26000977-.36999512-.60003662-.35003662-.95001221v-3.90002441l-3.89001465,.01000977c-.34997559,.02001953-.69000244-.10998535-.94995117-.35998535-.26000977-.26000977-.39001465-.63000488-.36004639-1-.0199585-.36999512,.11004639-.72998047,.36004639-1,.25994873-.23999023,.59997559-.36999512,.94995117-.35003662h3.89001465v-4.02996826c.04003906-.67999268,.63000488-1.20001221,1.30999756-1.16003418,.36999512-.03997803,.73999023,.10003662,1,.37005615,.23999023,.25,.36999512,.58996582,.35998535,.94000244l.01000977,3.87994385h4.05999756c.67999268,.04003906,1.20001221,.63000488,1.16003418,1.30999756,.03997803,.37005615-.10003662,.74005127-.36999512,1Z" style="fill:#00cdd4;"/><g id="uuid-9689e5e8-5f8d-48a4-9c12-a7e99fe1837f"><path d="M14.36811801,22.07065123c-.25244141,0-.50488281-.09472656-.69921875-.28515625-.39501953-.38623047-.40185547-1.01953125-.015625-1.4140625l6.42626953-6.56884766c.32226562-.32910156,.82617188-.39550781,1.22363281-.16162109l5.93554688,3.50585938,8.37646484-8.02929688c.3984375-.38232422,1.03125-.37011719,1.41357422,.02978516,.38232422,.3984375,.36914062,1.03173828-.02978516,1.41357422l-8.92382812,8.55419922c-.32324219,.31054688-.81396484,.36767578-1.20068359,.13916016l-5.91357422-3.49267578-5.87792969,6.00830078c-.19580078,.20019531-.45556641,.30078125-.71484375,.30078125Z" style="fill:#00cdd4;"/><circle id="uuid-66ba91db-1b64-446f-bda2-1da6b26619bb" cx="35.80601688" cy="10.06483025" r="2.85610868" style="fill:#00cdd4;"/><path id="uuid-cf01af57-e777-4f99-b8b1-a49d44f78ce0" d="M35.80601688,8.63677591c-.78869259,0-1.42805434,.63936175-1.42805434,1.42805434s.63936175,1.42805434,1.42805434,1.42805434,1.42805434-.63936175,1.42805434-1.42805434-.63936175-1.42805434-1.42805434-1.42805434h0Zm0-1.42805434c1.57738518,0,2.85610868,1.27872342,2.85610868,2.85610868,0,1.57738518-1.27872351,2.85610868-2.85610868,2.85610868-1.57738526,0-2.85610868-1.27872351-2.85610868-2.85610868,0-1.57738526,1.27872342-2.85610868,2.85610868-2.85610868Z" style="fill:#00cdd4;"/><circle id="uuid-f7a1d3e6-dd1c-45ab-8412-dd38c33647bf" cx="27.82033699" cy="18.6331563" r="2.85610868" style="fill:#00cdd4;"/><path id="uuid-5d8875a1-f44d-4ef1-bd69-b7934b4e4dc9" d="M27.82033699,17.20510196c-.78869259,0-1.42805434,.63936175-1.42805434,1.42805434s.63936175,1.42805434,1.42805434,1.42805434,1.42805434-.63936175,1.42805434-1.42805434-.63936175-1.42805434-1.42805434-1.42805434h0Zm0-1.42805434c1.57738518,0,2.85610868,1.27872342,2.85610868,2.85610868,0,1.57738518-1.27872351,2.85610868-2.85610868,2.85610868-1.57738526,0-2.85610868-1.27872351-2.85610868-2.85610868,0-1.57738526,1.27872342-2.85610868,2.85610868-2.85610868Z" style="fill:#00cdd4;"/><circle id="uuid-b945934f-0247-4ca8-8fb3-4408df61c65d" cx="21.43264985" cy="14.34899327" r="2.85610868" style="fill:#00cdd4;"/><path id="uuid-a0343dcc-3512-4e2a-9ee4-f7d0eb9ccf08" d="M21.43264985,12.92093893c-.78869259,0-1.42805434,.63936175-1.42805434,1.42805434s.63936175,1.42805434,1.42805434,1.42805434,1.42805434-.63936175,1.42805434-1.42805434-.63936175-1.42805434-1.42805434-1.42805434h0Zm0-1.42805434c1.57738518,0,2.85610868,1.27872342,2.85610868,2.85610868,0,1.57738518-1.27872351,2.85610868-2.85610868,2.85610868-1.57738526,0-2.85610868-1.27872351-2.85610868-2.85610868,0-1.57738526,1.27872342-2.85610868,2.85610868-2.85610868Z" style="fill:#00cdd4;"/><circle id="uuid-6e5e0bb2-0325-4116-a726-1c01ce14d0a6" cx="13.4483979" cy="21.48926499" r="2.85610868" style="fill:#00cdd4;"/><path id="uuid-c83230ee-7d66-4339-887d-a34318a7e8cf" d="M13.4483979,20.06121064c-.78869259,0-1.42805434,.63936175-1.42805434,1.42805434s.63936175,1.42805434,1.42805434,1.42805434,1.42805434-.63936175,1.42805434-1.42805434-.63936175-1.42805434-1.42805434-1.42805434h0Zm0-1.42805434c1.57738518,0,2.85610868,1.27872342,2.85610868,2.85610868,0,1.57738518-1.27872351,2.85610868-2.85610868,2.85610868-1.57738526,0-2.85610868-1.27872351-2.85610868-2.85610868,0-1.57738526,1.27872342-2.85610868,2.85610868-2.85610868Z" style="fill:#00cdd4;"/><path id="uuid-6d587fcc-46e6-4000-a170-167715d9473a" d="M36.31435104,30.03475472h-7.4972853v-6.03349473l7.4972853-7.01597938v13.04947412Zm-9.63936681,0h-4.09423808v-8.8024419l4.09423808,2.97743752v5.82500438Zm-10.81212871-3.48476693c.39996338,.17999268,.78997803,.38000488,1.16998291,.60998535,1.28997803,.75,2.44000244,1.71002197,3.40002441,2.83001709v-8.52001953l-4.57000732,5.08001709Z" style="fill:#00cdd4;"/></g></g></g></svg>