<?xml version="1.0" encoding="UTF-8"?><svg id="uuid-16ffc29a-4064-4fee-af60-b758184f88b4" xmlns="http://www.w3.org/2000/svg" viewBox="0 0 44.83260287 49.02136602"><g id="uuid-d4ff2f4d-4acf-4790-b0df-524bcfab2459"><g id="uuid-37da9788-0fb5-4da6-b9b8-7e57269c553c"><g id="uuid-1f00e2a1-6bc7-442c-9f45-24d9925be970"><path d="M44.83260287,4.34997559V30.05999756c0,8.70001221-7.08001709,15.77996826-15.77996826,15.77996826h-6.7300415c-.2699585,0-.51000977-.07000732-.72998047-.19995117,.38000488-.60003662,.7199707-1.24005127,1.01000977-1.90002441,.13000488-.29998779,.25-.59997559,.34997559-.90002441h6.10003662c7.04998779,0,12.77996826-5.72998047,12.77996826-12.77996826V4.34997559c0-.73999023-.60998535-1.34997559-1.35998535-1.34997559H9.06258334c-.75,0-1.35998535,.60998535-1.35998535,1.34997559V25.61999512c-1,.20996094-1.9699707,.53997803-2.89001465,.97998047-.06994629-.16998291-.10998535-.35998535-.10998535-.55999756V4.34997559C4.70259799,1.95001221,6.66261996,0,9.06258334,0h31.41003418c2.39996338,0,4.35998535,1.95001221,4.35998535,4.34997559Z" style="fill:#d7d7d9;"/></g><g id="uuid-06948d0b-0096-4f08-9933-6e69eda60971"><path id="uuid-8e6f35b3-87f8-4523-a256-9fbb2e70ea1e" d="M33.90652148,32.91369972h7.99710435v1.42805434c0,5.52084812-4.47553193,9.9963804-9.9963804,9.9963804h0v-9.42515869c0-1.10416971,.89510634-1.99927605,1.99927605-1.99927605h0Z" style="fill:#d7d7d9;"/></g><path d="M6.37955923,48.22112577c-1.24241304-.52703857-2.37012577-1.29130173-3.32000017-2.25-.95057583-.95832443-1.71068549-2.08830643-2.23999995-3.33000183-1.27520323-2.99769592-1.0525645-6.42262268,.60000008-9.22999954,.91912603-1.55410194,2.21589828-2.85087395,3.76999998-3.77000046,1.57276011-.94298935,3.37632608-1.43109512,5.20999956-1.40999985,1.82968807-.01458549,3.62830639,.47311783,5.19999981,1.40999985,1.56348515,.91037178,2.86549091,2.20893097,3.77999973,3.77000046,.94042397,1.57751083,1.4282589,3.38353729,1.40999985,5.22000122,.00590515,1.3766861-.27684021,2.73931885-.82999992,4-1.08621025,2.49954605-3.08045197,4.49378967-5.57999992,5.57999802-1.26295567,.54376221-2.62499332,.81957626-4,.81000137-1.37341213,.003479-2.73357153-.26855469-3.99999905-.79999924Zm9.27999973-8.27999878c.34934807,.01340485,.6889782-.11666489,.94000053-.36000061,.26891136-.25977325,.40506554-.62775803,.37000084-1,.03981972-.68367386-.48212814-1.27018356-1.16580296-1.31000137-.04802513-.00279617-.09617138-.00279617-.14419651,0H5.17955895c-.3513093-.01884842-.69488907,.10773468-.94999981,.34999847-.25700259,.26681137-.38796568,.63059998-.36000013,1-.03333521,.37010956,.09840727,.7360611,.36000013,1,.25409508,.24489212,.59742212,.37499619,.94999981,.36000061l10.48000002-.0399971Z" style="fill:#d7d7d9;"/><g id="uuid-73d3f242-025e-4d8f-b14f-cf8a70f4fcc6"><path d="M14.36794223,22.07092285c-.25244141,0-.50488281-.09472656-.69921875-.28515625-.39501953-.38623047-.40185547-1.01953125-.015625-1.4140625l6.42626953-6.56884766c.32226562-.32861328,.82714844-.39550781,1.22314453-.16162109l5.93603516,3.50537109,8.37646484-8.02880859c.3984375-.38232422,1.03125-.36962891,1.41357422,.02978516,.38232422,.3984375,.36914062,1.03173828-.02978516,1.41357422l-8.92382812,8.55371094c-.32226562,.31054688-.81494141,.36816406-1.20019531,.13916016l-5.9140625-3.4921875-5.87792969,6.00830078c-.19580078,.20019531-.45556641,.30078125-.71484375,.30078125Z" style="fill:#d7d7d9;"/><circle id="uuid-99a77d36-481d-4c80-bfe4-aad700f44978" cx="35.80579354" cy="10.06483025" r="2.85610868" style="fill:#d7d7d9;"/><path id="uuid-f0eba3a6-d594-4ef2-86d8-e5a906695886" d="M35.80579354,8.63677591c-.78869259,0-1.42805434,.63936175-1.42805434,1.42805434s.63936175,1.42805434,1.42805434,1.42805434,1.42805434-.63936175,1.42805434-1.42805434-.63936175-1.42805434-1.42805434-1.42805434h0Zm0-1.42805434c1.57738518,0,2.85610868,1.27872342,2.85610868,2.85610868,0,1.57738518-1.27872351,2.85610868-2.85610868,2.85610868-1.57738526,0-2.85610868-1.27872351-2.85610868-2.85610868,0-1.57738526,1.27872342-2.85610868,2.85610868-2.85610868Z" style="fill:#d7d7d9;"/><circle id="uuid-a563311a-8053-449c-a6c4-2007ea94beed" cx="27.82011364" cy="18.6331563" r="2.85610868" style="fill:#d7d7d9;"/><path id="uuid-68aeca21-460c-4760-bea2-433ef114219f" d="M27.82011364,17.20510196c-.78869259,0-1.42805434,.63936175-1.42805434,1.42805434s.63936175,1.42805434,1.42805434,1.42805434,1.42805434-.63936175,1.42805434-1.42805434-.63936175-1.42805434-1.42805434-1.42805434h0Zm0-1.42805434c1.57738518,0,2.85610868,1.27872342,2.85610868,2.85610868,0,1.57738518-1.27872351,2.85610868-2.85610868,2.85610868-1.57738526,0-2.85610868-1.27872351-2.85610868-2.85610868,0-1.57738526,1.27872342-2.85610868,2.85610868-2.85610868Z" style="fill:#d7d7d9;"/><circle id="uuid-64db3d98-0fe7-411e-bdfd-f6951ba36325" cx="21.4324265" cy="14.34899327" r="2.85610868" style="fill:#d7d7d9;"/><path id="uuid-8eb777de-25b0-4299-bd0f-4bf699e88f7e" d="M21.4324265,12.92093893c-.78869259,0-1.42805434,.63936175-1.42805434,1.42805434s.63936175,1.42805434,1.42805434,1.42805434,1.42805434-.63936175,1.42805434-1.42805434-.63936175-1.42805434-1.42805434-1.42805434h0Zm0-1.42805434c1.57738518,0,2.85610868,1.27872342,2.85610868,2.85610868,0,1.57738518-1.27872351,2.85610868-2.85610868,2.85610868-1.57738526,0-2.85610868-1.27872351-2.85610868-2.85610868,0-1.57738526,1.27872342-2.85610868,2.85610868-2.85610868Z" style="fill:#d7d7d9;"/><circle id="uuid-c00118cf-8b55-4198-b41d-4d07cef148e3" cx="13.44817456" cy="21.48926499" r="2.85610868" style="fill:#d7d7d9;"/><path id="uuid-14fad702-af10-45a5-baab-17779eb6dee3" d="M13.44817456,20.06121064c-.78869259,0-1.42805434,.63936175-1.42805434,1.42805434s.63936175,1.42805434,1.42805434,1.42805434,1.42805434-.63936175,1.42805434-1.42805434-.63936175-1.42805434-1.42805434-1.42805434h0Zm0-1.42805434c1.57738518,0,2.85610868,1.27872342,2.85610868,2.85610868,0,1.57738518-1.27872351,2.85610868-2.85610868,2.85610868-1.57738526,0-2.85610868-1.27872351-2.85610868-2.85610868,0-1.57738526,1.27872342-2.85610868,2.85610868-2.85610868Z" style="fill:#d7d7d9;"/><path id="uuid-ade4bd30-4f87-45db-bcc0-ac1af5dc6341" d="M36.31412769,30.03475472h-7.4972853v-6.03349473l7.4972853-7.01597938v13.04947412Zm-9.63936681,0h-4.09423808v-8.8024419l4.09423808,2.97743752v5.82500438Zm-10.81212871-3.48476693c.39996338,.17999268,.78997803,.38000488,1.16998291,.60998535,1.28997803,.75,2.44000244,1.71002197,3.40002441,2.83001709v-8.52001953l-4.57000732,5.08001709Z" style="fill:#d7d7d9;"/></g></g></g></svg>