<svg xmlns="http://www.w3.org/2000/svg" viewBox="0 0 56.21 56.21"><defs><style>.cls-1{fill:none;stroke:#5cffff;stroke-linecap:round;stroke-linejoin:round;stroke-width:4px;}</style></defs><g id="レイヤー_2" data-name="レイヤー 2"><g id="ICONS"><g id="Chat"><g id="ic_setting" data-name="ic setting"><path id="パス_387" data-name="パス 387" class="cls-1" d="M23.25,5.82a5,5,0,0,1,9.71,0A5,5,0,0,0,39,9.5a4.91,4.91,0,0,0,1.42-.59,5,5,0,0,1,6.88,6.88A5,5,0,0,0,49,22.66a5.54,5.54,0,0,0,1.42.59,5,5,0,0,1,0,9.71,5,5,0,0,0-3.68,6,4.91,4.91,0,0,0,.59,1.42,5,5,0,0,1-6.88,6.88A5,5,0,0,0,33.55,49,5.2,5.2,0,0,0,33,50.39a5,5,0,0,1-9.71,0,5,5,0,0,0-6-3.68,4.91,4.91,0,0,0-1.42.59,5,5,0,0,1-6.88-6.88,5,5,0,0,0-1.67-6.87A5.2,5.2,0,0,0,5.82,33a5,5,0,0,1,0-9.71,5,5,0,0,0,3.68-6,5.09,5.09,0,0,0-.59-1.43,5,5,0,0,1,6.88-6.87,5,5,0,0,0,6.86-1.66A5.43,5.43,0,0,0,23.25,5.82Z"/><circle id="楕円形_2" data-name="楕円形 2" class="cls-1" cx="28.1" cy="28.1" r="8.4"/></g></g></g></g></svg>