<svg xmlns="http://www.w3.org/2000/svg" viewBox="0 0 31.05 39.36"><defs><style>.cls-1{fill:#d7d7d9;}</style></defs><g id="レイヤー_2" data-name="レイヤー 2"><g id="ICONS"><path class="cls-1" d="M1.47,37.89A5.94,5.94,0,0,1,0,33.51V5.87A6,6,0,0,1,1.47,1.48,5.84,5.84,0,0,1,5.81,0H17a8.56,8.56,0,0,1,2.7.36,5.62,5.62,0,0,1,2.16,1.48l7.4,6.36a8.16,8.16,0,0,1,1.17,1.48,4.66,4.66,0,0,1,.53,1.55,13.51,13.51,0,0,1,.13,2.07V33.51a6,6,0,0,1-1.45,4.38,5.91,5.91,0,0,1-4.36,1.47H5.81A5.88,5.88,0,0,1,1.47,37.89ZM25,36.1a2.46,2.46,0,0,0,2.76-2.75V13.62h-7.7a3.81,3.81,0,0,1-2.76-.9A3.75,3.75,0,0,1,16.4,10V3.3H6A2.73,2.73,0,0,0,4,4,2.76,2.76,0,0,0,3.3,6V33.35a2.84,2.84,0,0,0,.68,2A2.71,2.71,0,0,0,6,36.1Zm2.24-25.45-7.9-6.83V9.61a1.12,1.12,0,0,0,.25.79,1.11,1.11,0,0,0,.81.25Z"/><rect class="cls-1" x="8.44" y="27.31" width="14.16" height="1.42"/><path class="cls-1" d="M7.51,23.4V17.58H6.08V16.15h4.11v1.43H8.76V23.4Z"/><path class="cls-1" d="M14.63,23.4H11.12V16.15h3.51v1.39H12.37v1.58h2.12v1.27H12.37V22h2.26Z"/><path class="cls-1" d="M18.64,19.77l1.61,3.63H18.82l-1-2.38h0l-1,2.38H15.44L17,19.75l-1.56-3.6h1.48l.94,2.45h.05l.94-2.45h1.41Z"/><path class="cls-1" d="M22.29,23.4V17.58H20.87V16.15H25v1.43H23.55V23.4Z"/><rect class="cls-1" x="8.44" y="30.39" width="14.16" height="1.42"/></g></g></svg>