<svg xmlns="http://www.w3.org/2000/svg" viewBox="0 0 43.11 47.55"><defs><style>.cls-1{fill:#5cffff;}</style></defs><g id="レイヤー_2" data-name="レイヤー 2"><g id="ICONS"><path class="cls-1" d="M6.38,46.75A10.38,10.38,0,0,1,3.06,44.5,10.67,10.67,0,0,1,.82,41.17a10.27,10.27,0,0,1,.6-9.23,10.72,10.72,0,0,1,3.77-3.77,9.91,9.91,0,0,1,5.21-1.41,10,10,0,0,1,5.2,1.41,10.51,10.51,0,0,1,3.78,3.77,10,10,0,0,1,1.41,5.22,9.85,9.85,0,0,1-.83,4,10.76,10.76,0,0,1-5.58,5.58,9.94,9.94,0,0,1-4,.81A10.27,10.27,0,0,1,6.38,46.75Zm9.28-8.28a1.28,1.28,0,0,0,.94-.36,1.23,1.23,0,0,0,.37-1,1.24,1.24,0,0,0-1.31-1.31H5.18a1.28,1.28,0,0,0-.95.35,1.3,1.3,0,0,0-.36,1,1.26,1.26,0,0,0,.36,1,1.29,1.29,0,0,0,.95.36ZM8.57,6.53A6.67,6.67,0,0,1,10.2,1.64,6.55,6.55,0,0,1,15,0h9.71a9.45,9.45,0,0,1,3,.4A6.17,6.17,0,0,1,30.15,2l10.91,11.1a8,8,0,0,1,1.3,1.66A4.87,4.87,0,0,1,43,16.52a14.73,14.73,0,0,1,.16,2.29V37.26a6.65,6.65,0,0,1-1.63,4.88,6.53,6.53,0,0,1-4.84,1.63H21.8A10.83,10.83,0,0,0,22.66,42a11.11,11.11,0,0,0,.56-1.89H36.38a2.73,2.73,0,0,0,3.07-3V19.18H28.2a4.2,4.2,0,0,1-3.06-1,4.15,4.15,0,0,1-1-3.07V3.67H15.29A3,3,0,0,0,13,4.46a3.11,3.11,0,0,0-.76,2.24V24.05l-1-.1c-.31,0-.62-.05-.92-.05s-.6,0-.9.05l-.9.1Zm19.11,9.06a1.24,1.24,0,0,0,.91.28H38.87L27.41,4.25V14.71A1.22,1.22,0,0,0,27.68,15.59Z"/></g></g></svg>