<svg xmlns="http://www.w3.org/2000/svg" viewBox="0 0 47.06 43.77"><defs><style>.cls-1{fill:#d7d7d9;}</style></defs><g id="レイヤー_2" data-name="レイヤー 2"><g id="ICONS"><path class="cls-1" d="M43.39,13l-2.86-2.84L25.73,25l-1.27,3a.67.67,0,0,0,.14.82.7.7,0,0,0,.78.16l3.16-1.17Zm3-3.05a1.87,1.87,0,0,0,.62-1.23,1.43,1.43,0,0,0-.52-1.16L46,7a1.51,1.51,0,0,0-1.17-.5,1.89,1.89,0,0,0-1.22.6L41.94,8.78l2.83,2.84Z"/><path class="cls-1" d="M30.88,29v8.1a2.73,2.73,0,0,1-3.07,3L6.72,40a3,3,0,0,1-2.28-.78A3.07,3.07,0,0,1,3.67,37V6.7a3.07,3.07,0,0,1,.77-2.24,3,3,0,0,1,2.28-.79h8.83V15.1a4.15,4.15,0,0,0,1,3.07,4.2,4.2,0,0,0,3.06,1H28L33.21,14c-.21-.26-.44-.53-.71-.81L21.58,2A6.17,6.17,0,0,0,19.18.4a9.45,9.45,0,0,0-3-.4H6.46A6.55,6.55,0,0,0,1.63,1.64,6.67,6.67,0,0,0,0,6.53V37.18a6.63,6.63,0,0,0,1.63,4.88,6.51,6.51,0,0,0,4.83,1.65h6.81a.21.21,0,0,0,0,.06H28.07a6.53,6.53,0,0,0,4.84-1.63,6.65,6.65,0,0,0,1.63-4.88V25.35Zm-12-24.74L30.3,15.87H20a1.24,1.24,0,0,1-.91-.28,1.22,1.22,0,0,1-.27-.88Z"/></g></g></svg>