<svg xmlns="http://www.w3.org/2000/svg" viewBox="0 0 53.31 47.27"><defs><style>.cls-1{fill:#5cffff;}</style></defs><g id="レイヤー_2" data-name="レイヤー 2"><g id="ICONS"><path class="cls-1" d="M53.17,14.74a4.4,4.4,0,0,0-.53-1.54,7,7,0,0,0-1.16-1.47L41.75,1.82A5.74,5.74,0,0,0,39.6.35,8.75,8.75,0,0,0,36.92,0H28.26a5.84,5.84,0,0,0-4.32,1.47,5.93,5.93,0,0,0-1.45,4.36V17.45a3.1,3.1,0,0,0,2.21.29,3,3,0,0,0,.89-.37l.18-.08V6a2.71,2.71,0,0,1,.68-2,2.7,2.7,0,0,1,2-.7h7.87V13.47a3.72,3.72,0,0,0,.91,2.74,3.74,3.74,0,0,0,2.73.9h10v16a2.44,2.44,0,0,1-2.74,2.72H29.48a3,3,0,0,0,.05.42,3.64,3.64,0,0,0,.37.89,3.11,3.11,0,0,1,.44,1.93h17.2a5.86,5.86,0,0,0,4.32-1.46,6,6,0,0,0,1.45-4.35V16.79A13.09,13.09,0,0,0,53.17,14.74Zm-12.82-.58a1.11,1.11,0,0,1-.81-.25,1.07,1.07,0,0,1-.24-.78V3.79L49.53,14.16Z"/><g id="Chat"><g id="ic_setting" data-name="ic setting"><path class="cls-1" d="M17.87,47.27a4.65,4.65,0,0,1-1.1-.13,4.59,4.59,0,0,1-3.4-3.41,1.65,1.65,0,0,0-2-1.2,1.72,1.72,0,0,0-.47.19,4.64,4.64,0,0,1-6.37-6.37A1.64,1.64,0,0,0,4,34.1a2.11,2.11,0,0,0-.47-.19,4.64,4.64,0,0,1,0-9,1.58,1.58,0,0,0,1-.73,1.65,1.65,0,0,0,.2-1.24,1.63,1.63,0,0,0-.2-.47A4.64,4.64,0,0,1,6.1,16.09a4.6,4.6,0,0,1,4.82,0,1.69,1.69,0,0,0,1.24.19,1.61,1.61,0,0,0,1-.74,1.54,1.54,0,0,0,.19-.46h0a4.64,4.64,0,0,1,9,0,1.68,1.68,0,0,0,.74,1,1.58,1.58,0,0,0,1.24.19,1.54,1.54,0,0,0,.46-.19,4.64,4.64,0,0,1,6.38,6.37,1.64,1.64,0,0,0,.54,2.25,1.6,1.6,0,0,0,.47.19,4.64,4.64,0,0,1,0,9,1.64,1.64,0,0,0-1.21,2,1.52,1.52,0,0,0,.2.47,4.64,4.64,0,0,1,.54,3.51,4.64,4.64,0,0,1-6.92,2.86,1.63,1.63,0,0,0-2.24.55,1.57,1.57,0,0,0-.2.46A4.63,4.63,0,0,1,17.87,47.27Zm-6.09-7.79A4.64,4.64,0,0,1,16.28,43a1.64,1.64,0,0,0,3.18,0A4.77,4.77,0,0,1,20,41.71a4.64,4.64,0,0,1,6.37-1.55,1.64,1.64,0,0,0,2.25-2.25,4.48,4.48,0,0,1-.54-1.32A4.64,4.64,0,0,1,31.49,31a1.61,1.61,0,0,0,1.2-1.2,1.64,1.64,0,0,0-1.2-2,4.79,4.79,0,0,1-1.32-.55,4.63,4.63,0,0,1-1.54-6.37,1.67,1.67,0,0,0,0-1.7,1.64,1.64,0,0,0-2.25-.55,4.85,4.85,0,0,1-1.33.55,4.63,4.63,0,0,1-5.59-3.42,1.66,1.66,0,0,0-1.2-1.2,1.64,1.64,0,0,0-2,1.21,4.63,4.63,0,0,1-6.92,2.86,1.63,1.63,0,0,0-1.7,0,1.65,1.65,0,0,0-.55,2.25,4.3,4.3,0,0,1,.55,1.33,4.64,4.64,0,0,1-3.41,5.59A1.6,1.6,0,0,0,3.05,29a1.63,1.63,0,0,0,1.2,2,4.42,4.42,0,0,1,1.31.54,4.65,4.65,0,0,1,1.56,6.37,1.6,1.6,0,0,0,0,1.7,1.64,1.64,0,0,0,2.25.55,4.85,4.85,0,0,1,1.33-.55A4.51,4.51,0,0,1,11.78,39.48Z"/><path class="cls-1" d="M17.87,36.17a6.77,6.77,0,1,1,6.77-6.76A6.77,6.77,0,0,1,17.87,36.17Zm0-10.53a3.77,3.77,0,1,0,3.77,3.77A3.77,3.77,0,0,0,17.87,25.64Z"/></g></g></g></g></svg>