<svg xmlns="http://www.w3.org/2000/svg" xmlns:xlink="http://www.w3.org/1999/xlink" viewBox="0 0 51 51"><defs><style>.cls-1,.cls-2{fill:none;stroke-miterlimit:10;}.cls-1{stroke:#5cffff;stroke-width:3px;}.cls-2{stroke:#82ccd8;}.cls-3{clip-path:url(#clip-path);}.cls-4{fill:#5cffff;}</style><clipPath id="clip-path"><circle class="cls-1" cx="25.5" cy="25.5" r="24"/></clipPath></defs><g id="レイヤー_2" data-name="レイヤー 2"><g id="ICONS"><g id="グループ_458" data-name="グループ 458"><circle id="楕円形_15" data-name="楕円形 15" class="cls-2" cx="25.5" cy="25.5" r="24"/><g class="cls-3"><g id="マスクグループ_1" data-name="マスクグループ 1"><path id="Icon_awesome-user-alt" data-name="Icon awesome-user-alt" class="cls-4" d="M25.5,28.25A10.13,10.13,0,1,0,15.38,18.12,10.12,10.12,0,0,0,25.5,28.25Zm9,2.25H30.63a12.26,12.26,0,0,1-10.26,0H16.5a9,9,0,0,0-9,9v1.12c0,1.87,1.06,10,2.92,10H39.67c1.86,0,3.83-8.13,3.83-10V39.5A9,9,0,0,0,34.5,30.5Z"/></g></g><circle class="cls-1" cx="25.5" cy="25.5" r="24"/></g></g></g></svg>