<?xml version="1.0" encoding="UTF-8"?>
<svg id="_レイヤー_2" data-name="レイヤー_2" xmlns="http://www.w3.org/2000/svg" xmlns:xlink="http://www.w3.org/1999/xlink" viewBox="0 0 51.49 51">
  <defs>
    <style>
      .cls-1 {
        fill: none;
      }

      .cls-2 {
        fill: #d7d7d9;
      }

      .cls-3 {
        clip-path: url(#clippath);
      }
    </style>
    <clipPath id="clippath">
      <circle class="cls-1" cx="25.99" cy="25.5" r="24"/>
    </clipPath>
  </defs>
  <g id="_レイヤー_1-2" data-name="レイヤー_1">
    <g>
      <g class="cls-3">
        <g>
          <path class="cls-2" d="M25.97,28.28h.01c5.59-.04,10.1-4.6,10.06-10.2-.04-5.59-4.6-10.1-10.2-10.06-5.59.04-10.1,4.6-10.06,10.2h0c.04,5.6,4.6,10.1,10.19,10.06Z"/>
          <path class="cls-2" d="M35,30.46l-3.87.03c-3.24,1.52-6.99,1.55-10.26.08h-.25c.5.58.97,1.19,1.36,1.85,1.23,2.04,1.88,4.38,1.88,6.76.02,1.77-.33,3.52-1.04,5.18-1.13,2.66-3.07,4.86-5.51,6.35l23.01-.17c1.86-.01,3.77-8.16,3.76-10.03v-1.12c-.05-4.97-4.11-8.97-9.08-8.93Z"/>
        </g>
      </g>
      <path class="cls-2" d="M19.38,33.89c-.91-1.56-2.22-2.86-3.78-3.77-1.57-.94-3.37-1.42-5.2-1.41-1.83-.02-3.64.47-5.21,1.41-1.55.92-2.85,2.22-3.77,3.77-1.65,2.81-1.88,6.23-.6,9.23.53,1.24,1.29,2.37,2.24,3.33.95.96,2.08,1.72,3.32,2.25,1.27.53,2.63.8,4,.8,1.38,0,2.74-.27,4-.81,2.5-1.09,4.49-3.08,5.58-5.58.55-1.26.84-2.62.83-4,.02-1.84-.47-3.64-1.41-5.22ZM16.62,40.06c-.25.24-.59.37-.94.36h-3.93v3.93c0,.35-.12.69-.37.94h-.02c-.25.25-.59.38-.94.37-.04,0-.08,0-.11,0-.7-.02-1.25-.61-1.23-1.31v-3.87h-3.9c-.35.02-.7-.12-.95-.36-.26-.26-.39-.63-.36-1-.03-.37.1-.73.36-1,.26-.24.6-.37.95-.35h3.9v-3.91c0-.05,0-.1,0-.15.05-.69.65-1.22,1.34-1.18.35-.01.69.12.94.36.26.27.39.63.37,1v3.86h3.95s.1,0,.14,0c.68.04,1.21.63,1.17,1.31.04.37-.1.74-.37,1Z"/>
      <path class="cls-2" d="M25.99,0C11.93,0,.49,11.44.49,25.5c0,1.45.13,2.87.36,4.26.82-.83,1.74-1.56,2.74-2.17-.06-.69-.1-1.38-.1-2.09C3.49,13.09,13.58,3,25.99,3s22.5,10.09,22.5,22.5-10.09,22.5-22.5,22.5c-1.77,0-3.49-.21-5.15-.6-.73.91-1.57,1.72-2.51,2.43,2.42.76,4.99,1.18,7.65,1.18,14.06,0,25.5-11.44,25.5-25.5S40.05,0,25.99,0Z"/>
    </g>
  </g>
</svg>