<?xml version="1.0" encoding="UTF-8"?>
<svg id="_レイヤー_2" data-name="レイヤー_2" xmlns="http://www.w3.org/2000/svg" xmlns:xlink="http://www.w3.org/1999/xlink" viewBox="0 0 53.52 51">
  <defs>
    <style>
      .cls-1 {
        fill: none;
      }

      .cls-2 {
        fill: #00cdd4;
      }

      .cls-3 {
        clip-path: url(#clippath);
      }
    </style>
    <clipPath id="clippath">
      <circle class="cls-1" cx="25.5" cy="25.5" r="24"/>
    </clipPath>
  </defs>
  <g id="_レイヤー_1-2" data-name="レイヤー_1">
    <g>
      <path class="cls-2" d="M49.9,20.73l-2.86-2.84-14.8,14.84-1.27,3c-.15.27-.09.61.14.82.2.21.51.27.78.16l3.16-1.17,14.85-14.81ZM52.9,17.68c.36-.32.58-.76.62-1.23.02-.45-.17-.88-.52-1.16l-.49-.56c-.3-.33-.73-.51-1.17-.5-.47.04-.9.26-1.22.6l-1.67,1.68,2.83,2.84,1.62-1.67Z"/>
      <g>
        <g class="cls-3">
          <g>
            <path class="cls-2" d="M25.49,28.25s0,0,.01,0c5.59,0,10.13-4.53,10.14-10.12,0-5.59-4.53-10.13-10.12-10.14-5.59,0-10.13,4.53-10.14,10.12h0c0,5.6,4.52,10.13,10.11,10.14Z"/>
            <path class="cls-2" d="M36.71,38.13l-3.73,1.38c-.44.17-.89.25-1.35.25-.96,0-1.9-.37-2.6-1.05-1.16-1.1-1.47-2.8-.78-4.23l1.46-3.45.26-.26c-3.1,1.21-6.56,1.14-9.6-.26h-3.87c-4.97,0-9,4.03-9,9v1.12c0,1.87,1.06,10,2.92,10h29.25c1.86,0,3.83-8.13,3.83-10v-1.12c0-2.27-.85-4.34-2.23-5.92l-4.56,4.55Z"/>
          </g>
        </g>
        <path class="cls-2" d="M47.95,26.92c-.73,11.75-10.52,21.08-22.45,21.08S3,37.91,3,25.5,13.09,3,25.5,3c8.69,0,16.25,4.96,19.99,12.2l1.54-1.54.02.02.67-.67C43.33,5.25,35.02,0,25.5,0,11.44,0,0,11.44,0,25.5s11.44,25.5,25.5,25.5,25.5-11.44,25.5-25.5c0-.53-.02-1.05-.05-1.57l-3,2.99Z"/>
      </g>
    </g>
  </g>
</svg>