<?xml version="1.0" encoding="UTF-8"?>
<svg id="_レイヤー_2" data-name="レイヤー_2" xmlns="http://www.w3.org/2000/svg" xmlns:xlink="http://www.w3.org/1999/xlink" viewBox="0 0 49.85 48.82">
  <defs>
    <style>
      .cls-1, .cls-2 {
        fill: none;
      }

      .cls-2 {
        stroke: #e6e9f4;
        stroke-miterlimit: 10;
        stroke-width: 3px;
      }

      .cls-3 {
        fill: #e6e9f4;
      }

      .cls-4 {
        fill: #d7d7d9;
      }

      .cls-5 {
        clip-path: url(#clippath);
      }
    </style>
    <clipPath id="clippath">
      <circle class="cls-1" cx="16.14" cy="32.68" r="14.64"/>
    </clipPath>
  </defs>
  <g id="_レイヤー_1-2" data-name="レイヤー_1">
    <g>
      <path class="cls-4" d="M49.83,37.28v-18.45c0-.77-.05-1.53-.16-2.29-.1-.62-.31-1.22-.64-1.76-.36-.61-.8-1.17-1.3-1.66l-10.91-11.1c-.67-.72-1.51-1.27-2.44-1.6-.97-.29-1.98-.43-3-.4h-9.71c-1.76-.12-3.49.47-4.8,1.64-1.18,1.35-1.76,3.11-1.63,4.89l-.02,5.54c.3-.01.6-.05.91-.05.94,0,1.86.09,2.77.21v-5.53c-.05-.82.22-1.62.76-2.24.62-.57,1.45-.86,2.29-.79h8.85v11.44c-.09,1.12.27,2.22,1,3.07.85.73,1.95,1.09,3.06,1h11.25v17.93c.02.22.02.43,0,.65-.2,1.49-1.57,2.55-3.06,2.35h-7.69c-.5,1.29-1.12,2.51-1.86,3.66h9.86c1.77.14,3.51-.45,4.84-1.63,1.18-1.34,1.76-3.1,1.63-4.88ZM35.26,15.89c-.33.03-.66-.07-.91-.28-.2-.25-.3-.56-.27-.88V4.27l11.46,11.62h-10.28Z"/>
      <g>
        <g class="cls-5">
          <g id="_マスクグループ_1" data-name="マスクグループ_1">
            <path id="Icon_awesome-user-alt" class="cls-3" d="M16.14,34.36c3.41,0,6.18-2.76,6.19-6.17,0-3.41-2.76-6.18-6.17-6.19-3.41,0-6.18,2.76-6.19,6.17,0,0,0,0,0,0,0,3.41,2.76,6.18,6.17,6.18,0,0,0,0,0,0ZM21.63,35.73h-2.36c-1.99.91-4.27.91-6.26,0h-2.36c-3.03,0-5.49,2.46-5.49,5.49v.68c0,1.14.65,6.1,1.78,6.1h17.84c1.13,0,2.34-4.96,2.34-6.1v-.68c0-3.03-2.46-5.49-5.49-5.49Z"/>
          </g>
        </g>
        <circle class="cls-2" cx="16.14" cy="32.68" r="14.64"/>
      </g>
    </g>
  </g>
</svg>