<?xml version="1.0" encoding="UTF-8"?><svg id="uuid-d665d909-8ca1-4394-9ae7-14b9a43a6cef" xmlns="http://www.w3.org/2000/svg" xmlns:xlink="http://www.w3.org/1999/xlink" viewBox="0 0 303 52.6328125"><defs><filter id="uuid-21c7627b-abc6-4fe7-9bd2-8eaccfae3da0" filterUnits="userSpaceOnUse"><feOffset dx="0" dy="0"/><feGaussianBlur result="uuid-2a3077b8-f26c-4287-b8b0-d60090060667" stdDeviation="3"/><feFlood flood-color="#00ff2a" flood-opacity="1"/><feComposite in2="uuid-2a3077b8-f26c-4287-b8b0-d60090060667" operator="in"/><feComposite in="SourceGraphic"/></filter><filter id="uuid-81eb1b90-9e00-4ab9-b414-222dbbae859a" filterUnits="userSpaceOnUse"><feOffset dx="0" dy="0"/><feGaussianBlur result="uuid-e053b672-49df-4ae3-9d10-d63bde449c8f" stdDeviation="3"/><feFlood flood-color="#00ff2a" flood-opacity="1"/><feComposite in2="uuid-e053b672-49df-4ae3-9d10-d63bde449c8f" operator="in"/><feComposite in="SourceGraphic"/></filter><filter id="uuid-7001153c-41c9-4aab-8396-20dd62ff1fe0" filterUnits="userSpaceOnUse"><feOffset dx="0" dy="0"/><feGaussianBlur result="uuid-494a1373-f72e-4aab-b99b-77451d0a391e" stdDeviation="3"/><feFlood flood-color="#00ff2a" flood-opacity="1"/><feComposite in2="uuid-494a1373-f72e-4aab-b99b-77451d0a391e" operator="in"/><feComposite in="SourceGraphic"/></filter></defs><g id="uuid-d856fb2f-2c16-434f-b357-b6c87671f9f1"><g><path d="M9.84240723,19.85360718c40.69372198-.99809677,99.83182093-1.69076124,141.16385698-2.21495578,41.53719431,.29808425,100.23828843-2.45631181,141.163521,.708957,.83167964,.07667749,1.4441064,.81205957,1.3682397,1.64335839-.06738281,.73806763-.6552124,1.30337524-1.36785889,1.36785889-23.52728271,2.14694214-47.05462646,1.36312866-70.58190918,1.26956177,0,0-70.58197021-.55975342-70.58197021-.55975342-41.49585909-.52866851-100.2348402-1.21368972-141.16387939-2.21502686h0Z" style="fill:#00ff2a; filter:url(#uuid-21c7627b-abc6-4fe7-9bd2-8eaccfae3da0); opacity:.41;"/><path d="M275.47137451,29.89678955c4.93447796-4.32474984,10.42913737-7.93847983,16.02224491-11.33009192,.00003292,.00004431,.00003292,2.5738053,.00003292,2.5738053-5.59993947-3.39130823-11.09081535-6.99678967-16.02231275-11.33000148,6.15056242,2.2946972,11.92484366,5.42678157,17.56176286,8.75610286,.96984701,.54296146,.95966882,2.03383167-.00006387,2.5739948-5.63408019,3.32327429-11.41694613,6.45468288-17.56166408,8.75619044h0Z" style="fill:#00ff2a; filter:url(#uuid-81eb1b90-9e00-4ab9-b414-222dbbae859a); opacity:.41;"/><path d="M54.42974854,19.85360718c67.76295125-.59089955,167.15699027-1.89572345,233.98653899-2.24268348,2.89504477,.05519307,3.00479181,4.40433946-.00007456,4.48520182-66.49143829-.34320506-166.61596654-1.65415589-233.98646442-2.24251834h0Z" style="fill:#00cdd4; filter:url(#uuid-7001153c-41c9-4aab-8396-20dd62ff1fe0); opacity:.41;"/></g></g></svg>