<?xml version="1.0" encoding="UTF-8"?><svg xmlns="http://www.w3.org/2000/svg" xmlns:xlink="http://www.w3.org/1999/xlink" viewBox="0 0 1924.64227054 452.71954142"><defs><linearGradient id="uuid-c14fe713-6160-43a2-904b-0ee6ebf40074" x1="2.79924426" y1="183.64749359" x2="1923.27381722" y2="183.64749359" gradientUnits="userSpaceOnUse"><stop offset="0" stop-color="#e3f9fa"/><stop offset=".83688664" stop-color="#e3f9fa"/><stop offset="1" stop-color="#e3f9fa" stop-opacity=".94444444"/></linearGradient><linearGradient id="uuid-e4a415e9-3cb9-4087-bd6e-8979fae35cb5" x1="2.8758884" y1="186.2814469" x2="1923.33640984" y2="186.2814469" gradientUnits="userSpaceOnUse"><stop offset="0" stop-color="#c6f4f5"/><stop offset=".83688664" stop-color="#c7f3f5"/><stop offset="1" stop-color="#c7f3f5" stop-opacity=".88888889"/></linearGradient><linearGradient id="uuid-1f5b6d16-5d2f-43ba-9382-d3daf23436af" x1="2.9531244" y1="189.46700177" x2="1923.39940545" y2="189.46700177" gradientUnits="userSpaceOnUse"><stop offset="0" stop-color="#aaeef1"/><stop offset=".83688664" stop-color="#aaedef"/><stop offset="1" stop-color="#aaedef" stop-opacity=".83333333"/></linearGradient><linearGradient id="uuid-e7cf4c86-f027-4ce1-a729-469c45df4f30" x1="3.03126059" y1="193.04846045" x2="1923.46291114" y2="193.04846045" gradientUnits="userSpaceOnUse"><stop offset="0" stop-color="#8ee9ec"/><stop offset=".83688664" stop-color="#8ee7ea"/><stop offset="1" stop-color="#8ee7ea" stop-opacity=".77777778"/></linearGradient><linearGradient id="uuid-dc1e42d3-aae4-48c4-94f6-4f3c2b71121e" x1="3.11024555" y1="203.84893305" x2="1923.52707541" y2="203.84893305" gradientUnits="userSpaceOnUse"><stop offset="0" stop-color="#71e3e7"/><stop offset=".83688664" stop-color="#72e2e5"/><stop offset="1" stop-color="#72e2e5" stop-opacity=".72222222"/></linearGradient><linearGradient id="uuid-b9f84220-5030-46b9-ae68-b8c5fdda1816" x1="3.19000887" y1="208.77504925" x2="1923.5921102" y2="208.77504925" gradientUnits="userSpaceOnUse"><stop offset="0" stop-color="#55dee2"/><stop offset=".83688664" stop-color="#56dce0"/><stop offset="1" stop-color="#56dce0" stop-opacity=".66666667"/></linearGradient><linearGradient id="uuid-e4504592-cd21-4863-88a0-3206ccd78e68" x1="3.27046153" y1="213.19060686" x2="1923.65832844" y2="213.19060686" gradientUnits="userSpaceOnUse"><stop offset="0" stop-color="#39d8de"/><stop offset=".83688664" stop-color="#39d6da"/><stop offset="1" stop-color="#39d6da" stop-opacity=".61111111"/></linearGradient><linearGradient id="uuid-a8ec497d-10f9-44e1-899d-32d8f0a4c623" x1="3.35102991" y1="217.06655105" x2="1923.72621169" y2="217.06655105" gradientUnits="userSpaceOnUse"><stop offset="0" stop-color="#1cd3d9"/><stop offset=".83688664" stop-color="#1dd0d5"/><stop offset="1" stop-color="#1dd0d5" stop-opacity=".55555556"/></linearGradient><linearGradient id="uuid-db556349-2113-4281-8cb0-96d1f405f8f7" x1="3.43299495" y1="220.44353116" x2="1923.79653914" y2="220.44353116" gradientUnits="userSpaceOnUse"><stop offset="0" stop-color="#00cdd4"/><stop offset=".83688664" stop-color="#01cad0"/><stop offset="1" stop-color="#01cad0" stop-opacity=".5"/></linearGradient><linearGradient id="uuid-780d7b36-82dc-4611-a0ed-674d1761ae10" x1="3.36407872" y1="214.29502799" x2="1923.79879759" y2="214.29502799" xlink:href="#uuid-db556349-2113-4281-8cb0-96d1f405f8f7"/><linearGradient id="uuid-fbc90d48-6d2c-41d8-889c-ec70bde6e57d" x1="3.29530321" y1="207.94296391" x2="1923.80084348" y2="207.94296391" xlink:href="#uuid-db556349-2113-4281-8cb0-96d1f405f8f7"/><linearGradient id="uuid-0b4bd70d-d01f-4915-aa29-82ce95bbeef4" x1="3.22667416" y1="201.32671384" x2="1923.80270533" y2="201.32671384" xlink:href="#uuid-db556349-2113-4281-8cb0-96d1f405f8f7"/><linearGradient id="uuid-f117be93-3703-4298-beb6-6dc131d61396" x1="3.15819666" y1="194.37388697" x2="1923.80440683" y2="194.37388697" xlink:href="#uuid-db556349-2113-4281-8cb0-96d1f405f8f7"/><linearGradient id="uuid-9544d1e8-feff-4471-8413-c10877050652" x1="3.08987522" y1="187.01138349" x2="1923.80596776" y2="187.01138349" xlink:href="#uuid-db556349-2113-4281-8cb0-96d1f405f8f7"/><linearGradient id="uuid-85d8cb04-03fb-440a-8998-004388716491" x1="3.02171372" y1="179.1898355" x2="1923.80740479" y2="179.1898355" xlink:href="#uuid-db556349-2113-4281-8cb0-96d1f405f8f7"/><linearGradient id="uuid-d348fd4b-d762-4fe0-a74e-d378c0a55424" x1="2.95371544" y1="169.74201433" x2="1923.80873207" y2="169.74201433" xlink:href="#uuid-db556349-2113-4281-8cb0-96d1f405f8f7"/><linearGradient id="uuid-09a557f6-458c-4999-af1a-1d474e92a7b6" x1="2.88588307" y1="156.89359816" x2="1923.80996167" y2="156.89359816" xlink:href="#uuid-db556349-2113-4281-8cb0-96d1f405f8f7"/><linearGradient id="uuid-19c23d0d-1e56-4772-97c3-1b07cbcd4c52" x1="2.81821875" y1="144.22273842" x2="1923.81110397" y2="144.22273842" xlink:href="#uuid-db556349-2113-4281-8cb0-96d1f405f8f7"/></defs><g style="isolation:isolate;"><g id="uuid-c6b67a40-a334-4899-9478-0bd11b068e93"><g id="uuid-c27c3a35-d249-4a99-ae82-f99428ce4fcb"><g><g style="mix-blend-mode:screen; opacity:.5;"><path d="M3.04698224,423.36592306c121.02920129,20.8256,449.93126285-28.69575955,669.974168-108.52722621,147.58599412-53.54413205,548.49833864-185.24819929,633.44588652-125.97190592,84.94754789,59.27629337,158.28607315,77.43366646,317.6180444,47.58463475,159.33197126-29.84903171,299.50303261,88.61821846,299.50303261,88.61821846" style="fill:none; opacity:.2; stroke:#fff; stroke-miterlimit:10;"/><path d="M3.04698224,402.82268697c65.60822778,6.07927647,177.45530971,6.44858146,320.72408864-6.26231644,121.43671924-10.77394357,245.77289347-35.74341986,347.82122885-67.5970044,29.36101263-9.16480896,66.65781376-21.01631701,108.36293814-34.89295317,128.08445433-42.94166653,288.02999011-85.29933098,398.61249358-92.4232857,55.48589687-3.5745168,102.23139336-1.45812241,128.29012758,13.77555125,88.05039034,51.47337171,166.59183371,67.00182498,319.57299268,37.25736442,18.75230134-3.71628701,37.16257235-5.58366026,55.01124642-6.14530292,137.08309635-4.31358178,242.08588992,66.47958914,242.08588992,66.47958914" style="fill:none; opacity:.28888889; stroke:#f6f6f6; stroke-miterlimit:10;"/><path d="M3.04698224,382.27945108c66.70093759,1.05731167,166.64091624,10.36849866,318.67514257,8.07464305,124.76139618-1.88236975,247.24991576-20.56624026,348.44132442-47.26605884,30.73228401-8.10885448,68.11536894-18.8739004,109.11844758-32.66256111,136.12975194-46.35463546,293.96551001-83.78220485,399.66570027-84.6342754,52.41110856-.42249652,99.17346845,1.95392071,128.30108422,16.18736706,90.53462724,44.24048194,174.99536687,57.04962884,321.52794093,26.93009418,18.81320929-3.86702488,37.18426176-6.21958855,54.89796066-7.47868382,139.00924257-9.88082053,239.79327944,39.52903807,239.79327944,39.52903807" style="fill:none; opacity:.37777778; stroke:#eee; stroke-miterlimit:10;"/><path d="M3.04698224,361.73621519c67.79364741-3.96465313,155.74449184,13.96830548,316.62619651,22.41160254,128.02099722,6.71872114,248.84533699-5.12868305,349.06141998-26.93511328,32.13643867-6.99270004,69.60509925-16.63720172,109.87395702-30.43216904,144.29112965-49.43004418,299.85809099-82.34128949,400.71890695-76.8452651,49.31614122,2.68729449,95.99680536,5.49049271,128.31204086,18.59918287,92.5911326,37.55963557,183.33374715,46.75080584,323.48288919,16.60282395,18.86652175-4.0584448,37.20748974-6.87145766,54.78467489-8.81206471,140.94930957-15.56149184,237.50066896,12.57848699,237.50066896,12.57848699" style="fill:none; opacity:.46666667; stroke:#e5e5e5; stroke-miterlimit:10;"/><path d="M3.04698224,341.19297929c68.88635723-8.98661794,144.83771127,17.26441406,314.57725045,36.74856203,131.27297524,15.0686286,250.52170376,10.55543329,349.68151554-6.60416772,33.56472559-5.80837427,71.06464152-14.49009293,110.62946646-28.20177697,152.35284872-52.79978184,305.71910517-80.99874526,401.77211363-69.0562548,46.20669514,5.7449842,92.73593346,9.17913753,128.3229975,21.01099868,94.38219623,31.37985867,191.65948074,36.38241016,325.43783745,6.27555372,18.91850889-4.2576157,37.23053017-7.5385548,54.67138913-10.1454456,142.88889529-21.35764913,235.20805847-14.37206408,235.20805847-14.37206408" style="fill:none; opacity:.55555556; stroke:#dcdcdd; stroke-miterlimit:10;"/><path d="M3.04698224,320.6497434c69.97906705-14.00858274,133.97338946,20.2861196,312.52830438,51.08552152,134.55727734,23.21013492,252.24432496,26.46881843,350.3016111,13.72677784,35.008151-4.54912938,72.52076999-12.35286849,111.38497589-25.97138491,160.40168514-56.2068086,311.56918367-79.77812959,402.82532032-61.2672445,43.09264172,8.74114299,89.42276092,13.03591777,128.33395414,23.42281449,96.03691091,25.6359518,199.97104957,25.94576493,327.3927857-4.05171651,18.96869028-4.46558768,37.25179489-8.21994977,54.55810337-11.47882649,144.81414563-27.26933063,232.91544799-41.32261515,232.91544799-41.32261515" style="fill:none; opacity:.64444444; stroke:#d3d4d4; stroke-miterlimit:10;"/><path d="M3.04698224,300.10650751c71.07177686-19.03054754,123.18726265,23.06878072,310.47935832,65.42248101,137.89926369,31.18414615,253.98170305,42.59187513,350.92170667,34.0577234,36.45763093-3.20956202,73.97389299-10.2240489,112.14048533-23.74099284,168.43659344-59.65290197,317.44054428-78.70086516,403.878527-53.4782342,39.98878972,11.66874161,86.08555735,17.0671449,128.34491079,25.83463029,97.65328728,20.25998272,208.26675773,15.44229143,329.34773396-14.37898675,19.01648424-4.68360831,37.26986306-8.91454396,54.44481761-12.81220738,146.71208564-33.29466333,230.62283751-68.27316623,230.62283751-68.27316623" style="fill:none; opacity:.73333333; stroke:#cbcbcc; stroke-miterlimit:10;"/><path d="M3.04698224,279.56327162c72.16448668-24.05251234,112.50105658,25.64896608,308.43041226,79.7594405,141.31318217,39.02694062,255.70574214,58.90364562,351.54180223,54.38866895,37.90414228-1.78571946,75.40314484-8.16181737,112.89599477-21.51060077,176.35624003-63.41948014,323.37765743-77.78046945,404.93173369-45.6892239,36.91479203,14.52584236,82.74843913,21.2711997,128.35586743,28.2464461,99.30286168,15.18748052,216.54468108,4.87353035,331.30268221-24.70625698,19.06117919-4.91317051,37.28350026-9.6211194,54.33153185-14.14558827,148.57089512-39.43002956,228.33022703-95.2237173,228.33022703-95.2237173" style="fill:none; opacity:.82222222; stroke:#c2c3c3; stroke-miterlimit:10;"/><path d="M3.04698224,259.02003573c73.2571965-29.07447714,101.92581554,28.06140771,306.38146619,94.09639998,144.80536866,46.76917155,257.39361548,73.83543561,352.16189779,74.71961451,39.33813003,.36702094,76.86070002-6.01940076,113.65150421-19.28020871,184.40153764-66.83244908,329.434363-77.01507932,405.98494037-37.9002136,33.89351908,17.31849051,79.43116785,25.64033321,128.36682407,30.65826191,101.03570224,10.36033823,224.80260117-5.75882869,333.25763047-35.03352721,19.10189493-5.15607454,37.29166771-10.33838525,54.21824608-15.47896916,150.38012063-45.67028327,226.03761654-122.17426838,226.03761654-122.17426838" style="fill:none; opacity:.91111111; stroke:#b9baba; stroke-miterlimit:10;"/><path d="M3.04698224,238.47679964c74.34990633-34.09644199,91.46492708,30.33735961,304.33252011,108.43335961,212.86759303,78.096,348.06916839,121.48092272,467.18900701,78.00074365,192.44683534-70.24541805,335.66584876-76.3804767,407.03814706-30.11120323,103.32950876,66.98651173,365.5644993,22.9059312,517.69531978-29.10306987,152.13082047-52.00900107,223.74500604-149.12481971,223.74500604-149.12481971" style="fill:none; stroke:#949494; stroke-miterlimit:10;"/><path d="M3.04698224,248.02246091c77.94198088-36.21412804,144.78462894,5.07978419,351.27416669,77.19806563,206.48953776,72.11828144,339.53633607,125.61360477,462.59572142,81.17966781,188.23893793-68.22526047,321.33712191-62.50834774,389.10018859-17.90917134,98.43960727,64.83801958,344.37145414,30.71892663,491.55770362-19.56071876,147.18624948-50.27964538,225.5323454-129.04671365,225.5323454-129.04671365" style="fill:none; opacity:.88888889; stroke:#b9baba; stroke-miterlimit:10;"/><path d="M3.04698224,257.56812209c81.5340554-38.33181407,198.10433028-20.17779098,398.21581283,45.96277195,200.11148255,66.14056293,331.00350382,129.74628678,458.00243588,84.35859194,184.03104056-66.20510292,307.00839521-48.63621891,371.16223028-5.70713956,93.54970582,62.68952745,323.17840918,38.53192197,465.42008771-10.01836774,142.24167853-48.55028971,227.31968475-108.96860778,227.31968475-108.96860778" style="fill:none; opacity:.77777778; stroke:#c2c3c3; stroke-miterlimit:10;"/><path d="M3.04698224,267.11378327c85.12612991-40.4495001,251.42403163-45.43536616,445.15745897,14.72747827,193.73342734,60.16284443,322.47067158,133.87896879,453.40915033,87.53751607,179.82314319-64.18494536,292.67966851-34.76409009,353.22427198,6.49489222,88.65980437,60.54103531,301.98536422,46.34491732,439.2824718-.47601672,137.29710759-46.82093404,229.1070241-88.89050191,229.1070241-88.89050191" style="fill:none; opacity:.66666667; stroke:#cbcbcc; stroke-miterlimit:10;"/><path d="M3.04698224,276.65944444c88.71820443-42.56718612,304.74373297-70.69294134,492.0991051-16.50781542,187.35537213,54.18512592,313.93783934,138.0116508,448.81586478,90.7164402,175.61524583-62.1647878,278.3509418-20.89196126,335.28631367,18.69692399,83.76990292,58.39254318,280.79231925,54.15791267,413.1448559,9.0663343,132.35253664-45.09157837,230.89436345-68.81239604,230.89436345-68.81239604" style="fill:none; opacity:.55555556; stroke:#d3d4d4; stroke-miterlimit:10;"/><path d="M3.04698224,286.20510562c92.31027894-44.68487215,358.06343431-95.95051651,539.04075124-47.7431091,180.97731693,48.20740741,305.4050071,142.14433281,444.22257923,93.89536433,171.40734846-60.14463025,264.0222151-7.01983244,317.34835536,30.89895577,78.88000147,56.24405105,259.59927429,61.97090802,387.00723999,18.60868532,127.4079657-43.3622227,232.6817028-48.73429017,232.6817028-48.73429017" style="fill:none; opacity:.44444444; stroke:#dcdcdd; stroke-miterlimit:10;"/><path d="M3.04698224,295.7507668c95.90235346-46.80255818,411.38313566-121.20809169,585.98239738-78.97840278,174.59926172,42.22968891,296.87217486,146.27701482,439.62929369,97.07428846,167.19945109-58.12447269,249.6934884,6.85229639,299.41039706,43.10098755,73.99010002,54.09555892,238.40622933,69.78390336,360.86962408,28.15103634,122.46339475-41.63286703,234.46904215-28.6561843,234.46904215-28.6561843" style="fill:none; opacity:.33333333; stroke:#e5e5e5; stroke-miterlimit:10;"/><path d="M3.04698224,305.29642798c99.49442797-48.92024421,464.702837-146.46566686,632.92404351-110.21369646,168.22120651,36.2519704,288.33934262,150.40969683,435.03600814,100.25321259,162.99155372-56.10431513,235.36476169,20.72442521,281.47243875,55.30301932,69.10019857,51.94706678,217.21318437,77.59689871,334.73200818,37.69338735,117.51882381-39.90351136,236.2563815-8.57807843,236.2563815-8.57807843" style="fill:none; opacity:.22222222; stroke:#eee; stroke-miterlimit:10;"/><path d="M3.04698224,314.84208916c103.08650249-51.03793023,518.02253835-171.72324204,679.86568965-141.44899014,161.8431513,30.2742519,279.80651038,154.54237884,430.44272259,103.43213672,158.78365636-54.08415758,221.03603499,34.59655403,263.53448045,67.5050511,64.21029713,49.79857465,196.02013941,85.40989406,308.59439227,47.23573837,112.57425286-38.17415569,238.04372085,11.50002744,238.04372085,11.50002744" style="fill:none; opacity:.11111111; stroke:#f6f6f6; stroke-miterlimit:10;"/><path d="M3.04698224,324.38775043c106.67857704-53.15561628,571.3422402-196.98081746,726.80733624-172.68428412,155.46509603,24.29653333,271.27367805,158.67506089,425.849437,106.61106089s206.70730815,48.46868299,245.59652197,79.70708299c59.32039563,47.6500825,174.82709424,93.22288948,282.45677611,56.77808948,107.62968187-36.4448,239.83106022,31.5781335,239.83106022,31.5781335" style="fill:none; opacity:0; stroke:#fff; stroke-miterlimit:10;"/></g><g style="mix-blend-mode:overlay; opacity:.5;"><path d="M1924.56516868,285.11457471c-120.43774221-18.79677289-450.35738838,4.00374151-672.23627404,51.7723655-148.81741309,32.03911462-552.73482336,109.50131303-636.16253969,65.21493509-83.42771633-44.28637795-156.27085496-59.5321335-316.24071265-44.40743021C139.9557846,372.81914839,2.80353338,285.36118784,2.80353338,285.36118784" style="fill:none; opacity:.2; stroke:#fff; stroke-miterlimit:10;"/><path d="M1924.0570075,299.41749528c-64.1139465-6.3588026-172.14140245-10.92857885-312.46686933-7.6903163-124.27712677,2.86791823-253.05090385,16.1033593-358.22540538,35.33777316-28.70548075,5.24968589-64.95793113,12.01032753-105.57999693,19.9384811-129.76939755,25.55035083-293.03827532,49.88286479-404.71836796,50.79596922-54.9193294,.44902437-100.90501783-2.66433219-126.47762949-14.1887859-85.91417427-38.71774762-164.00714804-52.65878578-317.50030592-37.47232801-22.17193949,2.24828775-43.81654527,2.73205751-64.60744589,2.06106467C101.38071319,343.90375624,2.56541875,293.75665524,2.56541875,293.75665524" style="fill:none; opacity:.28888889; stroke:#f6f6f6; stroke-miterlimit:10; stroke-width:1.11111111px;"/><path d="M1923.54884632,313.72041571c-65.49300841-2.92654343-161.89327185-13.31164621-311.09081071-17.51661779-127.501792-3.59350038-254.07846333,5.2687998-358.05746468,21.03916625-29.86854145,4.53012472-66.04926528,10.59644239-105.89288572,18.46569942-137.80610959,27.61584532-298.55854539,48.546058-405.06936333,45.26049622-51.81628469-1.59838792-97.73297671-4.86273156-126.42720001-15.84980181-87.99743615-33.69437824-171.77759248-46.11119317-318.75989917-30.53722588-22.2714723,2.35984309-43.91593247,3.26017511-64.58620856,3.22214658-135.63876557-.24954397-231.33771001-35.65215615-231.33771001-35.65215615" style="fill:none; opacity:.37777778; stroke:#eee; stroke-miterlimit:10; stroke-width:1.22222222px;"/><path d="M1923.04068515,328.02333614c-66.87207031,.50571574-151.61169871-15.45552927-309.71475209-27.34291928-130.70009896-9.82702749-255.15334566-5.73974423-357.88952398,6.74055933-31.04427537,3.77123217-67.14059942,9.18255724-106.2057745,16.99291775-145.84282163,29.6813398-304.06133895,47.25780978-405.4203587,39.72502323-48.70528273-3.61967292-94.4897325-7.17054336-126.37677054-17.51081773-89.82565716-29.12851107-179.5257316-39.32859619-320.01949243-23.60212375-22.36795657,2.50380551-44.01745016,3.80456996-64.56497123,4.38322849-138.19198636,3.89175764-230.75985216-16.86161431-230.75985216-16.86161431" style="fill:none; opacity:.46666667; stroke:#e5e5e5; stroke-miterlimit:10; stroke-width:1.33333333px;"/><path d="M1922.53252397,342.32625657c-68.25113221,3.93797492-141.33302662-17.37718545-308.33869347-37.16922077-133.90148661-15.86882052-256.25906953-16.9082428-357.72158329-7.55804758-32.22879301,2.97001814-68.23193357,7.7686721-106.51866329,15.52013607-153.87953366,31.74683428-309.55169659,46.02964621-405.77135407,34.18955023-45.58878587-5.60982667-91.19802573-9.59770819-126.32634106-19.17183364-91.50472382-24.93936009-187.2695915-32.49891887-321.27908568-16.66702162-22.4639292,2.65389121-44.11970677,4.36447151-64.54373391,5.5443104-140.75058502,8.13076741-230.18199431,1.92892753-230.18199431,1.92892753" style="fill:none; opacity:.55555556; stroke:#dcdcdd; stroke-miterlimit:10; stroke-width:1.44444444px;"/><path d="M1922.02436279,356.629177c-69.63019412,7.37023409-131.08357718-19.09677423-306.96263485-46.99552226-137.12590659-21.75154431-257.38093708-28.22288226-357.55364259-21.8566545-33.41828613,2.12381626-69.32326772,6.35478696-106.83155208,14.0473544-161.9162457,33.81232877-315.03840917,44.87489354-406.12234944,28.65407723-42.47091488-7.5634948-87.87631969-12.14841823-126.27591159-20.83284955-93.1092985-21.05754954-195.00849849-25.62293009-322.53867894-9.73191949-22.55916189,2.81100426-44.22141423,4.93900493-64.52249658,6.70539231C87.91162022,319.08799544,1.61296027,327.3385245,1.61296027,327.3385245" style="fill:none; opacity:.64444444; stroke:#d3d4d4; stroke-miterlimit:10; stroke-width:1.55555556px;"/><path d="M1921.51620161,370.93209743c-71.00925602,10.80249326-120.88158441-20.63552156-305.58657623-56.82182375-140.38620235-27.50362885-258.5058713-39.67026145-357.38570189-36.15526141-34.6090252,1.23028857-70.41460187,4.94090182-107.14444086,12.57457272-169.95295774,35.87782325-320.53555258,43.80811171-406.47334481,23.11860424-39.35803813-9.47544035-84.53957526-14.82272431-126.22548211-22.49386547-94.69161566-17.42537957-202.74169277-18.70141635-323.79827219-2.79681736-22.65337452,2.97623507-44.32139708,5.52721695-64.50125925,7.86647421C84.55317192,313.13073044,1.37484565,335.73399182,1.37484565,335.73399182" style="fill:none; opacity:.73333333; stroke:#cbcbcc; stroke-miterlimit:10; stroke-width:1.66666667px;"/><path d="M1921.00804044,385.23501786c-72.38831792,14.23475243-110.73896932-22.01433059-304.21051761-66.64812524-143.690051-33.14922678-259.62225534-51.23751325-357.2177612-50.45386833-35.79735833,.28743555-71.50593602,3.52701667-107.45732965,11.10179105-177.98966978,37.94331773-326.06422024,42.8436889-406.82434018,17.58313124-36.25937948-11.3413916-81.19986716-17.61769541-126.17505264-24.15488138-96.28791836-13.99554048-210.4683022-11.73518802-325.05786544,4.13828477-22.74621905,3.15091077-44.41859787,6.1280997-64.48002192,9.02755612C81.21537356,307.27263336,1.13673102,344.12945914,1.13673102,344.12945914" style="fill:none; opacity:.82222222; stroke:#c2c3c3; stroke-miterlimit:10; stroke-width:1.77777778px;"/><path d="M1920.49987926,399.53793829c-73.76737983,17.66701161-100.6628582-23.25294269-302.83445899-76.47442673-147.04146867-38.70852854-260.71978353-62.91237176-357.0498205-64.75247524-36.97971335-.70638922-72.59727017,2.11313153-107.77021843,9.62900937-186.02638182,40.00881222-331.65403689,41.99312847-407.17533555,12.04765824-33.18745933-13.15938805-77.86685942-20.52828323-126.12462316-25.81589729-97.92302156-10.72944757-218.16119909-4.5453522-326.3174587,11.0733869-22.83168005,3.37461391-44.51207934,6.74061233-64.4587846,10.18863803C77.90590172,301.51234687,.8986164,352.52492645,.8986164,352.52492645" style="fill:none; opacity:.91111111; stroke:#b9baba; stroke-miterlimit:10; stroke-width:1.88888889px;"/><path d="M1919.99171808,413.84085886c-75.14644174,21.09927081-90.65682475-24.36948452-301.45840036-86.30072831-210.80157561-61.93124379-344.84472424-96.93781145-464.96498702-70.89485461-194.06309394,42.07430672-337.3435605,41.26061769-407.52633092,6.51218519-101.60736537-50.30717163-364.76739243-28.92763831-518.08879292,1.88129582C74.63180636,295.84769108,.66050178,360.92039385,.66050178,360.92039385" style="fill:none; stroke:#949494; stroke-miterlimit:10; stroke-width:2px;"/><path d="M1920.22784127,407.19483511c-78.78863482,22.44613788-144.56768253-8.67744417-349.14309039-66.22033179-204.57540786-57.54288762-336.21504541-99.51216286-460.29596322-72.94504385-189.80787878,40.81720778-322.68072496,32.11111111-389.29785132-1.346392-96.77369262-48.63769538-343.39444659-33.61483952-491.73161616-3.83438154C81.4221506,292.62914392,1.17705836,344.68778085,1.17705836,344.68778085" style="fill:none; opacity:.88888889; stroke:#b9baba; stroke-miterlimit:10; stroke-width:1.88888889px;"/><path d="M1920.46396446,400.54881143c-82.43082787,23.79300494-198.4785398,7.01459604-396.82777996-46.13993545-198.34924016-53.15453149-327.58536666-102.08651425-455.62693947-74.99523306-185.55266366,39.56010886-308.01788957,22.96160462-371.0693719-9.20496911-91.94001992-46.96821914-322.02150095-38.30204068-465.37443965-9.55005885C88.21249477,289.41059678,1.69361493,328.45516801,1.69361493,328.45516801" style="fill:none; opacity:.77777778; stroke:#c2c3c3; stroke-miterlimit:10; stroke-width:1.77777778px;"/><path d="M1920.70008765,393.90278774c-86.07302091,25.139872-252.38939707,22.70663624-444.51246953-26.05953912-192.12307247-48.76617536-318.95568791-104.66086563-450.95791572-77.04542228-181.29744855,38.30300993-293.35505417,13.81209813-352.84089247-17.06354622-87.10634722-45.2987429-300.64855531-42.98924184-439.01726315-15.26573616C95.00283894,286.19204965,2.21017151,312.22255516,2.21017151,312.22255516" style="fill:none; opacity:.66666667; stroke:#cbcbcc; stroke-miterlimit:10; stroke-width:1.66666667px;"/><path d="M1920.93621085,387.25676406c-89.71521396,26.48673905-306.30025433,38.39867645-492.19715911-5.97914278-185.89690478-44.37781923-310.32600916-107.23521702-446.28889196-79.0956115-177.04223343,37.04591101-278.69221877,4.66259163-334.61241304-24.92212334-82.27267452-43.62926667-279.27560967-47.676443-412.66008664-20.98141347C101.79318312,282.97350251,2.72672808,295.98994232,2.72672808,295.98994232" style="fill:none; opacity:.55555556; stroke:#d3d4d4; stroke-miterlimit:10; stroke-width:1.55555556px;"/><path d="M1921.17233404,380.61074037c-93.35740701,27.83360611-360.2111116,54.09071665-539.88184868,14.10125355-179.67073708-39.9894631-301.69633042-109.80956841-441.61986821-81.14580072-172.78701831,35.78881208-264.02938338-4.48691486-316.38393362-32.78070045-77.43900182-41.95979043-257.90266403-52.36364416-386.30291014-26.69709077C108.58352729,279.75495538,3.24328466,279.75732948,3.24328466,279.75732948" style="fill:none; opacity:.44444444; stroke:#dcdcdd; stroke-miterlimit:10; stroke-width:1.44444444px;"/><path d="M1921.40845723,373.96471669c-96.99960005,29.18047317-414.12196886,69.78275685-587.56653825,34.18164989-173.44456939-35.60110697-293.06665167-112.38391979-436.95084446-83.19598994-168.5318032,34.53171316-249.36654798-13.63642135-298.15545419-40.63927756-72.60532911-40.2903142-236.5297184-57.05084532-359.94573363-32.41276808-123.41601524,24.63807724-235.03004547,11.62638563-235.03004547,11.62638563" style="fill:none; opacity:.33333333; stroke:#e5e5e5; stroke-miterlimit:10; stroke-width:1.33333333px;"/><path d="M1921.64458042,367.31869301c-100.6417931,30.52734023-468.03282613,85.47479706-635.25122782,54.26204622-167.21840169-31.21275084-284.43697292-114.95827118-432.2818207-85.24617916-164.27658808,33.27461423-234.70371259-22.78592785-279.92697477-48.49785468-67.77165641-38.62083796-215.15677276-61.73804648-333.58855713-38.12844539-118.43178437,23.6096011-236.3196022-2.41615622-236.3196022-2.41615622" style="fill:none; opacity:.22222222; stroke:#eee; stroke-miterlimit:10; stroke-width:1.22222222px;"/><path d="M1921.88070361,360.67266932c-104.28398614,31.87420728-521.94368339,101.16683726-682.93591739,74.34244256-160.992234-26.8243947-275.80729418-117.53262257-427.61279695-87.29636837-160.02137296,32.01751531-220.04087719-31.93543434-261.69849534-56.35643179-62.93798371-36.95136172-193.78382712-66.42524764-307.23138062-43.84412269-113.4475535,22.58112495-237.60915893-16.45869808-237.60915893-16.45869808" style="fill:none; opacity:.11111111; stroke:#f6f6f6; stroke-miterlimit:10; stroke-width:1.11111111px;"/><path d="M1922.11682681,354.02664557c-107.92617922,33.22107436-575.85454117,116.85887762-730.62060742,94.42283909-154.76606625-22.43603853-267.17761535-120.10697398-422.94377315-89.34655761-155.76615781,30.76041637-205.37804165-41.08494092-243.47001574-64.21500898-58.10431097-35.28188547-172.41088128-71.11244885-280.87420386-49.55980006-108.46332259,21.55264879-238.89871567-30.50124007-238.89871567-30.50124007" style="fill:none; opacity:0; stroke:#fff; stroke-miterlimit:10;"/></g><g style="mix-blend-mode:overlay; opacity:.5;"><path d="M1923.04698224,144.19503736c-291.76147551,101.69417674-420.70705461-45.37734951-640.74995977,34.45411713-147.58599413,53.54413204-577.18141535,118.58277904-662.12896323,59.30648566-84.94754788-59.27629338-158.28607314-77.43366647-317.6180444-47.58463478C143.21804359,220.22003707,3.04698224,101.75278689,3.04698224,101.75278689" style="fill:none; opacity:.2; stroke:#fff; stroke-miterlimit:10;"/><path d="M1923.10710797,149.10065897c-178.1584903,63.00664474-300.18580372,42.78507219-433.06048512,23.00898264-66.92979865-9.96133859-130.71413851-9.84921925-204.38616159,9.39273042-46.75245842,12.21099156-113.95602023,23.48521711-190.66321078,39.50251408-140.01940278,29.23757655-294.03446716,39.76152895-389.9473502,27.08744046-35.00863861-4.62609995-63.47383598-11.27352193-80.98662403-21.93544183-86.86088472-52.88157388-165.21636984-66.71213641-319.04141805-35.80660608-12.10753378,2.43256711-24.08803831,4.15226683-35.90283477,5.18422399C124.34498337,208.54585362,3.10710797,113.80810188,3.10710797,113.80810188" style="fill:none; opacity:.28888889; stroke:url(#uuid-c14fe713-6160-43a2-904b-0ee6ebf40074); stroke-miterlimit:10;"/><path d="M1923.16723369,154.00628054c-165.18241732,59.3928694-287.96828567,59.28995214-430.95409124,32.70707848-69.2234672-12.86951999-132.34018784-14.11317087-203.18924243-2.35776947-49.93426543,8.28518231-114.90780887,14.15359004-190.85916752,31.67234062-146.70798093,33.83929625-296.35315119,37.62076359-389.25200692,20.98310724-33.4930271-5.99841054-61.94464248-12.5859449-80.95423237-22.65290795-88.41411592-46.82171703-172.13792188-55.91109951-320.46479168-24.0285775-12.08152702,2.59689665-24.02378444,4.59295768-35.79274937,6.01179278C125.9687516,213.9104312,3.1672337,125.86341674,3.1672337,125.86341674" style="fill:none; opacity:.37777778; stroke:url(#uuid-e4a415e9-3cb9-4087-bd6e-8979fae35cb5); stroke-miterlimit:10;"/><path d="M1923.22735942,158.91190211c-152.20634434,55.77909406-275.76518488,75.9709309-428.84769737,42.40517431-71.52618668-15.68324516-134.38033247-19.21853714-201.99232326-14.10826935-53.42009208,4.03761186-115.8443098,4.91844787-191.05512425,23.84216716-153.37686352,38.59100227-298.66324269,35.53751181-388.55666364,14.87877401-31.97491242-7.34827227-60.36435662-13.95078604-80.92184071-23.37037408-89.69323621-41.09809014-179.04817834-45.03094891-321.88816531-12.25054891-12.05490516,2.76648452-23.95831076,5.05242451-35.68266397,6.83936157C127.60725686,219.50337392,3.22735942,137.91873161,3.22735942,137.91873161" style="fill:none; opacity:.46666667; stroke:url(#uuid-1f5b6d16-5d2f-43ba-9382-d3daf23436af); stroke-miterlimit:10;"/><path d="M1923.28748515,163.81752367c-139.23027136,52.16531872-263.59099736,92.80621737-426.7413035,52.10327014-73.84294171-18.42243163-136.63605565-25.11578173-200.7954041-25.85876924-57.08120574-.66102016-116.76340349-4.23418037-191.25108099,16.0119937-160.01506745,43.49300473-300.973842,33.51882349-387.86132035,8.77444078-30.45742393-8.67386381-58.7438078-15.37942651-80.88944905-24.0878402-90.77874697-35.69726763-185.94438272-34.07229141-323.31153894-.47252033-12.02731224,2.94185997-23.89257265,5.51571358-35.57257857,7.66693036C129.24882814,225.14285563,3.28748515,149.97404648,3.28748515,149.97404648" style="fill:none; opacity:.55555556; stroke:url(#uuid-e7cf4c86-f027-4ce1-a729-469c45df4f30); stroke-miterlimit:10;"/><path d="M1923.34761087,168.72314524c-126.25419838,48.55154338-251.45432968,109.7762185-424.63490963,61.80136597-76.17622257-21.10249917-138.92498533-31.69842246-199.59848494-37.60926912-60.77089835-5.92033531-117.66358704-13.31612413-191.44703772,8.18182024-166.6130055,48.54526441-303.29652168,31.57074484-387.16597707,2.67010755-28.94441161-9.97397608-57.09398089-16.88029771-80.85705739-24.80530632-91.74227041-30.59613443-192.82354301-23.03597199-324.73491257,11.30550825-11.9983333,3.12361647-23.82624446,5.98265647-35.46249317,8.49449915C130.89779924,230.82818157,3.34761087,162.02936135,3.34761087,162.02936135" style="fill:none; opacity:.64444444; stroke:url(#uuid-dc1e42d3-aae4-48c4-94f6-4f3c2b71121e); stroke-miterlimit:10;"/><path d="M1923.4077366,173.62876681c-113.2781254,44.93776804-239.35983891,126.86365413-422.52851575,71.4994618-78.52699449-23.73540991-141.09245089-38.83007754-198.40156578-49.35976901-64.33232573-11.82010127-118.54380391-22.33744164-191.64299446,.35164678-173.16223889,53.7474262-305.64525542,29.69749368-386.47063379-3.43422568-27.4403717-11.24828256-55.42561485-18.4589195-80.82466573-25.52277244-92.64512468-25.76598391-199.68239527-11.92310385-326.1582862,23.08353684-11.96748298,3.31242084-23.75902799,6.45305331-35.35240777,9.32206794C132.55822904,236.55817448,3.4077366,174.08467622,3.4077366,174.08467622" style="fill:none; opacity:.73333333; stroke:url(#uuid-b9f84220-5030-46b9-ae68-b8c5fdda1816); stroke-miterlimit:10;"/><path d="M1923.46786232,178.53438838c-100.30205242,41.3239927-227.30955654,144.05345694-420.42212188,81.19755763-80.89530438-26.33048294-143.0151229-46.36368594-197.20464662-61.11026889-67.60799192-18.3981477-119.40332296-31.30672388-191.83895119-7.47852668-179.65528634,59.09883982-308.03602051,27.90052454-385.7752905-9.53855891-25.95027236-12.49760143-53.74887651-20.11804483-80.79227407-26.24023856-93.53814445-21.17554351-206.51735939-.73510534-327.58165983,34.86156542-11.93419164,3.50902363-23.69065576,6.92667906-35.24232237,10.14963673C134.23384467,242.33122435,3.46786232,186.13999109,3.46786232,186.13999109" style="fill:none; opacity:.82222222; stroke:url(#uuid-e4504592-cd21-4863-88a0-3206ccd78e68); stroke-miterlimit:10;"/><path d="M1923.52798805,183.44000995c-87.32597944,37.71021736-215.30379077,161.33257628-418.31572801,90.89565346-83.2806609-28.89501753-144.60213184-54.15387652-196.00772746-72.86076878-70.45368111-25.63863731-120.24165219-40.23134283-192.03490793-15.30870015-186.08547671,64.59857264-310.48599205,26.17760036-385.07994722-15.64289213-24.47926924-13.72410262-52.073093-21.85789178-80.75988241-26.95770469-94.46221042-16.79308175-213.32448556,10.5262542-329.00503346,46.63959401-11.89778818,3.71427068-23.61685134,7.41633408-35.13223697,10.97720552C135.98130166,248.31669195,3.52798805,198.19530596,3.52798805,198.19530596" style="fill:none; opacity:.91111111; stroke:url(#uuid-a8ec497d-10f9-44e1-899d-32d8f0a4c623); stroke-miterlimit:10;"/><path d="M1923.58811378,188.34563156c-74.34990633,34.09644199-203.34174109,178.6897494-416.20933412,100.59374938-212.86759302-78.09600002-267.92183433-151.23032152-387.04167296-107.75014246-192.44683534,70.24541803-313.01230563,24.52204805-384.38460393-21.74722542-103.32950875-66.98651174-294.04722895-9.46177485-446.17804943,42.54722621C137.64363286,253.99824033,3.58811377,210.25062094,3.58811377,210.25062094" style="fill:none; stroke:url(#uuid-db556349-2113-4281-8cb0-96d1f405f8f7); stroke-miterlimit:10;"/><path d="M1923.58811378,193.78653506c-77.94198088,36.21412804-244.23068575,165.73552554-450.7202235,93.61724409-206.48953775-72.11828146-265.53637627-141.58181087-388.59576163-97.14787392-188.23893794,68.22526046-303.95852429,5.93626284-371.72159096-38.66291357-98.43960726-64.83801959-280.80054722-18.76856544-427.98679671,31.51107993C137.3774915,233.38371696,3.52798805,186.93884042,3.52798805,186.93884042" style="fill:none; opacity:.88888889; stroke:url(#uuid-780d7b36-82dc-4611-a0ed-674d1761ae10); stroke-miterlimit:10;"/><path d="M1923.58811378,199.2274385c-81.5340554,38.33181406-285.11963001,152.78130181-485.23111255,86.64073886-200.11148254-66.14056295-263.15091823-131.93330031-390.14985029-86.54560548-184.03104057,66.2051029-294.90474304-12.64952219-359.05857811-55.57860155-93.54970581-62.68952746-267.55386561-28.07535593-409.79554415,20.47493377s-275.88516635-.59184396-275.88516635-.59184396" style="fill:none; opacity:.77777778; stroke:url(#uuid-fbc90d48-6d2c-41d8-889c-ec70bde6e57d); stroke-miterlimit:10;"/><path d="M1923.58811378,204.66834194c-85.12612991,40.44950009-326.00857427,139.82707807-519.74200161,79.66423363-193.73342734-60.16284444-260.7654602-122.28478975-391.70393895-75.94333704-179.8231432,64.18494534-285.8509618-31.23530723-346.39556526-72.49428954-88.65980436-60.54103532-254.30718401-37.38214643-391.6042916,9.4387876C136.84520877,192.15467061,3.4077366,140.31527984,3.4077366,140.31527984" style="fill:none; opacity:.66666667; stroke:url(#uuid-0b4bd70d-d01f-4915-aa29-82ce95bbeef4); stroke-miterlimit:10;"/><path d="M1923.58811378,210.10924539c-88.71820443,42.56718612-366.89751853,126.87285433-554.25289066,72.6877284-187.35537213-54.18512594-258.38000216-112.63627919-393.2580276-65.34106861-175.61524583,62.16478779-276.79718055-49.82109226-333.73255241-89.40997753-83.76990291-58.39254319-241.0605024-46.68893693-373.41303905-1.59735857C136.57906741,171.54014744,3.34761088,117.00349955,3.34761088,117.00349955" style="fill:none; opacity:.55555556; stroke:url(#uuid-f117be93-3703-4298-beb6-6dc131d61396); stroke-miterlimit:10;"/><path d="M1923.58811379,215.55014883c-92.31027895,44.68487214-407.78646279,113.9186306-588.76377971,65.71122317-180.97731692-48.20740743-255.99454412-102.98776863-394.81211626-54.73880017-171.40734846,60.14463023-267.7433993-68.4068773-321.06953957-106.32566551-78.88000147-56.24405106-227.81382079-55.99572742-355.22178649-12.63350473C136.31292605,150.92562427,3.28748515,93.69171925,3.28748515,93.69171925" style="fill:none; opacity:.44444444; stroke:url(#uuid-9544d1e8-feff-4471-8413-c10877050652); stroke-miterlimit:10;"/><path d="M1923.58811379,220.99105227c-95.90235346,46.80255817-448.67540705,100.96440686-623.27466877,58.73471794-174.59926171-42.22968892-253.60908609-93.33925807-396.36620492-44.13653173-167.1994511,58.12447267-258.68961806-86.99266233-308.40652672-123.2413535-73.99010002-54.09555892-214.56713918-65.30251792-337.03053394-23.6696509C136.04678469,130.31110109,3.22735943,70.37993896,3.22735943,70.37993896" style="fill:none; opacity:.33333333; stroke:url(#uuid-85d8cb04-03fb-440a-8998-004388716491); stroke-miterlimit:10;"/><path d="M1923.58811379,226.43195571c-99.49442798,48.9202442-489.56435132,88.01018312-657.78555782,51.75821271-168.22120651-36.25197042-251.22362805-83.69074751-397.92029358-33.53426329-162.99155373,56.10431512-249.63583681-105.57844737-295.74351387-140.15704149-69.10019857-51.94706679-201.32045758-74.60930842-318.83928139-34.70579707S3.1672337,47.06815867,3.1672337,47.06815867" style="fill:none; opacity:.22222222; stroke:url(#uuid-d348fd4b-d762-4fe0-a74e-d378c0a55424); stroke-miterlimit:10;"/><path d="M1923.58811379,231.87285916c-103.08650249,51.03793022-530.45329558,75.05595939-692.29644688,44.78170748-161.8431513-30.27425191-248.83817001-74.04223695-399.47438223-22.93199486-158.78365636,54.08415756-240.58205556-124.1642324-283.08050102-157.07272947C484.52648654,46.85126765,360.66300769,12.73374339,248.08875483,50.90789907,135.51450196,89.08205475,3.10710798,23.75637838,3.10710798,23.75637838" style="fill:none; opacity:.11111111; stroke:url(#uuid-09a557f6-458c-4999-af1a-1d474e92a7b6); stroke-miterlimit:10;"/><path d="M1923.58811379,237.31376265c-106.67857705,53.15561627-571.34224023,62.10173553-726.80733626,37.80520218-155.46509603-24.29653335-246.45271195-64.3937263-401.02847091-12.32972632-154.57575895,52.06399999-231.52827423-142.75001762-270.41748805-173.98841762C466.01442295,41.15073839,350.50772434-4.42206861,242.87804247,32.02273138S3.04698225,.44459786,3.04698225,.44459786" style="fill:none; opacity:0; stroke:url(#uuid-19c23d0d-1e56-4772-97c3-1b07cbcd4c52); stroke-miterlimit:10;"/></g></g></g></g></g></svg>